<svg width="24" height="24" viewBox="0 0 24 24" fill="none" xmlns="http://www.w3.org/2000/svg">
<path d="M15.2746 12.3C15.2746 12.4333 15.2496 12.5623 15.1996 12.687C15.1496 12.8123 15.0829 12.9167 14.9996 13L10.3996 17.6C10.2163 17.7833 9.98294 17.875 9.69961 17.875C9.41628 17.875 9.18294 17.7833 8.99961 17.6C8.81628 17.4167 8.72461 17.1833 8.72461 16.9C8.72461 16.6167 8.81628 16.3833 8.99961 16.2L12.8996 12.3L8.99961 8.4C8.81628 8.21667 8.72461 7.98333 8.72461 7.7C8.72461 7.41667 8.81628 7.18333 8.99961 7C9.18294 6.81667 9.41628 6.725 9.69961 6.725C9.98294 6.725 10.2163 6.81667 10.3996 7L14.9996 11.6C15.0996 11.7 15.1703 11.8083 15.2116 11.925C15.2536 12.0417 15.2746 12.1667 15.2746 12.3Z" fill="#787878"/>
</svg>
