<svg width="13" height="14" viewBox="0 0 13 14" fill="none" xmlns="http://www.w3.org/2000/svg">
<path d="M2.125 13.25C1.78125 13.25 1.48688 13.1275 1.24188 12.8825C0.996876 12.6375 0.874584 12.3433 0.875001 12V3.25C0.875001 2.90625 0.997501 2.61187 1.2425 2.36687C1.4875 2.12187 1.78167 1.99958 2.125 2H2.75V0.75H4V2H9V0.75H10.25V2H10.875C11.2188 2 11.5131 2.1225 11.7581 2.3675C12.0031 2.6125 12.1254 2.90667 12.125 3.25V12C12.125 12.3438 12.0025 12.6381 11.7575 12.8831C11.5125 13.1281 11.2183 13.2504 10.875 13.25H2.125ZM2.125 12H10.875V5.75H2.125V12ZM2.125 4.5H10.875V3.25H2.125V4.5Z" fill="#3D4148"/>
</svg>
