<svg width="13" height="14" viewBox="0 0 13 14" fill="none" xmlns="http://www.w3.org/2000/svg">
<path d="M12.544 9.534C12.5086 9.44917 12.4588 9.37104 12.397 9.303L10.297 7.203C10.1652 7.07119 9.98641 6.99714 9.8 6.99714C9.61359 6.99714 9.43481 7.07119 9.303 7.203C9.17119 7.33481 9.09714 7.51359 9.09714 7.7C9.09714 7.88641 9.17119 8.06519 9.303 8.197L10.213 9.1H6.3C6.11435 9.1 5.9363 9.17375 5.80503 9.30503C5.67375 9.4363 5.6 9.61435 5.6 9.8C5.6 9.98565 5.67375 10.1637 5.80503 10.295C5.9363 10.4263 6.11435 10.5 6.3 10.5H10.213L9.303 11.403C9.23739 11.4681 9.18531 11.5455 9.14978 11.6308C9.11424 11.7161 9.09594 11.8076 9.09594 11.9C9.09594 11.9924 9.11424 12.0839 9.14978 12.1692C9.18531 12.2545 9.23739 12.3319 9.303 12.397C9.36808 12.4626 9.4455 12.5147 9.5308 12.5502C9.6161 12.5858 9.70759 12.6041 9.8 12.6041C9.89241 12.6041 9.9839 12.5858 10.0692 12.5502C10.1545 12.5147 10.2319 12.4626 10.297 12.397L12.397 10.297C12.4618 10.2313 12.5119 10.1525 12.544 10.066C12.614 9.89558 12.614 9.70442 12.544 9.534ZM7.7 12.6H2.1C1.91435 12.6 1.7363 12.5263 1.60503 12.395C1.47375 12.2637 1.4 12.0857 1.4 11.9V2.1C1.4 1.91435 1.47375 1.7363 1.60503 1.60503C1.7363 1.47375 1.91435 1.4 2.1 1.4H5.6V3.5C5.6 4.05695 5.82125 4.5911 6.21508 4.98492C6.6089 5.37875 7.14305 5.6 7.7 5.6H10.5C10.6382 5.59931 10.7731 5.55773 10.8877 5.48049C11.0023 5.40326 11.0915 5.29383 11.144 5.166C11.1976 5.03852 11.2123 4.89802 11.1861 4.76223C11.1599 4.62644 11.0941 4.50144 10.997 4.403L6.797 0.203C6.73914 0.148551 6.67298 0.103657 6.601 0.0699999H6.538L6.342 0H2.1C1.54305 0 1.0089 0.221249 0.615076 0.615076C0.221249 1.0089 0 1.54305 0 2.1V11.9C0 12.457 0.221249 12.9911 0.615076 13.3849C1.0089 13.7788 1.54305 14 2.1 14H7.7C7.88565 14 8.0637 13.9263 8.19497 13.795C8.32625 13.6637 8.4 13.4857 8.4 13.3C8.4 13.1143 8.32625 12.9363 8.19497 12.805C8.0637 12.6737 7.88565 12.6 7.7 12.6ZM7 2.387L8.813 4.2H7.7C7.51435 4.2 7.3363 4.12625 7.20503 3.99497C7.07375 3.8637 7 3.68565 7 3.5V2.387Z" fill="#1C3655"/>
</svg>
