<svg id="_467411_appointment_calendar_clock_deadline_office_icon" data-name="467411_appointment_calendar_clock_deadline_office_icon" xmlns="http://www.w3.org/2000/svg" width="15" height="14" viewBox="0 0 15 14">
  <g id="Group_9536" data-name="Group 9536">
    <path id="Path_8266" data-name="Path 8266" d="M23,41.281a.219.219,0,0,1-.219.219H21.219A.219.219,0,0,1,21,41.281V40.219A.219.219,0,0,1,21.219,40h1.563a.219.219,0,0,1,.219.219ZM18,34.25v-1.5a.75.75,0,0,1,1.5,0v1.5a.75.75,0,0,1-1.5,0Zm8,0v-1.5a.75.75,0,0,1,1.5,0v1.5a.75.75,0,0,1-1.5,0Zm2-.75v.85a1.25,1.25,0,0,1-2.5,0V33.5H24v.85a1.25,1.25,0,0,1-2.5,0V33.5H20v.85a1.25,1.25,0,0,1-2.5,0V33.5A1.5,1.5,0,0,0,16,35v9a1.5,1.5,0,0,0,1.5,1.5h6.72a4.465,4.465,0,0,1-.8-1H17.5A.5.5,0,0,1,17,44V37H28.5v.982a4.4,4.4,0,0,1,1,.435V35A1.5,1.5,0,0,0,28,33.5Zm-6,.75v-1.5a.75.75,0,0,1,1.5,0v1.5a.75.75,0,0,1-1.5,0Zm-4,7.969A.219.219,0,0,1,18.219,42h1.563a.219.219,0,0,1,.219.219v1.063a.219.219,0,0,1-.219.219H18.219A.219.219,0,0,1,18,43.281Zm2-2.937a.219.219,0,0,1-.219.219H18.219A.219.219,0,0,1,18,39.281V38.219A.219.219,0,0,1,18.219,38h1.563a.219.219,0,0,1,.219.219Zm3,0a.219.219,0,0,1-.219.219H21.219A.219.219,0,0,1,21,39.281V38.219A.219.219,0,0,1,21.219,38h1.563a.219.219,0,0,1,.219.219Zm-2,2.937A.219.219,0,0,1,21.219,42h1.563a.219.219,0,0,1,.219.219v1.063a.219.219,0,0,1-.219.219H21.219A.219.219,0,0,1,21,43.281Zm-1-.937a.219.219,0,0,1-.219.219H18.219A.219.219,0,0,1,18,41.281V40.219A.219.219,0,0,1,18.219,40h1.563a.219.219,0,0,1,.219.219ZM27.25,38.5A3.75,3.75,0,1,0,31,42.25,3.751,3.751,0,0,0,27.25,38.5Zm0,6.5A2.75,2.75,0,1,1,30,42.25,2.753,2.753,0,0,1,27.25,45Zm.268-4.8.212,2.338a.386.386,0,0,1-.154.344l-1.214.906a.215.215,0,0,1-.271-.011l-.118-.1a.215.215,0,0,1-.024-.3l.836-1.017.2-2.159A.216.216,0,0,1,27.2,40H27.3A.216.216,0,0,1,27.518,40.2ZM26,38.034V38H24.219a.219.219,0,0,0-.219.219v1.076A4.4,4.4,0,0,1,26,38.034Z" transform="translate(-16 -32)" fill="#242424"/>
  </g>
</svg>
