<svg xmlns="http://www.w3.org/2000/svg" width="9.838" height="9.838" viewBox="0 0 9.838 9.838">
  <path id="_618036_calendar_date_event_reminder_icon" data-name="618036_calendar_date_event_reminder_icon" d="M8.916,9.838H.922A.906.906,0,0,1,0,8.916V3.382H9.838V8.916A.906.906,0,0,1,8.916,9.838ZM3.382,5.227a.29.29,0,0,0-.307-.307H2.46a.29.29,0,0,0-.307.307v.615a.29.29,0,0,0,.307.307h.615a.29.29,0,0,0,.307-.307Zm0,2.152a.29.29,0,0,0-.307-.307H2.46a.29.29,0,0,0-.307.307v.615A.29.29,0,0,0,2.46,8.3h.615a.29.29,0,0,0,.307-.307ZM5.534,5.227a.29.29,0,0,0-.307-.307H4.612a.29.29,0,0,0-.307.307v.615a.29.29,0,0,0,.307.307h.615a.29.29,0,0,0,.307-.307Zm0,2.152a.29.29,0,0,0-.307-.307H4.612a.29.29,0,0,0-.307.307v.615a.29.29,0,0,0,.307.307h.615a.29.29,0,0,0,.307-.307ZM7.686,5.227a.29.29,0,0,0-.307-.307H6.764a.29.29,0,0,0-.307.307v.615a.29.29,0,0,0,.307.307h.615a.29.29,0,0,0,.307-.307Zm0,2.152a.29.29,0,0,0-.307-.307H6.764a.29.29,0,0,0-.307.307v.615a.29.29,0,0,0,.307.307h.615a.29.29,0,0,0,.307-.307ZM0,2.152A.906.906,0,0,1,.922,1.23h1.23V.615a.615.615,0,1,1,1.23,0V1.23H6.456V.615a.615.615,0,0,1,1.23,0V1.23h1.23a.906.906,0,0,1,.922.922v.615H0Z" fill="#606060" fill-rule="evenodd"/>
</svg>
