<svg xmlns="http://www.w3.org/2000/svg" width="14.01" height="14.01" viewBox="0 0 14.01 14.01">
  <path id="_618036_calendar_date_event_reminder_icon" data-name="618036_calendar_date_event_reminder_icon" d="M12.7,14.01H1.313A1.29,1.29,0,0,1,0,12.7V4.816H14.01V12.7A1.29,1.29,0,0,1,12.7,14.01ZM4.816,7.443A.414.414,0,0,0,4.378,7H3.5a.414.414,0,0,0-.438.438v.876a.414.414,0,0,0,.438.438h.876a.414.414,0,0,0,.438-.438Zm0,3.065a.414.414,0,0,0-.438-.438H3.5a.414.414,0,0,0-.438.438v.876a.414.414,0,0,0,.438.438h.876a.414.414,0,0,0,.438-.438ZM7.881,7.443A.414.414,0,0,0,7.443,7H6.567a.414.414,0,0,0-.438.438v.876a.414.414,0,0,0,.438.438h.876a.414.414,0,0,0,.438-.438Zm0,3.065a.414.414,0,0,0-.438-.438H6.567a.414.414,0,0,0-.438.438v.876a.414.414,0,0,0,.438.438h.876a.414.414,0,0,0,.438-.438Zm3.065-3.065A.414.414,0,0,0,10.507,7H9.632a.414.414,0,0,0-.438.438v.876a.414.414,0,0,0,.438.438h.876a.414.414,0,0,0,.438-.438Zm0,3.065a.414.414,0,0,0-.438-.438H9.632a.414.414,0,0,0-.438.438v.876a.414.414,0,0,0,.438.438h.876a.414.414,0,0,0,.438-.438ZM0,3.065A1.29,1.29,0,0,1,1.313,1.751H3.065V.876a.876.876,0,1,1,1.751,0v.876H9.194V.876a.876.876,0,0,1,1.751,0v.876H12.7A1.29,1.29,0,0,1,14.01,3.065V3.94H0Z" fill="#213449" fill-rule="evenodd" opacity="0.8"/>
</svg>
