<svg xmlns="http://www.w3.org/2000/svg" width="23" height="22" viewBox="0 0 23 22">
  <g id="Group_10124" data-name="Group 10124" transform="translate(6548 20714)">
    <path id="Path_112" data-name="Path 112" d="M0,0H17V17H0Z" transform="translate(-6548 -20714)" fill="none"/>
    <path id="Path_113" data-name="Path 113" d="M8.568,11.521a10.667,10.667,0,0,0,4.668,4.664l1.558-1.562a.711.711,0,0,1,.719-.174,8.063,8.063,0,0,0,2.529.4.706.706,0,0,1,.708.708v2.479a.706.706,0,0,1-.708.708A12.041,12.041,0,0,1,6,6.708.708.708,0,0,1,6.708,6H9.188a.706.706,0,0,1,.708.708,8.063,8.063,0,0,0,.4,2.529.711.711,0,0,1-.174.719Z" transform="translate(-6551.875 -20717.875)" fill="#243756"/>
    <text id="_1" data-name="1" transform="translate(-6531 -20694)" fill="#243756" font-size="10" font-family="Helvetica"><tspan x="0" y="0">1</tspan></text>
  </g>
</svg>
