<svg xmlns="http://www.w3.org/2000/svg" width="17" height="17" viewBox="0 0 17 17">
  <g id="_3669395_call_ic_icon" data-name="3669395_call_ic_icon" opacity="0.8">
    <path id="Path_112" data-name="Path 112" d="M0,0H17V17H0Z" fill="none"/>
    <path id="Path_113" data-name="Path 113" d="M8.568,11.521a10.667,10.667,0,0,0,4.668,4.664l1.558-1.562a.711.711,0,0,1,.719-.174,8.063,8.063,0,0,0,2.529.4.706.706,0,0,1,.708.708v2.479a.706.706,0,0,1-.708.708A12.041,12.041,0,0,1,6,6.708.708.708,0,0,1,6.708,6H9.188a.706.706,0,0,1,.708.708,8.063,8.063,0,0,0,.4,2.529.711.711,0,0,1-.174.719Z" transform="translate(-3.875 -3.875)" fill="#213449"/>
  </g>
</svg>
