<svg xmlns="http://www.w3.org/2000/svg" width="12.804" height="9.388" viewBox="0 0 12.804 9.388">
  <g id="_2780767_antivirus_system_protection_system_security_web_security_windows_protection_icon" data-name="2780767_antivirus_system protection_system security_web security_windows protection_icon" transform="translate(-0.5 -15.163)">
    <g id="Group_9576" data-name="Group 9576" transform="translate(1.135 15.163)">
      <path id="Path_8285" data-name="Path 8285" d="M4.212,23.108H14.673a.536.536,0,0,0,.536-.536V15.7a.538.538,0,0,0-.536-.538H4.212a.538.538,0,0,0-.536.538v6.872A.536.536,0,0,0,4.212,23.108Z" transform="translate(-3.676 -15.163)" fill="#213449"/>
      <path id="Path_8288" data-name="Path 8288" d="M24.365,18.9a2.035,2.035,0,1,0-2.035-2.034A2.034,2.034,0,0,0,24.365,18.9ZM23.5,16.648a.335.335,0,0,1,.464.087l.216.317.787-1.072a.334.334,0,1,1,.538.4L24.44,17.824a.332.332,0,0,1-.269.137h-.005a.331.331,0,0,1-.269-.145l-.482-.7A.333.333,0,0,1,23.5,16.648Z" transform="translate(-18.598 -13.093)" fill="#fff"/>
    </g>
    <g id="Group_9577" data-name="Group 9577" transform="translate(0.5 23.511)">
      <path id="Path_8286" data-name="Path 8286" d="M12.785,56.891H1.018a.52.52,0,0,0,0,1.04H12.786a.518.518,0,0,0,.368-.153.527.527,0,0,0,.149-.366A.519.519,0,0,0,12.785,56.891Zm-5.444.759h-.88a.239.239,0,1,1,0-.478h.88a.239.239,0,1,1,0,.478Z" transform="translate(-0.5 -56.891)" fill="#213449"/>
    </g>
  </g>
</svg>
