<svg xmlns="http://www.w3.org/2000/svg" width="15" height="8.757" viewBox="0 0 15 8.757">
  <g id="Group_9579" data-name="Group 9579" transform="translate(-1036.44 -141.5)">
    <g id="Group_User" data-name="Group User" transform="translate(1036.44 141.5)">
      <circle id="Ellipse_28" data-name="Ellipse 28" cx="2.189" cy="2.189" r="2.189" transform="translate(5.304 0)" fill="#213449"/>
      <path id="Path_8238" data-name="Path 8238" d="M12.744,13.894A7.506,7.506,0,0,0,9.378,13a7.506,7.506,0,0,0-3.359.894A1.876,1.876,0,0,0,5,15.564v.288a.894.894,0,0,0,.894.9h6.968a.894.894,0,0,0,.894-.9v-.288A1.876,1.876,0,0,0,12.744,13.894Z" transform="translate(-1.885 -7.996)" fill="#213449"/>
      <circle id="Ellipse_29" data-name="Ellipse 29" cx="1.564" cy="1.564" r="1.564" transform="translate(1.239 0)" fill="#213449"/>
      <circle id="Ellipse_30" data-name="Ellipse 30" cx="1.564" cy="1.564" r="1.564" transform="translate(10.621 0)" fill="#213449"/>
      <path id="Path_8239" data-name="Path 8239" d="M20.148,11.155a4.341,4.341,0,0,0-2.139-.625,4.341,4.341,0,0,0-2.139.625,1.282,1.282,0,0,0-.263.213.313.313,0,0,0,.119.513,9.439,9.439,0,0,1,1.251.532,2.5,2.5,0,0,1,.888.782.313.313,0,0,0,.256.131h2.045a.7.7,0,0,0,.657-.726v-.2a1.439,1.439,0,0,0-.676-1.245Z" transform="translate(-5.824 -7.071)" fill="#213449"/>
      <path id="Path_8240" data-name="Path 8240" d="M3.867,12.413a9.382,9.382,0,0,1,1.251-.532.313.313,0,0,0,.119-.513,1.289,1.289,0,0,0-.263-.213,4.341,4.341,0,0,0-2.139-.625A4.341,4.341,0,0,0,.7,11.155,1.439,1.439,0,0,0,.02,12.406v.2a.7.7,0,0,0,.657.719H2.722a.313.313,0,0,0,.256-.131,2.5,2.5,0,0,1,.888-.782Z" transform="translate(-0.019 -7.071)" fill="#213449"/>
    </g>
  </g>
</svg>
