<svg xmlns="http://www.w3.org/2000/svg" width="9.319" height="9.319" viewBox="0 0 9.319 9.319">
  <g id="Group_9579" data-name="Group 9579" transform="translate(-1042.488 -141.5)">
    <g id="Group_User" data-name="Group User" transform="translate(1042.488 141.5)">
      <circle id="Ellipse_28" data-name="Ellipse 28" cx="2.33" cy="2.33" r="2.33" transform="translate(2.33 0)" fill="#213449"/>
      <path id="Path_8238" data-name="Path 8238" d="M13.241,13.952A7.988,7.988,0,0,0,9.66,13a7.988,7.988,0,0,0-3.575.952A2,2,0,0,0,5,15.729v.306a.952.952,0,0,0,.952.959h7.416a.952.952,0,0,0,.952-.959v-.306A2,2,0,0,0,13.241,13.952Z" transform="translate(-5 -7.675)" fill="#213449"/>
    </g>
  </g>
</svg>
