<svg width="13" height="12" viewBox="0 0 13 12" fill="none" xmlns="http://www.w3.org/2000/svg">
<path d="M11.4688 11.625C10.125 11.625 8.81521 11.3254 7.53938 10.7262C6.26354 10.1271 5.13333 9.33542 4.14875 8.35125C3.16417 7.36708 2.3725 6.23688 1.77375 4.96062C1.175 3.68437 0.875417 2.37458 0.875 1.03125C0.875 0.84375 0.9375 0.6875 1.0625 0.5625C1.1875 0.4375 1.34375 0.375 1.53125 0.375H4.0625C4.20833 0.375 4.33854 0.421875 4.45313 0.515625C4.56771 0.609375 4.63542 0.729167 4.65625 0.875L5.0625 3.0625C5.08333 3.20833 5.08063 3.34125 5.05438 3.46125C5.02813 3.58125 4.96833 3.68792 4.875 3.78125L3.375 5.3125C3.8125 6.0625 4.35938 6.76562 5.01562 7.42188C5.67188 8.07812 6.39583 8.64583 7.1875 9.125L8.65625 7.65625C8.75 7.5625 8.8725 7.49229 9.02375 7.44562C9.175 7.39896 9.32333 7.38583 9.46875 7.40625L11.625 7.84375C11.7708 7.875 11.8906 7.94542 11.9844 8.055C12.0781 8.16458 12.125 8.29208 12.125 8.4375V10.9688C12.125 11.1563 12.0625 11.3125 11.9375 11.4375C11.8125 11.5625 11.6563 11.625 11.4688 11.625Z" fill="#4772E0"/>
</svg>
