<svg width="18" height="19" viewBox="0 0 18 19" fill="none" xmlns="http://www.w3.org/2000/svg">
<path d="M8.9925 1.55469C4.8525 1.55469 1.5 4.91469 1.5 9.05469C1.5 13.1947 4.8525 16.5547 8.9925 16.5547C13.14 16.5547 16.5 13.1947 16.5 9.05469C16.5 4.91469 13.14 1.55469 8.9925 1.55469ZM9 15.0547C5.685 15.0547 3 12.3697 3 9.05469C3 5.73969 5.685 3.05469 9 3.05469C12.315 3.05469 15 5.73969 15 9.05469C15 12.3697 12.315 15.0547 9 15.0547Z" fill="#3D4148"/>
<path d="M9.375 5.30469H8.25V9.80469L12.1875 12.1672L12.75 11.2447L9.375 9.24219V5.30469Z" fill="#3D4148"/>
</svg>
