<svg width="24" height="23" viewBox="0 0 24 23" fill="none" xmlns="http://www.w3.org/2000/svg">
<path d="M22.1584 4.02296L18.1316 19.9184C17.9893 20.4796 17.3567 20.972 16.7775 20.972H2.44662C1.86844 20.972 1.39799 20.5016 1.39799 19.9234C1.39799 19.3449 1.86844 18.8745 2.44662 18.8745H15.8452H16.0785C16.3986 18.8745 16.6776 18.6572 16.7561 18.347L21.1836 0.870543C21.2366 0.661602 21.1898 0.439848 21.0578 0.269609C20.9252 0.0993711 20.7217 0 20.5063 0H5.79726C5.48371 0 5.20835 0.208679 5.12415 0.510453L0.108001 18.5037C0.0692983 18.6425 0.0339954 18.8724 0.0292883 19.0167L0 19.9236C0 21.2727 1.09753 22.37 2.44662 22.37H16.7775C17.9971 22.37 19.1875 21.444 19.4867 20.2615L23.5135 4.36605C23.6082 3.99184 23.3818 3.61162 23.0073 3.51669C22.6339 3.42307 22.2536 3.64875 22.1584 4.02296ZM6.60844 4.94868H17.4467L16.5929 8.31736H5.66494L6.60844 4.94868Z" fill="#3D4148"/>
</svg>
