<svg width="16" height="16" viewBox="0 0 16 16" fill="none" xmlns="http://www.w3.org/2000/svg">
<mask id="path-1-inside-1_1127_4244" fill="white">
<path fill-rule="evenodd" clip-rule="evenodd" d="M5.8665 4.93516C6.52925 4.93516 7.0665 4.3979 7.0665 3.73516C7.0665 3.07241 6.52925 2.53516 5.8665 2.53516C5.20376 2.53516 4.6665 3.07241 4.6665 3.73516C4.6665 4.3979 5.20376 4.93516 5.8665 4.93516ZM10.1331 4.93516C10.7958 4.93516 11.3331 4.3979 11.3331 3.73516C11.3331 3.07241 10.7958 2.53516 10.1331 2.53516C9.47036 2.53516 8.93311 3.07241 8.93311 3.73516C8.93311 4.3979 9.47036 4.93516 10.1331 4.93516ZM11.3331 8.00182C11.3331 8.66456 10.7958 9.20182 10.1331 9.20182C9.47036 9.20182 8.93311 8.66456 8.93311 8.00182C8.93311 7.33908 9.47036 6.80182 10.1331 6.80182C10.7958 6.80182 11.3331 7.33908 11.3331 8.00182ZM5.8665 9.20182C6.52925 9.20182 7.0665 8.66456 7.0665 8.00182C7.0665 7.33908 6.52925 6.80182 5.8665 6.80182C5.20376 6.80182 4.6665 7.33908 4.6665 8.00182C4.6665 8.66456 5.20376 9.20182 5.8665 9.20182ZM11.3331 12.2685C11.3331 12.9312 10.7958 13.4685 10.1331 13.4685C9.47036 13.4685 8.93311 12.9312 8.93311 12.2685C8.93311 11.6057 9.47036 11.0685 10.1331 11.0685C10.7958 11.0685 11.3331 11.6057 11.3331 12.2685ZM5.8665 13.4685C6.52925 13.4685 7.0665 12.9312 7.0665 12.2685C7.0665 11.6057 6.52925 11.0685 5.8665 11.0685C5.20376 11.0685 4.6665 11.6057 4.6665 12.2685C4.6665 12.9312 5.20376 13.4685 5.8665 13.4685Z"/>
</mask>
<path fill-rule="evenodd" clip-rule="evenodd" d="M5.8665 4.93516C6.52925 4.93516 7.0665 4.3979 7.0665 3.73516C7.0665 3.07241 6.52925 2.53516 5.8665 2.53516C5.20376 2.53516 4.6665 3.07241 4.6665 3.73516C4.6665 4.3979 5.20376 4.93516 5.8665 4.93516ZM10.1331 4.93516C10.7958 4.93516 11.3331 4.3979 11.3331 3.73516C11.3331 3.07241 10.7958 2.53516 10.1331 2.53516C9.47036 2.53516 8.93311 3.07241 8.93311 3.73516C8.93311 4.3979 9.47036 4.93516 10.1331 4.93516ZM11.3331 8.00182C11.3331 8.66456 10.7958 9.20182 10.1331 9.20182C9.47036 9.20182 8.93311 8.66456 8.93311 8.00182C8.93311 7.33908 9.47036 6.80182 10.1331 6.80182C10.7958 6.80182 11.3331 7.33908 11.3331 8.00182ZM5.8665 9.20182C6.52925 9.20182 7.0665 8.66456 7.0665 8.00182C7.0665 7.33908 6.52925 6.80182 5.8665 6.80182C5.20376 6.80182 4.6665 7.33908 4.6665 8.00182C4.6665 8.66456 5.20376 9.20182 5.8665 9.20182ZM11.3331 12.2685C11.3331 12.9312 10.7958 13.4685 10.1331 13.4685C9.47036 13.4685 8.93311 12.9312 8.93311 12.2685C8.93311 11.6057 9.47036 11.0685 10.1331 11.0685C10.7958 11.0685 11.3331 11.6057 11.3331 12.2685ZM5.8665 13.4685C6.52925 13.4685 7.0665 12.9312 7.0665 12.2685C7.0665 11.6057 6.52925 11.0685 5.8665 11.0685C5.20376 11.0685 4.6665 11.6057 4.6665 12.2685C4.6665 12.9312 5.20376 13.4685 5.8665 13.4685Z" fill="#98A1B0"/>
<path d="M5.5665 3.73516C5.5665 3.56947 5.70082 3.43516 5.8665 3.43516V6.43516C7.35767 6.43516 8.5665 5.22633 8.5665 3.73516H5.5665ZM5.8665 4.03516C5.70082 4.03516 5.5665 3.90084 5.5665 3.73516H8.5665C8.5665 2.24399 7.35767 1.03516 5.8665 1.03516V4.03516ZM6.1665 3.73516C6.1665 3.90084 6.03219 4.03516 5.8665 4.03516V1.03516C4.37534 1.03516 3.1665 2.24399 3.1665 3.73516H6.1665ZM5.8665 3.43516C6.03219 3.43516 6.1665 3.56947 6.1665 3.73516H3.1665C3.1665 5.22633 4.37534 6.43516 5.8665 6.43516V3.43516ZM9.83311 3.73516C9.83311 3.56947 9.96742 3.43516 10.1331 3.43516V6.43516C11.6243 6.43516 12.8331 5.22632 12.8331 3.73516H9.83311ZM10.1331 4.03516C9.96742 4.03516 9.83311 3.90084 9.83311 3.73516H12.8331C12.8331 2.24399 11.6243 1.03516 10.1331 1.03516V4.03516ZM10.4331 3.73516C10.4331 3.90084 10.2988 4.03516 10.1331 4.03516V1.03516C8.64194 1.03516 7.43311 2.24399 7.43311 3.73516H10.4331ZM10.1331 3.43516C10.2988 3.43516 10.4331 3.56947 10.4331 3.73516H7.43311C7.43311 5.22632 8.64194 6.43516 10.1331 6.43516V3.43516ZM10.1331 10.7018C11.6243 10.7018 12.8331 9.49299 12.8331 8.00182H9.83311C9.83311 7.83613 9.96742 7.70182 10.1331 7.70182V10.7018ZM7.43311 8.00182C7.43311 9.49299 8.64194 10.7018 10.1331 10.7018V7.70182C10.2988 7.70182 10.4331 7.83613 10.4331 8.00182H7.43311ZM10.1331 5.30182C8.64194 5.30182 7.43311 6.51065 7.43311 8.00182H10.4331C10.4331 8.1675 10.2988 8.30182 10.1331 8.30182V5.30182ZM12.8331 8.00182C12.8331 6.51065 11.6243 5.30182 10.1331 5.30182V8.30182C9.96742 8.30182 9.83311 8.1675 9.83311 8.00182H12.8331ZM5.5665 8.00182C5.5665 7.83613 5.70082 7.70182 5.8665 7.70182V10.7018C7.35767 10.7018 8.5665 9.49299 8.5665 8.00182H5.5665ZM5.8665 8.30182C5.70082 8.30182 5.5665 8.1675 5.5665 8.00182H8.5665C8.5665 6.51065 7.35767 5.30182 5.8665 5.30182V8.30182ZM6.1665 8.00182C6.1665 8.1675 6.03219 8.30182 5.8665 8.30182V5.30182C4.37534 5.30182 3.1665 6.51065 3.1665 8.00182H6.1665ZM5.8665 7.70182C6.03219 7.70182 6.1665 7.83613 6.1665 8.00182H3.1665C3.1665 9.49299 4.37534 10.7018 5.8665 10.7018V7.70182ZM10.1331 14.9685C11.6243 14.9685 12.8331 13.7597 12.8331 12.2685H9.83311C9.83311 12.1028 9.96742 11.9685 10.1331 11.9685V14.9685ZM7.43311 12.2685C7.43311 13.7597 8.64194 14.9685 10.1331 14.9685V11.9685C10.2988 11.9685 10.4331 12.1028 10.4331 12.2685H7.43311ZM10.1331 9.56848C8.64194 9.56848 7.43311 10.7773 7.43311 12.2685H10.4331C10.4331 12.4342 10.2988 12.5685 10.1331 12.5685V9.56848ZM12.8331 12.2685C12.8331 10.7773 11.6243 9.56848 10.1331 9.56848V12.5685C9.96742 12.5685 9.83311 12.4342 9.83311 12.2685H12.8331ZM5.5665 12.2685C5.5665 12.1028 5.70082 11.9685 5.8665 11.9685V14.9685C7.35767 14.9685 8.5665 13.7597 8.5665 12.2685H5.5665ZM5.8665 12.5685C5.70082 12.5685 5.5665 12.4342 5.5665 12.2685H8.5665C8.5665 10.7773 7.35767 9.56848 5.8665 9.56848V12.5685ZM6.1665 12.2685C6.1665 12.4342 6.03219 12.5685 5.8665 12.5685V9.56848C4.37534 9.56848 3.1665 10.7773 3.1665 12.2685H6.1665ZM5.8665 11.9685C6.03219 11.9685 6.1665 12.1028 6.1665 12.2685H3.1665C3.1665 13.7597 4.37534 14.9685 5.8665 14.9685V11.9685Z" fill="#98A1B0" mask="url(#path-1-inside-1_1127_4244)"/>
</svg>
