<svg width="17" height="17" viewBox="0 0 17 17" fill="none" xmlns="http://www.w3.org/2000/svg">
<path d="M8.54205 9.925C8.15013 9.92494 7.81217 9.78514 7.5369 9.5085C7.26166 9.23188 7.12306 8.89279 7.12363 8.5C7.12363 8.49992 7.12363 8.49984 7.12363 8.49976L7.27363 8.5C7.27363 8.14583 7.39711 7.84465 7.64408 7.59645C7.89105 7.34825 8.19045 7.22443 8.54229 7.225L8.54205 9.925ZM8.54205 9.925C8.93367 9.92563 9.2715 9.78606 9.54683 9.50935C9.82207 9.23274 9.96089 8.89345 9.96095 8.50024M8.54205 9.925L8.54229 9.775V9.925C8.54221 9.925 8.54213 9.925 8.54205 9.925ZM8.54205 9.925L8.54229 7.075C8.93431 7.075 9.27235 7.2148 9.54767 7.4915C9.82298 7.76818 9.96157 8.10735 9.96095 8.50024M9.96095 8.50024L9.81095 8.5H9.96095C9.96095 8.50008 9.96095 8.50016 9.96095 8.50024ZM5.98467 14.2615L5.9736 14.1724L5.8899 14.1401C5.71475 14.0724 5.55002 13.9913 5.39554 13.897C5.23679 13.8 5.08187 13.6961 4.93076 13.5853L4.86212 13.5349L4.78369 13.5681L2.38966 14.579L0.195838 10.7707L2.2687 9.19311L2.33876 9.1398L2.32637 9.05264C2.31318 8.95989 2.30672 8.87119 2.30672 8.78645V8.21355C2.30672 8.12881 2.31318 8.04011 2.32637 7.94736L2.33876 7.8602L2.2687 7.80689L0.195838 6.2293L2.38966 2.42101L4.78369 3.43194L4.86196 3.46499L4.93055 3.41485C5.08145 3.30456 5.23933 3.20107 5.40422 3.1044C5.568 3.00839 5.73118 2.92644 5.89376 2.85836L5.97395 2.82478L5.98467 2.73851L6.30663 0.15H10.6934L11.0153 2.73851L11.0264 2.82756L11.1101 2.85991C11.2852 2.92761 11.45 3.00868 11.6045 3.10302C11.7632 3.19996 11.9181 3.30385 12.0692 3.4147L12.1379 3.46505L12.2163 3.43194L14.6103 2.42101L16.8042 6.2293L14.7313 7.80689L14.6612 7.8602L14.6736 7.94736C14.6868 8.04011 14.6933 8.12881 14.6933 8.21355V8.78645C14.6933 8.86344 14.6815 8.94538 14.6567 9.03273L14.6287 9.13115L14.7102 9.19311L16.783 10.7707L14.5894 14.5786L12.2167 13.5682L12.1383 13.5348L12.0694 13.5851C11.9185 13.6954 11.7607 13.7989 11.5958 13.8956C11.432 13.9916 11.2688 14.0736 11.1062 14.1416L11.0261 14.1752L11.0153 14.2615L10.6934 16.85H6.30663L5.98467 14.2615ZM5.73209 8.5V8.4999C5.73155 7.71723 6.00166 7.05391 6.54496 6.50142C7.08728 5.94993 7.74989 5.675 8.54229 5.675C9.31986 5.675 9.97938 5.94944 10.5292 6.50205C11.0791 7.05469 11.3525 7.71786 11.3525 8.5C11.3525 9.28214 11.0791 9.94531 10.5292 10.4979C9.97938 11.0506 9.31986 11.325 8.54229 11.325C7.74929 11.325 7.08673 11.05 6.54501 10.4986C6.00224 9.94613 5.73209 9.28275 5.73209 8.5ZM7.50533 15.3182L7.52142 15.45H7.65423H9.32463H9.45621L9.47335 15.3195L9.75633 13.1663C10.1691 13.0506 10.5548 12.8876 10.9129 12.677C11.2692 12.4675 11.597 12.2177 11.8963 11.928L13.8976 12.761L14.0199 12.8119L14.0855 12.6968L14.9101 11.2518L14.9753 11.1376L14.8706 11.0581L13.1378 9.74185C13.1935 9.56468 13.2336 9.38032 13.2582 9.18893C13.2873 8.96311 13.3017 8.73345 13.3017 8.5C13.3017 8.2671 13.2873 8.03772 13.2582 7.81192C13.2336 7.62044 13.1935 7.43581 13.1377 7.2582L14.8706 5.94195L14.9753 5.86239L14.9101 5.74815L14.0855 4.30315L14.0193 4.18712L13.8964 4.23952L11.8978 5.09164C11.5979 4.78892 11.2695 4.53254 10.9129 4.32297C10.5555 4.11302 10.1702 3.95014 9.75731 3.8341L9.49467 1.68183L9.47858 1.55H9.34577H7.67537H7.5438L7.52665 1.68046L7.24367 3.83374C6.8309 3.94937 6.44547 4.1124 6.08785 4.32305C5.7321 4.5326 5.40406 4.78235 5.10386 5.07204L3.10242 4.23902L2.98014 4.18812L2.9145 4.30315L2.08987 5.74815L2.02419 5.86325L2.13031 5.94262L3.86344 7.23884C3.80732 7.42556 3.76673 7.61272 3.74185 7.80027C3.71269 8.02005 3.69826 8.25336 3.69826 8.5C3.69826 8.73289 3.71274 8.95908 3.74185 9.17848C3.76677 9.3663 3.80743 9.55373 3.86369 9.74071L2.12942 11.0581L2.02468 11.1376L2.08987 11.2518L2.9145 12.6968L2.98071 12.8129L3.10361 12.7605L5.10218 11.9084C5.40215 12.2111 5.73076 12.4678 6.08794 12.6778C6.44572 12.8883 6.8308 13.051 7.24271 13.1661L7.50533 15.3182Z" fill="white" stroke="#0747A6" stroke-width="0.3"/>
</svg>
