<svg width="15" height="16" viewBox="0 0 15 16" fill="none" xmlns="http://www.w3.org/2000/svg">
<path fill-rule="evenodd" clip-rule="evenodd" d="M13.6897 15.0196H2.30273C2.1297 15.0227 1.95782 14.9909 1.79731 14.9262C1.6368 14.8616 1.49096 14.7652 1.36845 14.643C1.24594 14.5208 1.14928 14.3751 1.08421 14.2148C1.01915 14.0544 0.987018 13.8826 0.989729 13.7096V5.82557H14.9997V13.7096C15.0024 13.8824 14.9704 14.0539 14.9055 14.2141C14.8406 14.3742 14.7442 14.5197 14.6221 14.6419C14.4999 14.7641 14.3544 14.8605 14.1942 14.9254C14.0341 14.9902 13.8625 15.0223 13.6897 15.0196ZM5.80573 8.45257C5.80997 8.39374 5.80159 8.33468 5.78115 8.27934C5.7607 8.22401 5.72867 8.17368 5.6872 8.13174C5.64573 8.08979 5.59577 8.05719 5.54067 8.03612C5.48557 8.01505 5.42661 8.006 5.36773 8.00957H4.48973C4.4313 8.00608 4.37279 8.01501 4.31806 8.03578C4.26334 8.05656 4.21364 8.0887 4.17225 8.13009C4.13086 8.17148 4.09871 8.22118 4.07794 8.27591C4.05716 8.33063 4.04823 8.38914 4.05173 8.44757V9.32357C4.04823 9.38201 4.05716 9.44051 4.07794 9.49524C4.09871 9.54997 4.13086 9.59966 4.17225 9.64106C4.21364 9.68245 4.26334 9.71459 4.31806 9.73536C4.37279 9.75614 4.4313 9.76507 4.48973 9.76157H5.36573C5.42416 9.76507 5.48267 9.75614 5.5374 9.73536C5.59212 9.71459 5.64182 9.68245 5.68321 9.64106C5.7246 9.59966 5.75675 9.54997 5.77752 9.49524C5.79829 9.44051 5.80723 9.38201 5.80373 9.32357L5.80573 8.45257ZM5.80573 11.5176C5.80923 11.4591 5.80029 11.4006 5.77952 11.3459C5.75875 11.2912 5.7266 11.2415 5.68521 11.2001C5.64382 11.1587 5.59412 11.1266 5.5394 11.1058C5.48467 11.085 5.42616 11.0761 5.36773 11.0796H4.48973C4.4313 11.0761 4.37279 11.085 4.31806 11.1058C4.26334 11.1266 4.21364 11.1587 4.17225 11.2001C4.13086 11.2415 4.09871 11.2912 4.07794 11.3459C4.05716 11.4006 4.04823 11.4591 4.05173 11.5176V12.3936C4.04823 12.452 4.05716 12.5105 4.07794 12.5652C4.09871 12.62 4.13086 12.6697 4.17225 12.7111C4.21364 12.7524 4.26334 12.7846 4.31806 12.8054C4.37279 12.8261 4.4313 12.8351 4.48973 12.8316H5.36573C5.42416 12.8351 5.48267 12.8261 5.5374 12.8054C5.59212 12.7846 5.64182 12.7524 5.68321 12.7111C5.7246 12.6697 5.75675 12.62 5.77752 12.5652C5.79829 12.5105 5.80723 12.452 5.80373 12.3936L5.80573 11.5176ZM8.87073 8.45257C8.87497 8.39374 8.86659 8.33468 8.84615 8.27934C8.8257 8.22401 8.79367 8.17368 8.7522 8.13174C8.71073 8.08979 8.66077 8.05719 8.60567 8.03612C8.55057 8.01505 8.49161 8.006 8.43273 8.00957H7.55673C7.4983 8.00608 7.43979 8.01501 7.38506 8.03578C7.33034 8.05656 7.28064 8.0887 7.23925 8.13009C7.19786 8.17148 7.16571 8.22118 7.14494 8.27591C7.12416 8.33063 7.11523 8.38914 7.11873 8.44757V9.32357C7.11523 9.38201 7.12416 9.44051 7.14494 9.49524C7.16571 9.54997 7.19786 9.59966 7.23925 9.64106C7.28064 9.68245 7.33034 9.71459 7.38506 9.73536C7.43979 9.75614 7.4983 9.76507 7.55673 9.76157H8.43273C8.49116 9.76507 8.54967 9.75614 8.6044 9.73536C8.65912 9.71459 8.70882 9.68245 8.75021 9.64106C8.7916 9.59966 8.82375 9.54997 8.84452 9.49524C8.86529 9.44051 8.87423 9.38201 8.87073 9.32357V8.45257ZM8.87073 11.5176C8.87423 11.4591 8.86529 11.4006 8.84452 11.3459C8.82375 11.2912 8.7916 11.2415 8.75021 11.2001C8.70882 11.1587 8.65912 11.1266 8.6044 11.1058C8.54967 11.085 8.49116 11.0761 8.43273 11.0796H7.55673C7.4983 11.0761 7.43979 11.085 7.38506 11.1058C7.33034 11.1266 7.28064 11.1587 7.23925 11.2001C7.19786 11.2415 7.16571 11.2912 7.14494 11.3459C7.12416 11.4006 7.11523 11.4591 7.11873 11.5176V12.3936C7.11523 12.452 7.12416 12.5105 7.14494 12.5652C7.16571 12.62 7.19786 12.6697 7.23925 12.7111C7.28064 12.7524 7.33034 12.7846 7.38506 12.8054C7.43979 12.8261 7.4983 12.8351 7.55673 12.8316H8.43273C8.49116 12.8351 8.54967 12.8261 8.6044 12.8054C8.65912 12.7846 8.70882 12.7524 8.75021 12.7111C8.7916 12.6697 8.82375 12.62 8.84452 12.5652C8.86529 12.5105 8.87423 12.452 8.87073 12.3936V11.5176ZM11.9357 8.45257C11.94 8.39365 11.9316 8.3345 11.9111 8.27909C11.8906 8.22368 11.8585 8.1733 11.8169 8.13134C11.7753 8.08938 11.7252 8.0568 11.67 8.0358C11.6148 8.01479 11.5557 8.00585 11.4967 8.00957H10.6217C10.5633 8.00608 10.5048 8.01501 10.4501 8.03578C10.3953 8.05656 10.3456 8.0887 10.3042 8.13009C10.2629 8.17148 10.2307 8.22118 10.2099 8.27591C10.1892 8.33063 10.1802 8.38914 10.1837 8.44757V9.32357C10.1802 9.38201 10.1892 9.44051 10.2099 9.49524C10.2307 9.54997 10.2629 9.59966 10.3042 9.64106C10.3456 9.68245 10.3953 9.71459 10.4501 9.73536C10.5048 9.75614 10.5633 9.76507 10.6217 9.76157H11.4977C11.5562 9.76507 11.6147 9.75614 11.6694 9.73536C11.7241 9.71459 11.7738 9.68245 11.8152 9.64106C11.8566 9.59966 11.8887 9.54997 11.9095 9.49524C11.9303 9.44051 11.9392 9.38201 11.9357 9.32357V8.45257ZM11.9357 11.5176C11.9392 11.4591 11.9303 11.4006 11.9095 11.3459C11.8887 11.2912 11.8566 11.2415 11.8152 11.2001C11.7738 11.1587 11.7241 11.1266 11.6694 11.1058C11.6147 11.085 11.5562 11.0761 11.4977 11.0796H10.6217C10.5633 11.0761 10.5048 11.085 10.4501 11.1058C10.3953 11.1266 10.3456 11.1587 10.3042 11.2001C10.2629 11.2415 10.2307 11.2912 10.2099 11.3459C10.1892 11.4006 10.1802 11.4591 10.1837 11.5176V12.3936C10.1802 12.452 10.1892 12.5105 10.2099 12.5652C10.2307 12.62 10.2629 12.6697 10.3042 12.7111C10.3456 12.7524 10.3953 12.7846 10.4501 12.8054C10.5048 12.8261 10.5633 12.8351 10.6217 12.8316H11.4977C11.5562 12.8351 11.6147 12.8261 11.6694 12.8054C11.7241 12.7846 11.7738 12.7524 11.8152 12.7111C11.8566 12.6697 11.8887 12.62 11.9095 12.5652C11.9303 12.5105 11.9392 12.452 11.9357 12.3936V11.5176ZM0.989729 4.07457C0.986475 3.90121 1.01821 3.72896 1.08303 3.56814C1.14785 3.40731 1.24442 3.2612 1.36699 3.13854C1.48955 3.01589 1.63559 2.9192 1.79636 2.85426C1.95714 2.78931 2.12936 2.75745 2.30273 2.76057H4.05473V1.88557C4.05076 1.76811 4.07047 1.65105 4.11268 1.54136C4.15489 1.43168 4.21874 1.33161 4.30043 1.24711C4.38212 1.16261 4.47998 1.09541 4.58817 1.04952C4.69637 1.00363 4.8127 0.97998 4.93023 0.97998C5.04776 0.97998 5.16409 1.00363 5.27228 1.04952C5.38048 1.09541 5.47834 1.16261 5.56003 1.24711C5.64172 1.33161 5.70557 1.43168 5.74778 1.54136C5.78999 1.65105 5.8097 1.76811 5.80573 1.88557V2.76157H10.1837V1.88557C10.1914 1.6585 10.287 1.44329 10.4504 1.28537C10.6137 1.12744 10.832 1.03917 11.0592 1.03917C11.2864 1.03917 11.5048 1.12744 11.6681 1.28537C11.8315 1.44329 11.9271 1.6585 11.9347 1.88557V2.76157H13.6897C13.8628 2.75886 14.0346 2.791 14.1949 2.85606C14.3553 2.92112 14.5009 3.01778 14.6231 3.14029C14.7454 3.2628 14.8417 3.40865 14.9064 3.56916C14.9711 3.72966 15.0028 3.90155 14.9997 4.07457V4.94957H0.989729V4.07457Z" fill="#33373E"/>
</svg>
