<svg width="16" height="17" viewBox="0 0 16 17" fill="none" xmlns="http://www.w3.org/2000/svg">
<path d="M12.0208 11.5787L14.8762 14.4333L13.9328 15.3767L11.0782 12.5213C10.016 13.3728 8.69483 13.8359 7.3335 13.834C4.0215 13.834 1.3335 11.146 1.3335 7.83398C1.3335 4.52198 4.0215 1.83398 7.3335 1.83398C10.6455 1.83398 13.3335 4.52198 13.3335 7.83398C13.3354 9.19532 12.8723 10.5165 12.0208 11.5787ZM10.6835 11.084C11.5296 10.2139 12.0021 9.0476 12.0002 7.83398C12.0002 5.25532 9.9115 3.16732 7.3335 3.16732C4.75483 3.16732 2.66683 5.25532 2.66683 7.83398C2.66683 10.412 4.75483 12.5007 7.3335 12.5007C8.54712 12.5026 9.71342 12.0301 10.5835 11.184L10.6835 11.084Z" fill="black"/>
</svg>
