<svg width="15" height="16" viewBox="0 0 15 16" fill="none" xmlns="http://www.w3.org/2000/svg">
<g clip-path="url(#clip0_745_29950)">
<path d="M0.25 13.15V6.22832L6.94103 10.8807L6.94843 10.8859L6.95617 10.8904L7.04317 10.9421L7.05008 10.9462L7.05724 10.9498C7.19462 11.0198 7.34609 11.0565 7.5 11.0565C7.65391 11.0565 7.80538 11.0198 7.94276 10.9498L7.94992 10.9462L7.95683 10.9421L8.04383 10.8904L8.05157 10.8859L8.05897 10.8807L14.75 6.22832V13.1534C14.75 13.6914 14.5529 14.2072 14.2016 14.5957C13.8515 14.983 13.3752 15.2144 12.8705 15.2463L12.7463 15.25H2.25C1.74314 15.25 1.25346 15.0482 0.881593 14.6825C0.510233 14.3173 0.284601 13.8162 0.253556 13.2806L0.25 13.15Z" fill="#475768" stroke="#475768" stroke-width="0.5"/>
<path d="M12.857 3.29752H12.8571C13.2153 3.29752 13.6189 3.38075 13.9745 3.54525C14.2547 3.67492 14.4936 3.84945 14.6604 4.0619L7.49856 9.23434L0.333593 4.16119C0.482946 3.9381 0.666624 3.75035 0.874269 3.60709C1.13656 3.42612 1.43003 3.32087 1.7304 3.29714L1.86716 3.29169L12.857 3.29752Z" fill="#475768" stroke="#475768" stroke-width="0.5"/>
</g>
<defs>
<clipPath id="clip0_745_29950">
<rect width="15" height="13" fill="white" transform="translate(0 2.5)"/>
</clipPath>
</defs>
</svg>
