<svg width="13" height="16" viewBox="0 0 13 16" fill="none" xmlns="http://www.w3.org/2000/svg">
<path d="M6.5 8C6.84375 8 7.13812 7.8775 7.38312 7.6325C7.62812 7.3875 7.75042 7.09333 7.75 6.75C7.75 6.40625 7.6275 6.11188 7.3825 5.86688C7.1375 5.62188 6.84333 5.49958 6.5 5.5C6.15625 5.5 5.86187 5.6225 5.61687 5.8675C5.37187 6.1125 5.24958 6.40667 5.25 6.75C5.25 7.09375 5.3725 7.38813 5.6175 7.63313C5.8625 7.87813 6.15667 8.00042 6.5 8ZM6.5 14.25C4.82292 12.8229 3.57042 11.4975 2.7425 10.2738C1.91458 9.05 1.50042 7.91708 1.5 6.875C1.5 5.3125 2.00271 4.06771 3.00812 3.14063C4.01354 2.21354 5.1775 1.75 6.5 1.75C7.82292 1.75 8.98708 2.21354 9.9925 3.14063C10.9979 4.06771 11.5004 5.3125 11.5 6.875C11.5 7.91667 11.0858 9.04958 10.2575 10.2738C9.42917 11.4979 8.17667 12.8233 6.5 14.25Z" fill="#0747A6"/>
</svg>
