<svg width="20" height="20" viewBox="0 0 20 20" fill="none" xmlns="http://www.w3.org/2000/svg">
<path d="M9.95768 15C10.2493 15 10.496 14.8991 10.6977 14.6975C10.8993 14.4958 10.9999 14.2494 10.9993 13.9583C10.9993 13.6666 10.8988 13.42 10.6977 13.2183C10.4966 13.0166 10.2499 12.9161 9.95768 12.9166C9.66602 12.9166 9.41963 13.0175 9.21852 13.2191C9.0174 13.4208 8.91657 13.6672 8.91602 13.9583C8.91602 14.25 9.01685 14.4966 9.21852 14.6983C9.42018 14.9 9.66657 15.0005 9.95768 15ZM9.20768 11.7916H10.7493C10.7493 11.3333 10.8016 10.9722 10.906 10.7083C11.0105 10.4444 11.3055 10.0833 11.791 9.62496C12.1521 9.26385 12.4368 8.91996 12.6452 8.59329C12.8535 8.26663 12.9577 7.8744 12.9577 7.41663C12.9577 6.63885 12.673 6.04163 12.1035 5.62496C11.5341 5.20829 10.8605 4.99996 10.0827 4.99996C9.29102 4.99996 8.64852 5.20829 8.15518 5.62496C7.66185 6.04163 7.31824 6.54163 7.12435 7.12496L8.49935 7.66663C8.56879 7.41663 8.72518 7.14579 8.96851 6.85413C9.21185 6.56246 9.58324 6.41663 10.0827 6.41663C10.5271 6.41663 10.8605 6.53829 11.0827 6.78163C11.3049 7.02496 11.416 7.29218 11.416 7.58329C11.416 7.86107 11.3327 8.12163 11.166 8.36496C10.9993 8.60829 10.791 8.83385 10.541 9.04163C9.9299 9.58329 9.5549 9.99301 9.41602 10.2708C9.27713 10.5486 9.20768 11.0555 9.20768 11.7916ZM9.99935 18.3333C8.84657 18.3333 7.76324 18.1144 6.74935 17.6766C5.73546 17.2388 4.85352 16.6452 4.10352 15.8958C3.35352 15.1458 2.7599 14.2638 2.32268 13.25C1.88546 12.2361 1.66657 11.1527 1.66602 9.99996C1.66602 8.84718 1.8849 7.76385 2.32268 6.74996C2.76046 5.73607 3.35407 4.85413 4.10352 4.10413C4.85352 3.35413 5.73546 2.76051 6.74935 2.32329C7.76324 1.88607 8.84657 1.66718 9.99935 1.66663C11.1521 1.66663 12.2355 1.88551 13.2493 2.32329C14.2632 2.76107 15.1452 3.35468 15.8952 4.10413C16.6452 4.85413 17.2391 5.73607 17.6768 6.74996C18.1146 7.76385 18.3332 8.84718 18.3327 9.99996C18.3327 11.1527 18.1138 12.2361 17.676 13.25C17.2382 14.2638 16.6446 15.1458 15.8952 15.8958C15.1452 16.6458 14.2632 17.2397 13.2493 17.6775C12.2355 18.1152 11.1521 18.3338 9.99935 18.3333Z" fill="#043E95"/>
</svg>
