<svg width="41" height="38" viewBox="0 0 41 38" fill="none" xmlns="http://www.w3.org/2000/svg">
<path fill-rule="evenodd" clip-rule="evenodd" d="M11.515 3.355C14.0137 1.20034 17.2006 0.0103463 20.5 0C27.225 0 32.8075 5 33.415 11.4475C37.395 12.01 40.5 15.3425 40.5 19.4325C40.5 23.9225 36.755 27.5 32.2175 27.5H25.5C25.1685 27.5 24.8505 27.3683 24.6161 27.1339C24.3817 26.8995 24.25 26.5815 24.25 26.25C24.25 25.9185 24.3817 25.6005 24.6161 25.3661C24.8505 25.1317 25.1685 25 25.5 25H32.22C35.4475 25 38 22.47 38 19.4325C38 16.3925 35.45 13.8625 32.2175 13.8625H30.9675V12.6125C30.97 7.0625 26.32 2.5 20.5 2.5C17.7997 2.51079 15.1921 3.48608 13.1475 5.25C11.255 6.88 10.265 8.845 10.265 10.3875V11.5075L9.1525 11.63C5.66 12.0125 3 14.88 3 18.295C3 21.9625 6.075 25 9.9525 25H15.5C15.8315 25 16.1495 25.1317 16.3839 25.3661C16.6183 25.6005 16.75 25.9185 16.75 26.25C16.75 26.5815 16.6183 26.8995 16.3839 27.1339C16.1495 27.3683 15.8315 27.5 15.5 27.5H9.9525C4.77 27.5 0.5 23.415 0.5 18.295C0.5 13.8875 3.665 10.2375 7.855 9.3125C8.2125 7.155 9.6 5.005 11.515 3.355Z" fill="#4772E0"/>
<path fill-rule="evenodd" clip-rule="evenodd" d="M19.6151 10.3672C19.7312 10.2508 19.8692 10.1585 20.021 10.0955C20.1729 10.0324 20.3357 10 20.5001 10C20.6645 10 20.8273 10.0324 20.9792 10.0955C21.1311 10.1585 21.269 10.2508 21.3851 10.3672L28.8851 17.8672C29.1198 18.102 29.2517 18.4203 29.2517 18.7522C29.2517 19.0842 29.1198 19.4025 28.8851 19.6372C28.6504 19.872 28.3321 20.0038 28.0001 20.0038C27.6682 20.0038 27.3498 19.872 27.1151 19.6372L21.7501 14.2697V36.2522C21.7501 36.5838 21.6184 36.9017 21.384 37.1361C21.1496 37.3705 20.8316 37.5022 20.5001 37.5022C20.1686 37.5022 19.8507 37.3705 19.6162 37.1361C19.3818 36.9017 19.2501 36.5838 19.2501 36.2522V14.2697L13.8851 19.6372C13.6504 19.872 13.3321 20.0038 13.0001 20.0038C12.6682 20.0038 12.3498 19.872 12.1151 19.6372C11.8804 19.4025 11.7485 19.0842 11.7485 18.7522C11.7485 18.4203 11.8804 18.102 12.1151 17.8672L19.6151 10.3672Z" fill="#4772E0"/>
</svg>
