<svg width="89" height="90" viewBox="0 0 89 90" fill="none" xmlns="http://www.w3.org/2000/svg">
<g clip-path="url(#clip0_2124_11412)">
<path d="M75.6747 61.1193C71.7022 56.8151 66.8815 53.3803 61.5161 51.0309C56.1508 48.6816 50.3571 47.4688 44.5 47.4688C38.6428 47.4687 32.8491 48.6816 27.4838 51.0309C22.1185 53.3803 17.2977 56.8151 13.3253 61.1193C12.7119 61.7974 12.3689 62.6771 12.3611 63.5915V78.4248C12.3741 79.3997 12.7705 80.3303 13.4646 81.0151C14.1586 81.6999 15.0944 82.0838 16.0694 82.0837H72.9305C73.914 82.0837 74.8573 81.693 75.5527 80.9976C76.2482 80.3021 76.6389 79.3589 76.6389 78.3754V63.542C76.6191 62.6448 76.2769 61.7847 75.6747 61.1193Z" fill="#A1A7AF"/>
<path d="M44.4999 42.5281C54.0575 42.5281 61.8054 34.7801 61.8054 25.2225C61.8054 15.665 54.0575 7.91699 44.4999 7.91699C34.9423 7.91699 27.1943 15.665 27.1943 25.2225C27.1943 34.7801 34.9423 42.5281 44.4999 42.5281Z" fill="#A1A7AF"/>
</g>
<defs>
<clipPath id="clip0_2124_11412">
<rect width="89" height="89" fill="white" transform="translate(0 0.5)"/>
</clipPath>
</defs>
</svg>
