<svg width="15" height="16" viewBox="0 0 15 16" fill="none" xmlns="http://www.w3.org/2000/svg">
<path d="M3.125 14.2361C2.78125 14.2361 2.48688 14.1136 2.24188 13.8686C1.99688 13.6236 1.87458 13.3294 1.875 12.9861V4.23608C1.875 3.89233 1.9975 3.59796 2.2425 3.35296C2.4875 3.10796 2.78167 2.98567 3.125 2.98608H3.75V1.73608H5V2.98608H10V1.73608H11.25V2.98608H11.875C12.2188 2.98608 12.5131 3.10858 12.7581 3.35358C13.0031 3.59858 13.1254 3.89275 13.125 4.23608V12.9861C13.125 13.3298 13.0025 13.6242 12.7575 13.8692C12.5125 14.1142 12.2183 14.2365 11.875 14.2361H3.125ZM3.125 12.9861H11.875V6.73608H3.125V12.9861ZM3.125 5.48608H11.875V4.23608H3.125V5.48608Z" fill="#3D4148"/>
</svg>
