<svg width="18" height="18" viewBox="0 0 18 18" fill="none" xmlns="http://www.w3.org/2000/svg">
<path d="M8.9625 15C9.225 15 9.447 14.9092 9.6285 14.7277C9.81 14.5462 9.9005 14.3245 9.9 14.0625C9.9 13.8 9.8095 13.578 9.6285 13.3965C9.4475 13.215 9.2255 13.1245 8.9625 13.125C8.7 13.125 8.47825 13.2157 8.29725 13.3972C8.11625 13.5787 8.0255 13.8005 8.025 14.0625C8.025 14.325 8.11575 14.547 8.29725 14.7285C8.47875 14.91 8.7005 15.0005 8.9625 15ZM8.2875 12.1125H9.675C9.675 11.7 9.722 11.375 9.816 11.1375C9.91 10.9 10.1755 10.575 10.6125 10.1625C10.9375 9.8375 11.1937 9.528 11.3812 9.234C11.5687 8.94 11.6625 8.587 11.6625 8.175C11.6625 7.475 11.4062 6.9375 10.8937 6.5625C10.3812 6.1875 9.775 6 9.075 6C8.3625 6 7.78425 6.1875 7.34025 6.5625C6.89625 6.9375 6.587 7.3875 6.4125 7.9125L7.65 8.4C7.7125 8.175 7.85325 7.93125 8.07225 7.66875C8.29125 7.40625 8.6255 7.275 9.075 7.275C9.475 7.275 9.775 7.3845 9.975 7.6035C10.175 7.8225 10.275 8.063 10.275 8.325C10.275 8.575 10.2 8.8095 10.05 9.0285C9.9 9.2475 9.7125 9.4505 9.4875 9.6375C8.9375 10.125 8.6 10.4937 8.475 10.7437C8.35 10.9937 8.2875 11.45 8.2875 12.1125ZM9 18C7.9625 18 6.9875 17.803 6.075 17.409C5.1625 17.015 4.36875 16.4807 3.69375 15.8062C3.01875 15.1312 2.4845 14.3375 2.091 13.425C1.6975 12.5125 1.5005 11.5375 1.5 10.5C1.5 9.4625 1.697 8.4875 2.091 7.575C2.485 6.6625 3.01925 5.86875 3.69375 5.19375C4.36875 4.51875 5.1625 3.9845 6.075 3.591C6.9875 3.1975 7.9625 3.0005 9 3C10.0375 3 11.0125 3.197 11.925 3.591C12.8375 3.985 13.6312 4.51925 14.3062 5.19375C14.9812 5.86875 15.5157 6.6625 15.9097 7.575C16.3037 8.4875 16.5005 9.4625 16.5 10.5C16.5 11.5375 16.303 12.5125 15.909 13.425C15.515 14.3375 14.9807 15.1312 14.3062 15.8062C13.6312 16.4812 12.8375 17.0157 11.925 17.4097C11.0125 17.8037 10.0375 18.0005 9 18Z" fill="#4772E0"/>
</svg>
