<svg width="20" height="20" viewBox="0 0 20 20" fill="none" xmlns="http://www.w3.org/2000/svg">
<path d="M16.768 4.62207V6.7627C16.7676 6.8869 16.7181 7.00592 16.6303 7.09375C16.5424 7.18158 16.4234 7.23108 16.2992 7.23145H3.69922C3.57501 7.23108 3.45599 7.18158 3.36816 7.09375C3.28033 7.00592 3.23083 6.8869 3.23047 6.7627V4.62207C3.23083 4.49786 3.28033 4.37884 3.36816 4.29101C3.45599 4.20319 3.57501 4.15368 3.69922 4.15332H16.2992C16.4234 4.15368 16.5424 4.20319 16.6303 4.29101C16.7181 4.37884 16.7676 4.49786 16.768 4.62207ZM16.2992 8.4627H3.69922C3.57501 8.46306 3.45599 8.51256 3.36816 8.60039C3.28033 8.68822 3.23083 8.80724 3.23047 8.93145V11.0689C3.23083 11.1932 3.28033 11.3122 3.36816 11.4C3.45599 11.4878 3.57501 11.5373 3.69922 11.5377H16.2992C16.4234 11.5373 16.5424 11.4878 16.6303 11.4C16.7181 11.3122 16.7676 11.1932 16.768 11.0689V8.93145C16.7676 8.80724 16.7181 8.68822 16.6303 8.60039C16.5424 8.51256 16.4234 8.46306 16.2992 8.4627ZM16.2992 12.7689H3.69922C3.57501 12.7693 3.45599 12.8188 3.36816 12.9066C3.28033 12.9945 3.23083 13.1135 3.23047 13.2377V15.3783C3.23083 15.5025 3.28033 15.6215 3.36816 15.7094C3.45599 15.7972 3.57501 15.8467 3.69922 15.8471H16.2992C16.4234 15.8467 16.5424 15.7972 16.6303 15.7094C16.7181 15.6215 16.7676 15.5025 16.768 15.3783V13.2377C16.7676 13.1135 16.7181 12.9945 16.6303 12.9066C16.5424 12.8188 16.4234 12.7693 16.2992 12.7689Z" fill="#0747A6"/>
</svg>
