<svg width="17" height="7" viewBox="0 0 17 7" fill="none" xmlns="http://www.w3.org/2000/svg">
<path fill-rule="evenodd" clip-rule="evenodd" d="M3.34248 0.0449219H4.0622H8.71641H8.74594H12.6509H13.6511C15.0278 0.0449219 16.1499 1.39182 16.1499 3.03459V3.14499C16.1499 4.79218 15.0241 6.13466 13.6511 6.13466H12.7469H8.74594H8.71641H5.37247H3.34248C1.96578 6.13466 0.84375 4.78776 0.84375 3.14499V3.03459C0.84375 1.3874 1.96947 0.0449219 3.34248 0.0449219ZM8.71641 0.632257V5.64889H8.74594H12.7469H13.4186H13.5736C14.7252 5.64889 15.67 4.5228 15.67 3.14057C15.67 1.76277 14.7289 0.632257 13.5736 0.632257H13.4186H12.6546H8.74963H8.72011H8.71641Z" fill="white"/>
</svg>
