<svg width="14" height="19" viewBox="0 0 14 19" fill="none" xmlns="http://www.w3.org/2000/svg">
<path d="M8.74379 4.16699C8.42168 4.16699 8.16046 4.42816 8.16046 4.75033C8.16046 5.07249 8.42168 5.33366 8.74379 5.33366H10.8443L6.00679 10.1712C5.77899 10.399 5.77899 10.7683 6.00679 10.9961C6.23459 11.2239 6.60395 11.2239 6.83174 10.9961L11.6693 6.15862V8.25909C11.6693 8.58126 11.9304 8.84241 12.2526 8.84241C12.5748 8.84241 12.8359 8.58126 12.8359 8.2591V4.75033C12.8359 4.42816 12.5748 4.16699 12.2526 4.16699H8.74379Z" fill="#043E95"/>
<path d="M2.33073 7.66699C2.33073 7.34483 2.5919 7.08366 2.91406 7.08366H6.60849C6.93066 7.08366 7.19182 6.82249 7.19182 6.50033C7.19182 6.17816 6.93066 5.91699 6.60849 5.91699H2.91406C1.94757 5.91699 1.16406 6.7005 1.16406 7.66699V14.0837C1.16406 15.0502 1.94757 15.8337 2.91406 15.8337H9.33073C10.2973 15.8337 11.0807 15.0502 11.0807 14.0837V10.7364C11.0807 10.4143 10.8196 10.1531 10.4974 10.1531C10.1752 10.1531 9.91406 10.4143 9.91406 10.7364V14.0837C9.91406 14.4058 9.6529 14.667 9.33073 14.667H2.91406C2.5919 14.667 2.33073 14.4058 2.33073 14.0837V7.66699Z" fill="#043E95"/>
</svg>
