<svg width="16" height="14" viewBox="0 0 16 14" fill="none" xmlns="http://www.w3.org/2000/svg">
<path d="M9.86536 2.07524L14.3327 9.5159C14.9747 10.5846 14.6594 11.9906 13.628 12.6559C13.2819 12.88 12.8784 12.9995 12.466 12.9999H3.5307C2.3167 12.9999 1.33203 11.9799 1.33203 10.7206C1.33203 10.2946 1.44736 9.8779 1.66403 9.5159L6.13203 2.07524C6.77336 1.00657 8.12936 0.679239 9.1607 1.34457C9.44603 1.52857 9.68736 1.77857 9.86536 2.07524ZM7.9987 10.3332C8.17551 10.3332 8.34508 10.263 8.4701 10.138C8.59513 10.013 8.66536 9.84338 8.66536 9.66657C8.66536 9.48976 8.59513 9.32019 8.4701 9.19517C8.34508 9.07014 8.17551 8.9999 7.9987 8.9999C7.82189 8.9999 7.65232 9.07014 7.52729 9.19517C7.40227 9.32019 7.33203 9.48976 7.33203 9.66657C7.33203 9.84338 7.40227 10.013 7.52729 10.138C7.65232 10.263 7.82189 10.3332 7.9987 10.3332ZM7.9987 4.33324C7.82189 4.33324 7.65232 4.40348 7.52729 4.5285C7.40227 4.65353 7.33203 4.82309 7.33203 4.99991V7.66657C7.33203 7.84338 7.40227 8.01295 7.52729 8.13798C7.65232 8.263 7.82189 8.33324 7.9987 8.33324C8.17551 8.33324 8.34508 8.263 8.4701 8.13798C8.59513 8.01295 8.66536 7.84338 8.66536 7.66657V4.99991C8.66536 4.82309 8.59513 4.65353 8.4701 4.5285C8.34508 4.40348 8.17551 4.33324 7.9987 4.33324Z" fill="#FD6E61"/>
</svg>
