<svg width="18" height="16" viewBox="0 0 18 16" fill="none" xmlns="http://www.w3.org/2000/svg">
<path d="M7.82653 1.12109L0.16443 13.7461C-0.32013 14.5352 0.324508 15.5 1.33689 15.5H16.6654C17.6735 15.5 18.3181 14.5352 17.8379 13.7461L10.1715 1.12109C9.66526 0.292969 8.33272 0.292969 7.82653 1.12109ZM9.76045 6.35938L9.60469 11.125H8.39329L8.23754 6.35938H9.76045ZM8.99899 13.7188C8.53607 13.7188 8.17265 13.4023 8.17265 13C8.17265 12.5977 8.53607 12.2812 8.99899 12.2812C9.46192 12.2812 9.82534 12.5977 9.82534 13C9.82534 13.4023 9.46192 13.7188 8.99899 13.7188Z" fill="#EE9937"/>
</svg>
