<svg width="20" height="21" viewBox="0 0 20 21" fill="none" xmlns="http://www.w3.org/2000/svg">
<g id="material-symbols:add-box-rounded">
<path id="Vector" d="M10 14.6667C10.2361 14.6667 10.4342 14.5867 10.5942 14.4267C10.7542 14.2667 10.8339 14.0689 10.8333 13.8333V11.3333H13.3333C13.5694 11.3333 13.7675 11.2533 13.9275 11.0933C14.0875 10.9333 14.1672 10.7356 14.1667 10.5C14.1667 10.2639 14.0867 10.0658 13.9267 9.90583C13.7667 9.74583 13.5689 9.66611 13.3333 9.66667H10.8333V7.16667C10.8333 6.93056 10.7533 6.7325 10.5933 6.5725C10.4333 6.4125 10.2356 6.33278 10 6.33333C9.76389 6.33333 9.56583 6.41333 9.40583 6.57333C9.24583 6.73334 9.16611 6.93111 9.16667 7.16667V9.66667H6.66667C6.43056 9.66667 6.2325 9.74667 6.0725 9.90667C5.9125 10.0667 5.83278 10.2644 5.83333 10.5C5.83333 10.7361 5.91333 10.9342 6.07333 11.0942C6.23334 11.2542 6.43111 11.3339 6.66667 11.3333H9.16667V13.8333C9.16667 14.0694 9.24667 14.2675 9.40667 14.4275C9.56667 14.5875 9.76445 14.6672 10 14.6667ZM4.16667 18C3.70833 18 3.31583 17.8367 2.98917 17.51C2.6625 17.1833 2.49945 16.7911 2.5 16.3333V4.66667C2.5 4.20833 2.66333 3.81583 2.99 3.48917C3.31667 3.1625 3.70889 2.99945 4.16667 3H15.8333C16.2917 3 16.6842 3.16333 17.0108 3.49C17.3375 3.81667 17.5006 4.20889 17.5 4.66667V16.3333C17.5 16.7917 17.3367 17.1842 17.01 17.5108C16.6833 17.8375 16.2911 18.0006 15.8333 18H4.16667Z" fill="#4772E0"/>
</g>
</svg>
