<svg width="10" height="11" viewBox="0 0 10 11" fill="none" xmlns="http://www.w3.org/2000/svg">
<path d="M3.45824 1.70866L6.96866 5.20866C7.01033 5.25033 7.03991 5.29546 7.05741 5.34407C7.07491 5.39269 7.08352 5.44477 7.08325 5.50032C7.08325 5.55588 7.0745 5.60796 7.057 5.65657C7.0395 5.70519 7.01005 5.75032 6.96866 5.79199L3.45824 9.30241C3.36102 9.39963 3.23949 9.44824 3.09366 9.44824C2.94783 9.44824 2.82283 9.39616 2.71866 9.29199C2.61449 9.18783 2.56241 9.0663 2.56241 8.92741C2.56241 8.78852 2.61449 8.66699 2.71866 8.56283L5.78116 5.50032L2.71866 2.43782C2.62144 2.3406 2.57283 2.22074 2.57283 2.07824C2.57283 1.93574 2.62491 1.81255 2.72908 1.70866C2.83324 1.60449 2.95477 1.55241 3.09366 1.55241C3.23255 1.55241 3.35408 1.60449 3.45824 1.70866Z" fill="#545B64"/>
</svg>
