<svg width="21" height="20" viewBox="0 0 21 20" fill="none" xmlns="http://www.w3.org/2000/svg">
<path d="M9.02933 1.29362L0.1897 17.4256C-0.369328 18.4338 0.374379 19.6667 1.54235 19.6667H19.2266C20.3896 19.6667 21.1333 18.4338 20.5792 17.4256L11.7346 1.29362C11.1506 0.23546 9.61331 0.23546 9.02933 1.29362ZM11.2604 7.98698L11.0808 14.0764H9.68319L9.5035 7.98698H11.2604ZM10.382 17.3906C9.8479 17.3906 9.42863 16.9863 9.42863 16.4722C9.42863 15.9581 9.8479 15.5538 10.382 15.5538C10.916 15.5538 11.3353 15.9581 11.3353 16.4722C11.3353 16.9863 10.916 17.3906 10.382 17.3906Z" fill="#FD6E61"/>
</svg>
