<svg width="16" height="14" viewBox="0 0 16 14" fill="none" xmlns="http://www.w3.org/2000/svg">
<g clip-path="url(#clip0_427_20902)">
<path fill-rule="evenodd" clip-rule="evenodd" d="M3.11673 4H3.82206H8.38318H8.41212H12.239H13.2192C14.5684 4 15.668 5.32705 15.668 6.94561V7.05439C15.668 8.6773 14.5648 10 13.2192 10H12.333H8.41212H8.38318H5.10612H3.11673C1.76756 10 0.667969 8.67295 0.667969 7.05439V6.94561C0.667969 5.3227 1.77118 4 3.11673 4ZM8.38318 4.57868V9.52139H8.41212H12.333H12.9913H13.1433C14.2718 9.52139 15.1978 8.41189 15.1978 7.05004C15.1978 5.69253 14.2754 4.57868 13.1433 4.57868H12.9913H12.2426H8.41574H8.3868H8.38318Z" fill="#86CC4B"/>
</g>
<defs>
<clipPath id="clip0_427_20902">
<rect width="15" height="14" fill="white" transform="translate(0.667969)"/>
</clipPath>
</defs>
</svg>
