<svg width="18" height="18" viewBox="0 0 18 18" fill="none" xmlns="http://www.w3.org/2000/svg">
<path id="Vector" d="M9 0C4.03745 0 0 4.03745 0 9C0 13.9625 4.03745 18 9 18C13.9625 18 18 13.9625 18 9C18 4.03745 13.9625 0 9 0ZM11.0851 5.25375L12.1279 6.165L8.94288 9.80394L7.9001 8.80615L11.0851 5.25375ZM6.22774 12.7484L3.17466 9.69231L4.15385 8.71313L7.20736 11.7692L6.22774 12.7484ZM9.04024 12.7826L5.95168 9.69231L6.9313 8.71356L8.97188 10.7563L13.7804 5.25375L14.8232 6.165L9.04024 12.7826Z" fill="#0A6D0A"/>
</svg>
