<svg width="16" height="20" viewBox="0 0 16 20" fill="none" xmlns="http://www.w3.org/2000/svg">
<path d="M8 18C10.1217 18 12.1566 17.1571 13.6569 15.6569C15.1571 14.1566 16 12.1217 16 10C16 7.87827 15.1571 5.84344 13.6569 4.34315C12.1566 2.84285 10.1217 2 8 2C5.87827 2 3.84344 2.84285 2.34315 4.34315C0.842855 5.84344 0 7.87827 0 10C0 12.1217 0.842855 14.1566 2.34315 15.6569C3.84344 17.1571 5.87827 18 8 18ZM8.93 8.588L7.93 13.293C7.86 13.633 7.959 13.826 8.234 13.826C8.428 13.826 8.721 13.756 8.92 13.58L8.832 13.996C8.545 14.342 7.912 14.594 7.367 14.594C6.664 14.594 6.365 14.172 6.559 13.275L7.297 9.807C7.361 9.514 7.303 9.408 7.01 9.337L6.559 9.256L6.641 8.875L8.93 8.588ZM8 7.5C7.73478 7.5 7.48043 7.39464 7.29289 7.20711C7.10536 7.01957 7 6.76522 7 6.5C7 6.23478 7.10536 5.98043 7.29289 5.79289C7.48043 5.60536 7.73478 5.5 8 5.5C8.26522 5.5 8.51957 5.60536 8.70711 5.79289C8.89464 5.98043 9 6.23478 9 6.5C9 6.76522 8.89464 7.01957 8.70711 7.20711C8.51957 7.39464 8.26522 7.5 8 7.5Z" fill="#A1A7AF"/>
</svg>
