<svg width="32" height="32" viewBox="0 0 32 32" fill="none" xmlns="http://www.w3.org/2000/svg">
<rect x="0.5" y="0.5" width="31" height="31" rx="14.5" fill="#F4F5F6"/>
<path d="M11 21.625C10.6563 21.625 10.3619 21.5025 10.1169 21.2575C9.87188 21.0125 9.74958 20.7183 9.75 20.375V12.875C9.75 12.5312 9.8725 12.2369 10.1175 11.9919C10.3625 11.7469 10.6567 11.6246 11 11.625H12.9688L14.125 10.375H17.875V11.625H14.6719L13.5313 12.875H11V20.375H21V13.5H22.25V20.375C22.25 20.7188 22.1275 21.0131 21.8825 21.2581C21.6375 21.5031 21.3433 21.6254 21 21.625H11ZM21.4063 12.875C21.4063 12.0625 21.125 11.375 20.5625 10.8125C20 10.25 19.3125 9.96875 18.5 9.96875V9.125C19.5417 9.125 20.4271 9.48958 21.1563 10.2188C21.8854 10.9479 22.25 11.8333 22.25 12.875H21.4063ZM19.75 12.875C19.75 12.5312 19.6275 12.2369 19.3825 11.9919C19.1375 11.7469 18.8433 11.6246 18.5 11.625V10.7812C19.0729 10.7812 19.5598 10.9844 19.9606 11.3906C20.3615 11.7969 20.5725 12.2917 20.5938 12.875H19.75ZM16 19.4375C16.7813 19.4375 17.4454 19.164 17.9925 18.6169C18.5396 18.0698 18.8129 17.4058 18.8125 16.625C18.8125 15.8438 18.539 15.1796 17.9919 14.6325C17.4448 14.0854 16.7808 13.8121 16 13.8125C15.2188 13.8125 14.5546 14.086 14.0075 14.6331C13.4604 15.1802 13.1871 15.8442 13.1875 16.625C13.1875 17.4062 13.461 18.0704 14.0081 18.6175C14.5552 19.1646 15.2192 19.4379 16 19.4375ZM16 18.1875C15.5625 18.1875 15.1927 18.0365 14.8906 17.7344C14.5885 17.4323 14.4375 17.0625 14.4375 16.625C14.4375 16.1875 14.5885 15.8177 14.8906 15.5156C15.1927 15.2135 15.5625 15.0625 16 15.0625C16.4375 15.0625 16.8073 15.2135 17.1094 15.5156C17.4115 15.8177 17.5625 16.1875 17.5625 16.625C17.5625 17.0625 17.4115 17.4323 17.1094 17.7344C16.8073 18.0365 16.4375 18.1875 16 18.1875Z" fill="#0A316B"/>
<rect x="0.5" y="0.5" width="31" height="31" rx="14.5" stroke="#EFEFEF"/>
</svg>
