<svg width="13" height="13" viewBox="0 0 13 13" fill="none" xmlns="http://www.w3.org/2000/svg">
<path d="M8.24995 6.5L11.6376 9.88762C12.1208 10.3709 12.1208 11.1543 11.6376 11.6376C11.1543 12.1208 10.3709 12.1208 9.88762 11.6376L6.5 8.24995L3.11238 11.6376C2.62914 12.1208 1.84567 12.1208 1.36243 11.6376C0.87919 11.1543 0.87919 10.3709 1.36243 9.88762L4.75005 6.5L1.36243 3.11238C0.87919 2.62914 0.87919 1.84567 1.36243 1.36243C1.60405 1.12084 1.92072 1 2.23739 1C2.55406 1 2.87076 1.12081 3.11235 1.36243L6.5 4.75005L9.88762 1.36243C10.1292 1.12084 10.4459 1 10.7626 1C11.0793 1 11.3959 1.12081 11.6375 1.36243C12.1208 1.84567 12.1208 2.62914 11.6375 3.11238L8.24995 6.5Z" fill="#212121" stroke="#F5F3FF" stroke-width="1.5"/>
</svg>
