<svg width="16" height="17" viewBox="0 0 16 17" fill="none" xmlns="http://www.w3.org/2000/svg">
<circle cx="8" cy="8.5" r="7.75" fill="#EFEFEF" stroke="#D9D9D9" stroke-width="0.5"/>
<path d="M10.1429 7.35742H5.57143C5.25584 7.35742 5 7.61326 5 7.92885V11.3574C5 11.673 5.25584 11.9289 5.57143 11.9289H10.1429C10.4584 11.9289 10.7143 11.673 10.7143 11.3574V7.92885C10.7143 7.61326 10.4584 7.35742 10.1429 7.35742Z" stroke="#545B64" stroke-linecap="round" stroke-linejoin="round"/>
<path d="M9.85938 7.35714V6.5C9.85938 5.96957 9.64866 5.46086 9.27359 5.08579C8.89852 4.71071 8.38981 4.5 7.85938 4.5C7.32894 4.5 6.82023 4.71071 6.44516 5.08579C6.07009 5.46086 5.85938 5.96957 5.85938 6.5V7.35714" stroke="#545B64" stroke-linecap="round" stroke-linejoin="round"/>
<path d="M7.85603 9.92885C8.01382 9.92885 8.14174 9.80093 8.14174 9.64314C8.14174 9.48534 8.01382 9.35742 7.85603 9.35742C7.69823 9.35742 7.57031 9.48534 7.57031 9.64314C7.57031 9.80093 7.69823 9.92885 7.85603 9.92885Z" stroke="#545B64" stroke-linecap="round" stroke-linejoin="round"/>
</svg>
