<svg width="32" height="32" viewBox="0 0 32 32" fill="none" xmlns="http://www.w3.org/2000/svg">
<rect width="32" height="32" rx="4" fill="#F4F5F6"/>
<path d="M12.875 21.625C12.5312 21.625 12.2371 21.5027 11.9925 21.2581C11.7475 21.0131 11.625 20.7188 11.625 20.375V12.25H11V11H14.125V10.375H17.875V11H21V12.25H20.375V20.375C20.375 20.7188 20.2527 21.0131 20.0081 21.2581C19.7631 21.5027 19.4688 21.625 19.125 21.625H12.875ZM19.125 12.25H12.875V20.375H19.125V12.25ZM14.125 19.125H15.375V13.5H14.125V19.125ZM16.625 19.125H17.875V13.5H16.625V19.125Z" fill="#FD6E61"/>
</svg>
