<svg width="16" height="14" viewBox="0 0 16 14" fill="none" xmlns="http://www.w3.org/2000/svg">
<path d="M10.3333 4H13.6667C13.8435 4 14.013 4.07024 14.1381 4.19526C14.2631 4.32029 14.3333 4.48986 14.3333 4.66667V9.33333C14.3333 9.51014 14.2631 9.67971 14.1381 9.80474C14.013 9.92976 13.8435 10 13.6667 10H10.3333M5.33333 4H1.66667C1.48986 4 1.32029 4.07024 1.19526 4.19526C1.07024 4.32029 1 4.48986 1 4.66667V9.33333C1 9.51014 1.07024 9.67971 1.19526 9.80474C1.32029 9.92976 1.48986 10 1.66667 10H5.33333M7.66667 1V13M3.66667 7H5M10.3333 7H11.6667" stroke="#A1A7AF" stroke-width="1.33333" stroke-linecap="round" stroke-linejoin="round"/>
</svg>
