<svg width="16" height="17" viewBox="0 0 16 17" fill="none" xmlns="http://www.w3.org/2000/svg">
<path d="M12.4102 14.7125H12.4103C12.9389 14.712 13.4456 14.5018 13.8194 14.128C14.1932 13.7542 14.4034 13.2475 14.4039 12.7189V12.7188V3.84375V3.8436C14.4034 3.31503 14.1932 2.80826 13.8194 2.4345C13.4456 2.06075 12.9389 1.85054 12.4103 1.85H12.4102L9.40609 1.85L9.40594 1.85C8.87737 1.85054 8.3706 2.06075 7.99685 2.4345C7.62309 2.80826 7.41288 3.31503 7.41234 3.8436V3.84375C7.41234 4.04432 7.33267 4.23668 7.19084 4.3785C7.04902 4.52032 6.85666 4.6 6.65609 4.6H3.53516L3.53498 4.6C3.00644 4.60063 2.49973 4.81086 2.126 5.1846C1.75227 5.55833 1.54203 6.06504 1.54141 6.59357V6.59375L1.54141 12.7188L1.54141 12.7189C1.54203 13.2475 1.75227 13.7542 2.126 14.1279C2.49973 14.5016 3.00644 14.7119 3.53498 14.7125H3.53516H12.4102ZM8.64984 3.84393V3.84375C8.64984 3.64318 8.72952 3.45082 8.87134 3.309C9.01317 3.16718 9.20552 3.0875 9.40609 3.0875H12.4102C12.6107 3.0875 12.8031 3.16718 12.9449 3.309C13.0867 3.45082 13.1664 3.64318 13.1664 3.84375V12.7188C13.1664 12.9193 13.0867 13.1117 12.9449 13.2535C12.8031 13.3953 12.6107 13.475 12.4102 13.475H3.53516C3.33459 13.475 3.14223 13.3953 3.00041 13.2535C2.85858 13.1117 2.77891 12.9193 2.77891 12.7188V6.59375C2.77891 6.39318 2.85858 6.20082 3.00041 6.059C3.14223 5.91718 3.33459 5.8375 3.53516 5.8375H6.65609L6.65627 5.8375C7.18481 5.83687 7.69152 5.62664 8.06525 5.2529C8.43898 4.87917 8.64922 4.37246 8.64984 3.84393Z" fill="#3D4148" stroke="#3D4148" stroke-width="0.3"/>
</svg>
