<svg width="11" height="11" viewBox="0 0 11 11" fill="none" xmlns="http://www.w3.org/2000/svg">
<g id="material-symbols:edit">
<path id="Vector" d="M5.49979 7.59999C5.41726 7.59997 5.33687 7.58675 5.25906 7.56033C5.18213 7.53421 5.11434 7.49806 5.05835 7.45006C5.0583 7.45002 5.05825 7.44998 5.0582 7.44993L2.58317 5.34332C2.46215 5.24032 2.4 5.10559 2.4 4.94656C2.4 4.78754 2.46215 4.65281 2.58317 4.5498C2.70301 4.4478 2.85286 4.4 3.02466 4.4C3.19646 4.4 3.34632 4.4478 3.46616 4.5498L5.5 6.28089L7.53384 4.5498C7.65368 4.4478 7.80354 4.4 7.97534 4.4C8.14714 4.4 8.29699 4.4478 8.41683 4.5498C8.53785 4.65281 8.6 4.78754 8.6 4.94656C8.6 5.10559 8.53785 5.24032 8.41683 5.34332L5.9415 7.45019C5.8781 7.50415 5.80788 7.54368 5.73109 7.56721C5.6579 7.58964 5.5806 7.60032 5.49979 7.59999ZM5.49979 7.59999C5.49972 7.59999 5.49965 7.59999 5.49957 7.59999L5.5 7.49999V7.59999C5.49993 7.59999 5.49986 7.59999 5.49979 7.59999Z" fill="#043E95" stroke="#043E95" stroke-width="0.2"/>
</g>
</svg>
