<svg width="12" height="13" viewBox="0 0 12 13" fill="none" xmlns="http://www.w3.org/2000/svg">
<g clip-path="url(#clip0_4082_67643)">
<path d="M6 9.5C6.17 9.5 6.3126 9.4424 6.4278 9.3272C6.543 9.212 6.6004 9.0696 6.6 8.9V6.5C6.6 6.33 6.5424 6.1874 6.4272 6.0722C6.312 5.957 6.1696 5.8996 6 5.9C5.83 5.9 5.6874 5.9576 5.5722 6.0728C5.457 6.188 5.3996 6.3304 5.4 6.5V8.9C5.4 9.07 5.4576 9.2126 5.5728 9.3278C5.688 9.443 5.8304 9.5004 6 9.5ZM6 4.7C6.17 4.7 6.3126 4.6424 6.4278 4.5272C6.543 4.412 6.6004 4.2696 6.6 4.1C6.6 3.93 6.5424 3.7874 6.4272 3.6722C6.312 3.557 6.1696 3.4996 6 3.5C5.83 3.5 5.6874 3.5576 5.5722 3.6728C5.457 3.788 5.3996 3.9304 5.4 4.1C5.4 4.27 5.4576 4.4126 5.5728 4.5278C5.688 4.643 5.8304 4.7004 6 4.7ZM6 12.5C5.17 12.5 4.39 12.3424 3.66 12.0272C2.93 11.712 2.295 11.2846 1.755 10.745C1.215 10.205 0.7876 9.57 0.4728 8.84C0.158 8.11 0.0004 7.33 0 6.5C0 5.67 0.1576 4.89 0.4728 4.16C0.788 3.43 1.2154 2.795 1.755 2.255C2.295 1.715 2.93 1.2876 3.66 0.9728C4.39 0.658 5.17 0.5004 6 0.5C6.83 0.5 7.61 0.6576 8.34 0.9728C9.07 1.288 9.705 1.7154 10.245 2.255C10.785 2.795 11.2126 3.43 11.5278 4.16C11.843 4.89 12.0004 5.67 12 6.5C12 7.33 11.8424 8.11 11.5272 8.84C11.212 9.57 10.7846 10.205 10.245 10.745C9.705 11.285 9.07 11.7126 8.34 12.0278C7.61 12.343 6.83 12.5004 6 12.5Z" fill="#043E95"/>
</g>
<defs>
<clipPath id="clip0_4082_67643">
<rect width="12" height="12" fill="white" transform="translate(0 0.5)"/>
</clipPath>
</defs>
</svg>
