<svg width="18" height="18" viewBox="0 0 18 18" fill="none" xmlns="http://www.w3.org/2000/svg">
<g id="Filter">
<path id="Vector" d="M8.25 13.5C8.0375 13.5 7.85925 13.428 7.71525 13.284C7.57125 13.14 7.4995 12.962 7.5 12.75C7.5 12.5375 7.572 12.3593 7.716 12.2153C7.86 12.0713 8.038 11.9995 8.25 12H9.75C9.9625 12 10.1408 12.072 10.2848 12.216C10.4288 12.36 10.5005 12.538 10.5 12.75C10.5 12.9625 10.428 13.1408 10.284 13.2848C10.14 13.4288 9.962 13.5005 9.75 13.5H8.25ZM3 6C2.7875 6 2.60925 5.928 2.46525 5.784C2.32125 5.64 2.2495 5.462 2.25 5.25C2.25 5.0375 2.322 4.85925 2.466 4.71525C2.61 4.57125 2.788 4.4995 3 4.5H15C15.2125 4.5 15.3908 4.572 15.5348 4.716C15.6788 4.86 15.7505 5.038 15.75 5.25C15.75 5.4625 15.678 5.64075 15.534 5.78475C15.39 5.92875 15.212 6.0005 15 6H3ZM5.25 9.75C5.0375 9.75 4.85925 9.678 4.71525 9.534C4.57125 9.39 4.4995 9.212 4.5 9C4.5 8.7875 4.572 8.60925 4.716 8.46525C4.86 8.32125 5.038 8.2495 5.25 8.25H12.75C12.9625 8.25 13.1408 8.322 13.2848 8.466C13.4288 8.61 13.5005 8.788 13.5 9C13.5 9.2125 13.428 9.39075 13.284 9.53475C13.14 9.67875 12.962 9.7505 12.75 9.75H5.25Z" fill="#2C2F34" stroke="#2C2F34" stroke-width="0.25"/>
</g>
</svg>
