<svg width="20" height="20" viewBox="0 0 20 20" fill="none" xmlns="http://www.w3.org/2000/svg">
<path d="M8.83854 11.5003L7.04687 9.70866C6.8941 9.55588 6.69965 9.47949 6.46354 9.47949C6.22743 9.47949 6.03299 9.55588 5.88021 9.70866C5.72743 9.86144 5.65104 10.0559 5.65104 10.292C5.65104 10.5281 5.72743 10.7225 5.88021 10.8753L8.25521 13.2503C8.42187 13.417 8.61632 13.5003 8.83854 13.5003C9.06076 13.5003 9.25521 13.417 9.42188 13.2503L14.1302 8.54199C14.283 8.38921 14.3594 8.19477 14.3594 7.95866C14.3594 7.72255 14.283 7.5281 14.1302 7.37533C13.9774 7.22255 13.783 7.14616 13.5469 7.14616C13.3108 7.14616 13.1163 7.22255 12.9635 7.37533L8.83854 11.5003ZM10.0052 18.3337C8.85243 18.3337 7.7691 18.1148 6.75521 17.677C5.74132 17.2392 4.85938 16.6456 4.10938 15.8962C3.35938 15.1462 2.76576 14.2642 2.32854 13.2503C1.89132 12.2364 1.67243 11.1531 1.67188 10.0003C1.67188 8.84755 1.89076 7.76421 2.32854 6.75033C2.76632 5.73644 3.35993 4.85449 4.10938 4.10449C4.85938 3.35449 5.74132 2.76088 6.75521 2.32366C7.7691 1.88644 8.85243 1.66755 10.0052 1.66699C11.158 1.66699 12.2413 1.88588 13.2552 2.32366C14.2691 2.76144 15.151 3.35505 15.901 4.10449C16.651 4.85449 17.2449 5.73644 17.6827 6.75033C18.1205 7.76421 18.3391 8.84755 18.3385 10.0003C18.3385 11.1531 18.1197 12.2364 17.6819 13.2503C17.2441 14.2642 16.6505 15.1462 15.901 15.8962C15.151 16.6462 14.2691 17.24 13.2552 17.6778C12.2413 18.1156 11.158 18.3342 10.0052 18.3337Z" fill="#0A6D0A"/>
</svg>
