<svg width="15" height="16" viewBox="0 0 15 16" fill="none" xmlns="http://www.w3.org/2000/svg">
<g clip-path="url(#clip0_876_34962)">
<path d="M7.4625 12.5C7.725 12.5 7.947 12.4092 8.1285 12.2277C8.31 12.0462 8.4005 11.8245 8.4 11.5625C8.4 11.3 8.3095 11.078 8.1285 10.8965C7.9475 10.715 7.7255 10.6245 7.4625 10.625C7.2 10.625 6.97825 10.7157 6.79725 10.8972C6.61625 11.0787 6.5255 11.3005 6.525 11.5625C6.525 11.825 6.61575 12.047 6.79725 12.2285C6.97875 12.41 7.2005 12.5005 7.4625 12.5ZM6.7875 9.6125H8.175C8.175 9.2 8.222 8.875 8.316 8.6375C8.41 8.4 8.6755 8.075 9.1125 7.6625C9.4375 7.3375 9.69375 7.028 9.88125 6.734C10.0687 6.44 10.1625 6.087 10.1625 5.675C10.1625 4.975 9.90625 4.4375 9.39375 4.0625C8.88125 3.6875 8.275 3.5 7.575 3.5C6.8625 3.5 6.28425 3.6875 5.84025 4.0625C5.39625 4.4375 5.087 4.8875 4.9125 5.4125L6.15 5.9C6.2125 5.675 6.35325 5.43125 6.57225 5.16875C6.79125 4.90625 7.1255 4.775 7.575 4.775C7.975 4.775 8.275 4.8845 8.475 5.1035C8.675 5.3225 8.775 5.563 8.775 5.825C8.775 6.075 8.7 6.3095 8.55 6.5285C8.4 6.7475 8.2125 6.9505 7.9875 7.1375C7.4375 7.625 7.1 7.99375 6.975 8.24375C6.85 8.49375 6.7875 8.95 6.7875 9.6125ZM7.5 15.5C6.4625 15.5 5.4875 15.303 4.575 14.909C3.6625 14.515 2.86875 13.9807 2.19375 13.3062C1.51875 12.6312 0.9845 11.8375 0.591 10.925C0.1975 10.0125 0.0005 9.0375 0 8C0 6.9625 0.197 5.9875 0.591 5.075C0.985 4.1625 1.51925 3.36875 2.19375 2.69375C2.86875 2.01875 3.6625 1.4845 4.575 1.091C5.4875 0.6975 6.4625 0.5005 7.5 0.5C8.5375 0.5 9.5125 0.697 10.425 1.091C11.3375 1.485 12.1312 2.01925 12.8062 2.69375C13.4812 3.36875 14.0157 4.1625 14.4097 5.075C14.8037 5.9875 15.0005 6.9625 15 8C15 9.0375 14.803 10.0125 14.409 10.925C14.015 11.8375 13.4807 12.6312 12.8062 13.3062C12.1312 13.9812 11.3375 14.5157 10.425 14.9097C9.5125 15.3037 8.5375 15.5005 7.5 15.5Z" fill="#4772E0"/>
</g>
<defs>
<clipPath id="clip0_876_34962">
<rect y="0.5" width="15" height="15" fill="white"/>
</clipPath>
</defs>
</svg>
