<svg width="16" height="17" viewBox="0 0 16 17" fill="none" xmlns="http://www.w3.org/2000/svg">
<g clip-path="url(#clip0_1020_42832)">
<path d="M3.92857 6.99414H5.78571V9.43164H6.71429V4.55664C6.71429 4.10977 6.29643 3.74414 5.78571 3.74414H3.92857C3.41786 3.74414 3 4.10977 3 4.55664V9.43164H3.92857V6.99414ZM3.92857 4.55664H5.78571V6.18164H3.92857V4.55664ZM16 4.55664V3.74414H13.2143C12.7036 3.74414 12.2857 4.10977 12.2857 4.55664V8.61914C12.2857 9.06602 12.7036 9.43164 13.2143 9.43164H16V8.61914H13.2143V4.55664H16ZM11.3571 5.77539V4.55664C11.3571 4.10977 10.9393 3.74414 10.4286 3.74414H7.64286V9.43164H10.4286C10.9393 9.43164 11.3571 9.06602 11.3571 8.61914V7.40039C11.3571 6.95352 11.2299 6.58789 10.7183 6.58789C11.229 6.58789 11.3571 6.22227 11.3571 5.77539ZM10.4286 8.61914H8.57143V6.99414H10.4286V8.61914ZM10.4286 6.18164H8.57143V4.55664H10.4286V6.18164ZM14.1429 11.0566L8.10714 16.7441L4.85714 13.0879L6.04664 12.199L8.10714 14.0783L13.2143 10.2441L14.1429 11.0566Z" fill="#043E95"/>
</g>
<defs>
<clipPath id="clip0_1020_42832">
<rect width="16" height="16" fill="white" transform="translate(0 0.5)"/>
</clipPath>
</defs>
</svg>
