<svg width="18" height="18" viewBox="0 0 18 18" fill="none" xmlns="http://www.w3.org/2000/svg">
<path id="Vector" d="M9 0C7.21997 0 5.47991 0.527841 3.99987 1.51677C2.51983 2.50571 1.36628 3.91131 0.685088 5.55585C0.00389957 7.20038 -0.17433 9.00998 0.172936 10.7558C0.520203 12.5016 1.37737 14.1053 2.63604 15.364C3.89471 16.6226 5.49836 17.4798 7.24419 17.8271C8.99002 18.1743 10.7996 17.9961 12.4442 17.3149C14.0887 16.6337 15.4943 15.4802 16.4832 14.0001C17.4722 12.5201 18 10.78 18 9C17.9973 6.61389 17.0482 4.32628 15.361 2.63905C13.6737 0.951808 11.3861 0.00272232 9 0ZM9 16.7143C6.95405 16.7143 4.99189 15.9015 3.54518 14.4548C2.09847 13.0081 1.28572 11.046 1.28572 9C1.28572 6.95404 2.09847 4.99188 3.54518 3.54518C4.99189 2.09847 6.95405 1.28571 9 1.28571V9L14.4521 14.4521C13.7371 15.1696 12.8874 15.7389 11.9517 16.1271C11.0161 16.5153 10.013 16.7149 9 16.7143Z" fill="#4772E0"/>
</svg>
