<svg width="13" height="14" viewBox="0 0 13 14" fill="none" xmlns="http://www.w3.org/2000/svg">
<g clip-path="url(#clip0_1084_52947)">
<path d="M6.5 13.5C10.0899 13.5 13 10.5899 13 7C13 3.4101 10.0899 0.5 6.5 0.5C2.9101 0.5 0 3.4101 0 7C0 10.5899 2.9101 13.5 6.5 13.5ZM5.95833 10.3854V5.76446H7.04167V10.3854H5.95833ZM6.5 3.61458C6.79954 3.61458 7.04167 3.85725 7.04167 4.15625C7.04167 4.45525 6.79927 4.69792 6.5 4.69792C6.20127 4.69792 5.95833 4.45525 5.95833 4.15625C5.95833 3.85725 6.201 3.61458 6.5 3.61458Z" fill="#3D4148"/>
</g>
<defs>
<clipPath id="clip0_1084_52947">
<rect width="13" height="13" fill="white" transform="translate(0 0.5)"/>
</clipPath>
</defs>
</svg>
