<svg width="32" height="32" viewBox="0 0 32 32" fill="none" xmlns="http://www.w3.org/2000/svg">
<rect width="32" height="32" rx="4" fill="#F4F5F6"/>
<path d="M11.3346 20.6663C11.0138 20.6663 10.7391 20.552 10.5104 20.3233C10.2817 20.0947 10.1676 19.8201 10.168 19.4997V12.4997C10.168 12.1788 10.2823 11.9041 10.511 11.6754C10.7396 11.4468 11.0142 11.3326 11.3346 11.333H20.668C20.9888 11.333 21.2636 11.4473 21.4922 11.676C21.7209 11.9047 21.835 12.1792 21.8346 12.4997V19.4997C21.8346 19.8205 21.7203 20.0953 21.4916 20.3239C21.263 20.5526 20.9884 20.6667 20.668 20.6663H11.3346ZM16.0013 16.4809C16.0499 16.4809 16.1011 16.4735 16.1547 16.4588C16.2084 16.444 16.2593 16.4222 16.3076 16.3934L20.4346 13.8122C20.5124 13.7636 20.5707 13.7027 20.6096 13.6296C20.6485 13.5565 20.668 13.4764 20.668 13.3893C20.668 13.1948 20.5853 13.049 20.4201 12.9518C20.2548 12.8545 20.0846 12.8594 19.9096 12.9663L16.0013 15.4163L12.093 12.9663C11.918 12.8594 11.7478 12.8571 11.5826 12.9593C11.4173 13.0616 11.3346 13.2049 11.3346 13.3893C11.3346 13.4865 11.3541 13.5716 11.393 13.6448C11.4319 13.7179 11.4902 13.7737 11.568 13.8122L15.6951 16.3934C15.7437 16.4226 15.7948 16.4446 15.8485 16.4593C15.9021 16.4741 15.9531 16.4813 16.0013 16.4809Z" fill="#0D408C"/>
</svg>
