<svg width="14" height="14" viewBox="0 0 14 14" fill="none" xmlns="http://www.w3.org/2000/svg">
<g id="Mail">
<path id="Vector" d="M2.33464 11.6663C2.0138 11.6663 1.73905 11.552 1.51039 11.3233C1.28172 11.0947 1.16758 10.8201 1.16797 10.4997V3.49968C1.16797 3.17884 1.2823 2.90409 1.51097 2.67543C1.73964 2.44676 2.01419 2.33262 2.33464 2.33301H11.668C11.9888 2.33301 12.2636 2.44734 12.4922 2.67601C12.7209 2.90468 12.835 3.17923 12.8346 3.49968V10.4997C12.8346 10.8205 12.7203 11.0953 12.4916 11.3239C12.263 11.5526 11.9884 11.6667 11.668 11.6663H2.33464ZM7.0013 7.48093C7.04991 7.48093 7.10105 7.47354 7.15472 7.45876C7.20839 7.44398 7.25933 7.4222 7.30755 7.39343L11.4346 4.81218C11.5124 4.76356 11.5707 4.7027 11.6096 4.62959C11.6485 4.55648 11.668 4.47637 11.668 4.38926C11.668 4.19481 11.5853 4.04898 11.4201 3.95176C11.2548 3.85454 11.0846 3.8594 10.9096 3.96634L7.0013 6.41634L3.09297 3.96634C2.91797 3.8594 2.74783 3.85706 2.58255 3.95934C2.41728 4.06162 2.33464 4.20493 2.33464 4.38926C2.33464 4.48648 2.35408 4.57165 2.39297 4.64476C2.43186 4.71787 2.49019 4.77368 2.56797 4.81218L6.69505 7.39343C6.74366 7.42259 6.7948 7.44456 6.84847 7.45934C6.90214 7.47412 6.95308 7.48131 7.0013 7.48093Z" fill="#0D408C"/>
</g>
</svg>
