<svg width="17" height="17" viewBox="0 0 17 17" fill="none" xmlns="http://www.w3.org/2000/svg">
<path d="M1.42623 3.08828L1.41349 3.09001L1.40161 3.0949L1.3113 3.13209L1.31124 3.13193L1.30598 3.13446C1.27067 3.15147 1.23776 3.17306 1.20811 3.19868C1.1733 3.22308 1.14207 3.25224 1.11533 3.2853L1.08741 3.31322L1.06319 3.33744L1.05891 3.37143C1.05727 3.38445 1.05651 3.39755 1.05664 3.41065C1.04357 3.43768 1.03233 3.46556 1.02298 3.4941C0.999379 3.54016 0.980387 3.58844 0.966283 3.63824L0.9625 3.6516V3.66549V3.71862V13.2811C0.9625 13.4485 1.02901 13.6091 1.14739 13.7275C1.26577 13.8459 1.42633 13.9124 1.59375 13.9124H15.4062C15.5737 13.9124 15.7342 13.8459 15.8526 13.7275C15.971 13.6091 16.0375 13.4485 16.0375 13.2811V3.71862C16.0375 3.5512 15.971 3.39064 15.8526 3.27225C15.7342 3.15387 15.5737 3.08737 15.4062 3.08737H1.59375H1.55764C1.51399 3.08205 1.46982 3.08235 1.42623 3.08828ZM8.80752 9.06309L14.775 5.38003V12.6499H2.225V4.92412L8.14028 9.01772L8.14012 9.01795L8.14661 9.02175C8.18122 9.04205 8.21715 9.06001 8.25415 9.07553L8.2727 9.0833H8.29281H8.31432C8.36942 9.10645 8.42736 9.12223 8.48665 9.13022L8.49462 9.13129L8.50266 9.13108C8.58446 9.1289 8.66498 9.11084 8.73976 9.07799H8.755H8.78337L8.80752 9.06309ZM8.50338 7.74825L3.6129 4.34987H14.0376L8.50338 7.74825Z" fill="#3D4148" stroke="black" stroke-width="0.2"/>
</svg>
