<svg width="18" height="18" viewBox="0 0 18 18" fill="none" xmlns="http://www.w3.org/2000/svg">
<g id="Modify">
<path id="Vector" d="M12.75 16.5H3.75C3.15326 16.5 2.58097 16.2629 2.15901 15.841C1.73705 15.419 1.5 14.8467 1.5 14.25V5.25C1.5 4.65326 1.73705 4.08097 2.15901 3.65901C2.58097 3.23705 3.15326 3 3.75 3H6.75C6.94891 3 7.13968 3.07902 7.28033 3.21967C7.42098 3.36032 7.5 3.55109 7.5 3.75C7.5 3.94891 7.42098 4.13968 7.28033 4.28033C7.13968 4.42098 6.94891 4.5 6.75 4.5H3.75C3.55109 4.5 3.36032 4.57902 3.21967 4.71967C3.07902 4.86032 3 5.05109 3 5.25V14.25C3 14.4489 3.07902 14.6397 3.21967 14.7803C3.36032 14.921 3.55109 15 3.75 15H12.75C12.9489 15 13.1397 14.921 13.2803 14.7803C13.421 14.6397 13.5 14.4489 13.5 14.25V11.25C13.5 11.0511 13.579 10.8603 13.7197 10.7197C13.8603 10.579 14.0511 10.5 14.25 10.5C14.4489 10.5 14.6397 10.579 14.7803 10.7197C14.921 10.8603 15 11.0511 15 11.25V14.25C15 14.8467 14.7629 15.419 14.341 15.841C13.919 16.2629 13.3467 16.5 12.75 16.5Z" fill="#464646"/>
<path id="Vector_2" d="M10.949 4.40234L7.23652 8.15234C7.18588 8.19751 7.1516 8.25816 7.13902 8.32484L6.38902 11.1898C6.37085 11.253 6.37033 11.32 6.38752 11.3835C6.40471 11.4469 6.43895 11.5045 6.48652 11.5498C6.52309 11.5792 6.56515 11.6009 6.61022 11.6138C6.65529 11.6267 6.70248 11.6304 6.74902 11.6248C6.78118 11.6315 6.81437 11.6315 6.84652 11.6248L9.71152 10.8748C9.77821 10.8623 9.83886 10.828 9.88402 10.7773L13.5965 7.04984L10.949 4.40234Z" fill="#464646"/>
<path id="Vector_3" d="M15.75 3.33794L14.6625 2.25044C14.4493 2.04111 14.1625 1.92383 13.8638 1.92383C13.565 1.92383 13.2782 2.04111 13.065 2.25044L12 3.33794L14.6625 6.00044L15.75 4.93544C15.9593 4.72228 16.0766 4.43545 16.0766 4.13669C16.0766 3.83793 15.9593 3.55111 15.75 3.33794Z" fill="#464646"/>
</g>
</svg>
