<svg width="8" height="8" viewBox="0 0 8 8" fill="none" xmlns="http://www.w3.org/2000/svg">
<path fill-rule="evenodd" clip-rule="evenodd" d="M4.33358 6.12134C5.50614 4.94906 5.5054 3.04788 4.33191 1.87652L3.94085 1.48618C3.75474 1.30025 3.75474 0.999616 3.94085 0.815674C4.12696 0.629754 4.42791 0.631732 4.61402 0.815674L7.46511 3.66186C7.64528 3.84184 7.64925 4.13061 7.47897 4.31653L4.616 7.1825C4.52295 7.27546 4.40019 7.32095 4.27942 7.32095C4.15865 7.32095 4.03589 7.27546 3.94283 7.1825C3.75672 6.99657 3.75672 6.69594 3.94283 6.51199L4.33358 6.12134Z" fill="#181C32"/>
<path fill-rule="evenodd" clip-rule="evenodd" d="M0.535731 6.1193C1.70557 4.94748 1.70482 3.04946 0.534062 1.87856L0.141718 1.48618C-0.0440354 1.30025 -0.0440354 0.999616 0.141718 0.815674C0.327471 0.629754 0.62784 0.631732 0.813593 0.815674L3.65919 3.66186C3.83902 3.84184 3.84297 4.13061 3.67302 4.31653L0.81557 7.1825C0.722693 7.27546 0.600171 7.32095 0.479633 7.32095C0.359094 7.32095 0.236572 7.27546 0.143695 7.1825C-0.0420585 6.99657 -0.0420585 6.69594 0.143695 6.51199L0.535731 6.1193Z" fill="#181C32"/>
</svg>
