<svg width="18" height="18" viewBox="0 0 18 18" fill="none" xmlns="http://www.w3.org/2000/svg">
<path id="Vector" d="M6.85714 13.7143C7.8 13.7143 8.57143 12.9429 8.57143 12C8.57143 11.0571 7.8 10.2857 6.85714 10.2857C5.91429 10.2857 5.14286 11.0571 5.14286 12C5.14286 12.9429 5.91429 13.7143 6.85714 13.7143ZM12 6C12.9429 6 13.7143 6.77143 13.7143 7.71429V16.2857C13.7143 17.2286 12.9429 18 12 18H1.71429C0.771429 18 0 17.2286 0 16.2857V7.71429C0 6.77143 0.771429 6 1.71429 6H2.57143V4.28571C2.57143 1.88571 4.45714 0 6.85714 0C9.25714 0 11.1429 1.88571 11.1429 4.28571V6H12ZM6.85714 1.71429C5.4 1.71429 4.28571 2.82857 4.28571 4.28571V6H9.42857V4.28571C9.42857 2.82857 8.31429 1.71429 6.85714 1.71429ZM17.1429 10.2857H15.4286V5.14286H17.1429V10.2857ZM17.1429 13.7143H15.4286V12H17.1429V13.7143Z" fill="#DC5858"/>
</svg>
