<svg width="18" height="18" viewBox="0 0 18 18" fill="none" xmlns="http://www.w3.org/2000/svg">
<g id="Notes">
<path id="Vector" d="M14.803 6.35468L14.8029 6.3541C14.7955 6.31995 14.7838 6.28689 14.768 6.2557L14.7681 6.25566L14.7666 6.25307L14.7543 6.23192C14.7542 6.23185 14.7542 6.23177 14.7541 6.23169C14.7377 6.20281 14.7177 6.17604 14.6948 6.15197L14.6948 6.15196L14.694 6.15113L10.6098 2.06153L10.6098 2.06152L10.6089 2.06066C10.5848 2.03767 10.5579 2.0177 10.5289 2.00121L10.5289 2.0012L10.5279 2.00064L10.5045 1.98804L10.5045 1.98802L10.5034 1.98744C10.4722 1.97168 10.4391 1.95996 10.405 1.95259L10.405 1.95222L10.3989 1.95166C10.3751 1.94952 10.3512 1.94945 10.3274 1.95146H4.08C3.78031 1.95146 3.49289 2.07051 3.28097 2.28243C3.06905 2.49435 2.95 2.78177 2.95 3.08146V15.1415C2.95 15.4412 3.06905 15.7286 3.28097 15.9405C3.49289 16.1524 3.78031 16.2715 4.08 16.2715H13.6812C13.9809 16.2715 14.2683 16.1524 14.4802 15.9405C14.6921 15.7286 14.8112 15.4412 14.8112 15.1415L14.8112 6.43126L14.8112 6.43053C14.8108 6.40505 14.8081 6.37966 14.803 6.35468ZM10.7306 6.02126V3.34077L13.4111 6.02126H10.7306ZM13.9912 15.1307C13.9912 15.2129 13.9585 15.2917 13.9004 15.3499C13.8423 15.408 13.7634 15.4407 13.6812 15.4407H4.08C3.99778 15.4407 3.91893 15.408 3.8608 15.3499C3.80266 15.2917 3.77 15.2129 3.77 15.1307V3.07066C3.77 2.98844 3.80266 2.90959 3.8608 2.85146C3.91893 2.79332 3.99778 2.76066 4.08 2.76066H9.9106V6.43126C9.9106 6.54 9.9538 6.64428 10.0307 6.72117C10.1076 6.79806 10.2119 6.84126 10.3206 6.84126H13.9912V15.1307ZM12.5311 14.04C12.608 13.9631 12.6512 13.8588 12.6512 13.7501C12.6512 13.6413 12.608 13.537 12.5311 13.4601C12.4542 13.3833 12.3499 13.3401 12.2412 13.3401H5.2806C5.17186 13.3401 5.06758 13.3833 4.99069 13.4601C4.9138 13.537 4.8706 13.6413 4.8706 13.7501C4.8706 13.8588 4.9138 13.9631 4.99069 14.04C5.06758 14.1169 5.17186 14.1601 5.2806 14.1601H12.2412C12.3499 14.1601 12.4542 14.1169 12.5311 14.04ZM12.5311 11.34C12.608 11.2631 12.6512 11.1588 12.6512 11.0501C12.6512 10.9413 12.608 10.837 12.5311 10.7601C12.4542 10.6833 12.3499 10.6401 12.2412 10.6401H5.2806C5.17186 10.6401 5.06758 10.6833 4.99069 10.7601C4.9138 10.837 4.8706 10.9413 4.8706 11.0501C4.8706 11.1588 4.9138 11.2631 4.99069 11.34C5.06758 11.4169 5.17186 11.4601 5.2806 11.4601H12.2412C12.3499 11.4601 12.4542 11.4169 12.5311 11.34ZM12.2412 7.94006H5.2806C5.17186 7.94006 5.06758 7.98326 4.99069 8.06015C4.9138 8.13704 4.8706 8.24132 4.8706 8.35006C4.8706 8.4588 4.9138 8.56308 4.99069 8.63997C5.06758 8.71686 5.17186 8.76006 5.2806 8.76006H12.2412C12.3499 8.76006 12.4542 8.71686 12.5311 8.63997C12.608 8.56308 12.6512 8.4588 12.6512 8.35006C12.6512 8.24132 12.608 8.13704 12.5311 8.06015C12.4542 7.98326 12.3499 7.94006 12.2412 7.94006ZM4.99069 5.36015C4.9138 5.43704 4.8706 5.54132 4.8706 5.65006C4.8706 5.7588 4.9138 5.86308 4.99069 5.93997C5.06758 6.01686 5.17186 6.06006 5.2806 6.06006H8.4612C8.56994 6.06006 8.67422 6.01686 8.75111 5.93997C8.828 5.86308 8.8712 5.7588 8.8712 5.65006C8.8712 5.54132 8.828 5.43704 8.75111 5.36015C8.67422 5.28326 8.56994 5.24006 8.4612 5.24006H5.2806C5.17186 5.24006 5.06758 5.28326 4.99069 5.36015Z" fill="#3D4148" stroke="#3D4148" stroke-width="0.1"/>
</g>
</svg>
