<svg width="18" height="18" viewBox="0 0 18 18" fill="none" xmlns="http://www.w3.org/2000/svg">
<path id="Vector" d="M8.991 0C4.023 0 0 4.032 0 9C0 13.968 4.023 18 8.991 18C13.968 18 18 13.968 18 9C18 4.032 13.968 0 8.991 0ZM12.6 12.6C12.5167 12.6834 12.4178 12.7496 12.309 12.7948C12.2001 12.84 12.0834 12.8632 11.9655 12.8632C11.8476 12.8632 11.7309 12.84 11.622 12.7948C11.5132 12.7496 11.4143 12.6834 11.331 12.6L8.37 9.639C8.28496 9.55565 8.21731 9.45625 8.17096 9.34656C8.12461 9.23687 8.10049 9.11908 8.1 9V5.4C8.1 4.905 8.505 4.5 9 4.5C9.495 4.5 9.9 4.905 9.9 5.4V8.631L12.6 11.331C12.951 11.682 12.951 12.249 12.6 12.6Z" fill="#9A5300"/>
</svg>
