<svg width="18" height="18" viewBox="0 0 18 18" fill="none" xmlns="http://www.w3.org/2000/svg">
<path id="Vector" d="M18 9C18 11.3869 17.0518 13.6761 15.364 15.364C13.6761 17.0518 11.3869 18 9 18C6.61305 18 4.32387 17.0518 2.63604 15.364C0.948212 13.6761 0 11.3869 0 9C0 6.61305 0.948212 4.32387 2.63604 2.63604C4.32387 0.948212 6.61305 0 9 0C11.3869 0 13.6761 0.948212 15.364 2.63604C17.0518 4.32387 18 6.61305 18 9ZM6.1875 4.50225V13.5H7.63088V10.3095H9.50738C11.2871 10.3095 12.375 9.09 12.375 7.40925C12.375 5.742 11.3006 4.50225 9.51975 4.50225H6.1875ZM9.30375 9.08325C10.3084 9.08325 10.9001 8.47013 10.9001 7.40925C10.9001 6.34837 10.3084 5.742 9.30262 5.742H7.62525V9.08325H9.30375Z" fill="#0747A6"/>
</svg>
