<svg width="15" height="16" viewBox="0 0 15 16" fill="none" xmlns="http://www.w3.org/2000/svg">
<path d="M12.4688 13.625C11.125 13.625 9.81521 13.3254 8.53938 12.7262C7.26354 12.1271 6.13333 11.3354 5.14875 10.3513C4.16417 9.36708 3.3725 8.23688 2.77375 6.96062C2.175 5.68437 1.87542 4.37458 1.875 3.03125C1.875 2.84375 1.9375 2.6875 2.0625 2.5625C2.1875 2.4375 2.34375 2.375 2.53125 2.375H5.0625C5.20833 2.375 5.33854 2.42187 5.45313 2.51562C5.56771 2.60937 5.63542 2.72917 5.65625 2.875L6.0625 5.0625C6.08333 5.20833 6.08063 5.34125 6.05438 5.46125C6.02813 5.58125 5.96833 5.68792 5.875 5.78125L4.375 7.3125C4.8125 8.0625 5.35938 8.76562 6.01562 9.42188C6.67188 10.0781 7.39583 10.6458 8.1875 11.125L9.65625 9.65625C9.75 9.5625 9.8725 9.49229 10.0238 9.44562C10.175 9.39896 10.3233 9.38583 10.4688 9.40625L12.625 9.84375C12.7708 9.875 12.8906 9.94542 12.9844 10.055C13.0781 10.1646 13.125 10.2921 13.125 10.4375V12.9688C13.125 13.1563 13.0625 13.3125 12.9375 13.4375C12.8125 13.5625 12.6563 13.625 12.4688 13.625Z" fill="#4772E0"/>
</svg>
