<svg width="8" height="8" viewBox="0 0 8 8" fill="none" xmlns="http://www.w3.org/2000/svg">
<path fill-rule="evenodd" clip-rule="evenodd" d="M3.46721 6.12134C2.29464 4.94906 2.29539 3.04788 3.46888 1.87652L3.85993 1.48618C4.04604 1.30025 4.04604 0.999616 3.85993 0.815674C3.67382 0.629754 3.37287 0.631732 3.18676 0.815674L0.335667 3.66186C0.155497 3.84184 0.151535 4.13061 0.321809 4.31654L3.18478 7.1825C3.27784 7.27546 3.40059 7.32095 3.52136 7.32095C3.64214 7.32095 3.76489 7.27546 3.85795 7.1825C4.04406 6.99658 4.04406 6.69594 3.85795 6.51199L3.46721 6.12134Z" fill="#181C32"/>
<path fill-rule="evenodd" clip-rule="evenodd" d="M7.26505 6.1193C6.09521 4.94748 6.09596 3.04946 7.26672 1.87856L7.65906 1.48618C7.84482 1.30025 7.84482 0.999616 7.65906 0.815674C7.47331 0.629754 7.17294 0.631732 6.98719 0.815674L4.14159 3.66186C3.96177 3.84184 3.95781 4.13061 4.12776 4.31654L6.98521 7.1825C7.07809 7.27546 7.20061 7.32095 7.32115 7.32095C7.44169 7.32095 7.56421 7.27546 7.65709 7.1825C7.84284 6.99658 7.84284 6.69594 7.65709 6.51199L7.26505 6.1193Z" fill="#181C32"/>
</svg>
