<svg width="20" height="20" viewBox="0 0 20 20" fill="none" xmlns="http://www.w3.org/2000/svg">
<g clip-path="url(#clip0_4082_67725)">
<path d="M9.9974 1.66602C14.5999 1.66602 18.3307 5.39685 18.3307 9.99935C18.3307 14.6018 14.5999 18.3327 9.9974 18.3327C5.3949 18.3327 1.66406 14.6018 1.66406 9.99935C1.66406 5.39685 5.3949 1.66602 9.9974 1.66602ZM8.2299 7.05268C8.08028 6.90164 7.87859 6.81349 7.66611 6.80628C7.45363 6.79907 7.24642 6.87335 7.08691 7.0139C6.9274 7.15446 6.82764 7.35067 6.80806 7.56237C6.78847 7.77407 6.85054 7.98525 6.98156 8.15268L7.05156 8.23185L8.81823 9.99852L7.05156 11.7668C6.90052 11.9165 6.81237 12.1182 6.80516 12.3306C6.79795 12.5431 6.87223 12.7503 7.01278 12.9098C7.15334 13.0693 7.34955 13.1691 7.56125 13.1887C7.77295 13.2083 7.98413 13.1462 8.15156 13.0152L8.2299 12.946L9.9974 11.1777L11.7649 12.946C11.9145 13.0971 12.1162 13.1852 12.3287 13.1924C12.5412 13.1996 12.7484 13.1254 12.9079 12.9848C13.0674 12.8442 13.1671 12.648 13.1867 12.4363C13.2063 12.2246 13.1442 12.0134 13.0132 11.846L12.9441 11.7668L11.1757 9.99935L12.9441 8.23185C13.0951 8.08223 13.1833 7.88054 13.1905 7.66806C13.1977 7.45558 13.1234 7.24838 12.9828 7.08887C12.8423 6.92935 12.6461 6.8296 12.4344 6.81001C12.2227 6.79043 12.0115 6.8525 11.8441 6.98352L11.7649 7.05268L9.9974 8.82102L8.2299 7.05268Z" fill="#FC2D2D"/>
</g>
<defs>
<clipPath id="clip0_4082_67725">
<rect width="20" height="20" fill="white"/>
</clipPath>
</defs>
</svg>
