<svg width="14" height="14" viewBox="0 0 14 14" fill="none" xmlns="http://www.w3.org/2000/svg">
<path d="M0.549982 0.549982C0.293878 0.806087 0.15 1.15344 0.15 1.51562V12.4844C0.15 12.8466 0.293878 13.1939 0.549982 13.45C0.806087 13.7061 1.15344 13.85 1.51562 13.85H12.4844C12.8466 13.85 13.1939 13.7061 13.45 13.45C13.7061 13.1939 13.85 12.8466 13.85 12.4844V1.51562C13.85 1.15344 13.7061 0.806087 13.45 0.549982C13.1939 0.293878 12.8466 0.15 12.4844 0.15H1.51562C1.15344 0.15 0.806087 0.293878 0.549982 0.549982ZM1.28803 1.28803C1.34839 1.22766 1.43026 1.19375 1.51562 1.19375H4.36875V12.8062H1.51562C1.43026 12.8062 1.34839 12.7723 1.28802 12.712C1.22766 12.6516 1.19375 12.5697 1.19375 12.4844V1.51562C1.19375 1.43026 1.22766 1.34839 1.28803 1.28803ZM5.4125 1.19375H8.5875V12.8062H5.4125V1.19375ZM12.4844 12.8062H9.63125V1.19375H12.4844C12.5697 1.19375 12.6516 1.22766 12.712 1.28802C12.7723 1.34839 12.8062 1.43026 12.8062 1.51562V12.4844C12.8062 12.5697 12.7723 12.6516 12.712 12.712C12.6516 12.7723 12.5697 12.8062 12.4844 12.8062Z" fill="#3D4148" stroke="#3D4148" stroke-width="0.2"/>
</svg>
