<svg xmlns="http://www.w3.org/2000/svg" width="35" height="31.731" viewBox="0 0 35 31.731">
  <path id="_170011_alert_attention_error_message_warning_icon" data-name="170011_alert_attention_error_message_warning_icon" d="M38.654,33.084,24.919,8.886a3.766,3.766,0,0,0-6.551,0L4.635,33.084A3.766,3.766,0,0,0,7.91,38.71H35.378a3.767,3.767,0,0,0,3.276-5.626ZM23.52,34.263a2.376,2.376,0,0,1-1.623.617,2.438,2.438,0,0,1-1.641-.608,2.171,2.171,0,0,1-.718-1.722,2.311,2.311,0,0,1,2.332-2.317,2.308,2.308,0,0,1,1.667.675,2.223,2.223,0,0,1,.693,1.643A2.191,2.191,0,0,1,23.52,34.263Zm.61-15.581-.6,6.852a5.517,5.517,0,0,1-.441,1.963,1.341,1.341,0,0,1-1.277.791,1.3,1.3,0,0,1-1.266-.776,6.455,6.455,0,0,1-.438-2.005l-.446-6.668c-.084-1.318-.126-2.237-.126-2.812a2.777,2.777,0,0,1,.671-1.968,2.327,2.327,0,0,1,1.771-.724,1.836,1.836,0,0,1,1.82.965,5.779,5.779,0,0,1,.428,2.493A18.049,18.049,0,0,1,24.13,18.682Z" transform="translate(-4.144 -6.979)" fill="#cb3434"/>
</svg>
