<svg id="图层_x0020_1" xmlns="http://www.w3.org/2000/svg" width="35" height="35" viewBox="0 0 35 35">
  <circle id="Ellipse_79" data-name="Ellipse 79" cx="17.5" cy="17.5" r="17.5" transform="translate(0 0)" fill="#48b02c"/>
  <path id="Path_8494" data-name="Path 8494" d="M19.584,4.838l-.046.048L9.472,14.952a1.733,1.733,0,0,1-.75.441,1.764,1.764,0,0,1-1.748-.432L1.028,9.017a1.759,1.759,0,0,1,0-2.475h0a1.754,1.754,0,0,1,2.475,0l4.714,4.714L18.228,1.245a1.757,1.757,0,0,1,2.475,0h0a1.76,1.76,0,0,1,0,2.475L19.584,4.838Z" transform="translate(6.635 9.398)" fill="#fff" fill-rule="evenodd"/>
</svg>
