<svg id="Component_266_13" data-name="Component 266 – 13" xmlns="http://www.w3.org/2000/svg" width="5.897" height="10.45" viewBox="0 0 5.897 10.45">
  <g id="XMLID_1_" transform="translate(-2.968 0.495)">
    <path id="_97637_call_mobile_phone_icon" data-name="97637_call_mobile_phone_icon" d="M26.56,4.4H22.507a.924.924,0,0,0-.922.921v8.607a.924.924,0,0,0,.922.921H26.56a.924.924,0,0,0,.922-.921V5.318A.924.924,0,0,0,26.56,4.4Zm-2.027,9.929a.553.553,0,1,1,.553-.553A.553.553,0,0,1,24.534,14.325Zm-2.322-1.572V5.882h4.643v6.872Z" transform="translate(-18.617 -4.891)" fill="#00a221"/>
  </g>
</svg>
