<svg xmlns="http://www.w3.org/2000/svg" width="13.324" height="13.324" viewBox="0 0 13.324 13.324">
  <g id="_1938931_act_attestation_certificate_chit_evidence_icon" data-name="1938931_act_attestation_certificate_chit_evidence_icon" transform="translate(-10 -10)">
    <path id="Path_8381" data-name="Path 8381" d="M80.195,106.91h3.664a.248.248,0,0,0,0-.474H80.195a.247.247,0,0,0,0,.475Z" transform="translate(-65.35 -90.01)" fill="#aa2a2a"/>
    <path id="Path_8382" data-name="Path 8382" d="M80.195,73.322h3.664a.248.248,0,0,0,0-.474H80.195a.247.247,0,0,0,0,.475Z" transform="translate(-65.35 -58.66)" fill="#aa2a2a"/>
    <path id="Path_8383" data-name="Path 8383" d="M81.448,122.466H80.195a.247.247,0,0,0,0,.475h1.254a.248.248,0,0,0,0-.474Z" transform="translate(-65.35 -104.973)" fill="#aa2a2a"/>
    <path id="Path_8384" data-name="Path 8384" d="M80.195,90.091h3.664a.248.248,0,0,0,0-.474H80.195a.247.247,0,0,0,0,.475Z" transform="translate(-65.35 -74.312)" fill="#aa2a2a"/>
    <path id="Path_8385" data-name="Path 8385" d="M117.387,124.349l-.323-.788a.8.8,0,1,0-.975.079l-.291.709h0a.248.248,0,0,0,.438.18h0l.311-.76a.8.8,0,0,0,.084-.007l.314.767h0a.248.248,0,0,0,.438-.18Z" transform="translate(-98.683 -104.699)" fill="#aa2a2a"/>
    <path id="Path_8386" data-name="Path 8386" d="M16.662,10a6.662,6.662,0,1,0,6.662,6.662A6.662,6.662,0,0,0,16.662,10Zm2.333,10.649H14.369a.593.593,0,0,1-.571-.612l-.039-6.749a.594.594,0,0,1,.571-.614h4.626a.593.593,0,0,1,.571.612l.039,6.749A.593.593,0,0,1,18.995,20.649Z" fill="#aa2a2a"/>
  </g>
</svg>
