<svg xmlns="http://www.w3.org/2000/svg" width="13.639" height="15.728" viewBox="0 0 13.639 15.728">
  <path id="_2005587_bill_document_invoice_payment_receipt_icon" data-name="2005587_bill_document_invoice_payment_receipt_icon" d="M16.878,2.581l-.671.443a.494.494,0,0,1-.568,0L14.5,2.252a.494.494,0,0,0-.568,0L12.8,3.025a.494.494,0,0,1-.568,0l-1.137-.773a.494.494,0,0,0-.568,0l-1.137.773a.494.494,0,0,1-.568,0L7.683,2.252a.494.494,0,0,0-.568,0l-1.137.773a.494.494,0,0,1-.568,0l-.648-.443A.494.494,0,0,0,4,2.991V17.062a.494.494,0,0,0,.762.409l.671-.443a.494.494,0,0,1,.568,0l1.137.773a.494.494,0,0,0,.568,0l1.137-.773a.494.494,0,0,1,.568,0l1.137.773a.494.494,0,0,0,.568,0l1.137-.773a.494.494,0,0,1,.568,0l1.137.773a.494.494,0,0,0,.568,0l1.137-.773a.494.494,0,0,1,.568,0l.671.443a.494.494,0,0,0,.739-.409V2.991a.494.494,0,0,0-.762-.409Zm-4.922,11V14a.852.852,0,0,1-1.7,0V13.6a5.6,5.6,0,0,1-1.387-.386A.892.892,0,0,1,8.3,12.4a.841.841,0,0,1,.847-.858.892.892,0,0,1,.358.074,3.751,3.751,0,0,0,1.534.318c1.046,0,1.046-.364,1.046-.523,0-.267-.727-.375-1.137-.483-1.029-.261-2.586-.659-2.586-2.273a2.273,2.273,0,0,1,1.892-2.148v-.46a.852.852,0,1,1,1.7,0v.4a5.115,5.115,0,0,1,1.108.261.83.83,0,0,1,.568.807.847.847,0,0,1-.841.858.875.875,0,0,1-.324-.051,3.791,3.791,0,0,0-1.233-.2c-.494,0-1.074.136-1.074.511,0,.256.352.381,1.193.568,1.006.239,2.529.608,2.529,2.273A2.222,2.222,0,0,1,11.956,13.578Z" transform="translate(-4 -2.162)" fill="#01a221"/>
</svg>
