<svg xmlns="http://www.w3.org/2000/svg" width="10.238" height="10.238" viewBox="0 0 10.238 10.238">
  <g id="_2705539_booking_calendar_check_confirm_date_icon" data-name="2705539_booking_calendar_check_confirm_date_icon" transform="translate(-1 -1)">
    <path id="Path_9180" data-name="Path 9180" d="M7.731,1.366a.366.366,0,0,0-.731,0V2.1h.731Z" transform="translate(-3.806)" fill="#01a221"/>
    <path id="Path_9181" data-name="Path 9181" d="M21.731,1.366a.366.366,0,0,0-.731,0V2.1h.731Z" transform="translate(-12.687)" fill="#01a221"/>
    <path id="Path_9182" data-name="Path 9182" d="M10.141,4h-1.1V5.463a.366.366,0,0,1-.731,0V4H3.925V5.463a.366.366,0,1,1-.731,0V4H2.1A1.1,1.1,0,0,0,1,5.1v6.947a1.1,1.1,0,0,0,1.1,1.1h8.044a1.1,1.1,0,0,0,1.1-1.1V5.1A1.1,1.1,0,0,0,10.141,4Zm.366,8.044a.366.366,0,0,1-.366.366H2.1a.366.366,0,0,1-.366-.366V7.291h8.776Z" transform="translate(0 -1.903)" fill="#01a221"/>
    <path id="Path_9183" data-name="Path 9183" d="M9.57,18.55a.366.366,0,0,0,.517,0l2.925-2.925a.366.366,0,1,0-.517-.517L9.828,17.774l-1.2-1.2a.366.366,0,1,0-.517.517Z" transform="translate(-4.44 -8.881)" fill="#01a221"/>
  </g>
</svg>
