<svg xmlns="http://www.w3.org/2000/svg" width="10.238" height="10.238" viewBox="0 0 10.238 10.238">
  <g id="_2705539_booking_calendar_check_confirm_date_icon" data-name="2705539_booking_calendar_check_confirm_date_icon" transform="translate(-1 -1)">
    <path id="Path_9180" data-name="Path 9180" d="M7.731,1.366a.366.366,0,0,0-.731,0V2.1h.731Z" transform="translate(-3.806)" fill="#aa2a2a"/>
    <path id="Path_9181" data-name="Path 9181" d="M21.731,1.366a.366.366,0,0,0-.731,0V2.1h.731Z" transform="translate(-12.687)" fill="#aa2a2a"/>
    <path id="Path_9182" data-name="Path 9182" d="M10.141,4h-1.1V5.463a.366.366,0,0,1-.731,0V4H3.925V5.463a.366.366,0,1,1-.731,0V4H2.1A1.1,1.1,0,0,0,1,5.1v6.947a1.1,1.1,0,0,0,1.1,1.1h8.044a1.1,1.1,0,0,0,1.1-1.1V5.1A1.1,1.1,0,0,0,10.141,4Zm.366,8.044a.366.366,0,0,1-.366.366H2.1a.366.366,0,0,1-.366-.366V7.291h8.776Z" transform="translate(0 -1.903)" fill="#aa2a2a"/>
    <g id="XMLID_2503_" transform="translate(-47.795 -46.039)">
      <g id="XMLID_2481_" transform="translate(52.162 52.1)">
        <g id="XMLID_18_" transform="translate(0 0)">
          <path id="XMLID_22_" d="M52.218,52.429l.085.085.23.23.339.339.414.414.454.454.459.459.426.426.36.36.26.26.123.123.005.005a.193.193,0,0,0,.273,0,.194.194,0,0,0,.056-.136.2.2,0,0,0-.056-.136l-.085-.085-.23-.23-.339-.339-.414-.414-.454-.454-.459-.459-.426-.426-.36-.36-.26-.26-.123-.123-.005-.005a.193.193,0,0,0-.273,0,.194.194,0,0,0-.056.136.2.2,0,0,0,.056.136Z" transform="translate(-52.162 -52.1)" fill="#aa2a2a" stroke="#aa2a2a" stroke-width="0.2"/>
        </g>
      </g>
      <g id="XMLID_2502_" transform="translate(52.162 52.1)">
        <g id="XMLID_12_" transform="translate(0 0)">
          <path id="XMLID_16_" d="M55.411,52.218l-.085.085-.23.23-.339.339-.414.414-.454.454-.459.459L53,54.625l-.36.36-.26.26-.123.123-.005.005a.193.193,0,0,0,0,.273.194.194,0,0,0,.136.056.2.2,0,0,0,.136-.056l.085-.085.23-.23.339-.339.414-.414.454-.454.459-.459.426-.426.36-.36.26-.26.123-.123.005-.005a.193.193,0,0,0,0-.273.194.194,0,0,0-.136-.056.2.2,0,0,0-.136.056Z" transform="translate(-52.2 -52.162)" fill="#aa2a2a" stroke="#aa2a2a" stroke-width="0.2"/>
        </g>
      </g>
    </g>
  </g>
</svg>
