<svg id="_3669395_call_ic_icon" data-name="3669395_call_ic_icon" xmlns="http://www.w3.org/2000/svg" width="11.704" height="11.704" viewBox="0 0 11.704 11.704">
  <path id="Path_112" data-name="Path 112" d="M0,0H11.7V11.7H0Z" fill="none"/>
  <path id="Path_113" data-name="Path 113" d="M7.768,9.8a7.344,7.344,0,0,0,3.214,3.211l1.073-1.075a.489.489,0,0,1,.495-.119,5.552,5.552,0,0,0,1.741.278.486.486,0,0,1,.488.488V14.29a.486.486,0,0,1-.488.488A8.29,8.29,0,0,1,6,6.488.488.488,0,0,1,6.488,6H8.195a.486.486,0,0,1,.488.488A5.551,5.551,0,0,0,8.96,8.229a.489.489,0,0,1-.119.495Z" transform="translate(-4.296 -4.537)" fill="#00a221"/>
</svg>
