<svg xmlns="http://www.w3.org/2000/svg" width="56" height="22" viewBox="0 0 56 22">
  <g id="Group_10240" data-name="Group 10240" transform="translate(-1069 -187)">
    <g id="Group_10239" data-name="Group 10239" transform="translate(994.5 -151.246)">
      <g id="Group_9859" data-name="Group 9859" transform="translate(74.5 338.246)">
        <rect id="Rectangle_3579" data-name="Rectangle 3579" width="56" height="22" rx="3" fill="#213449" opacity="0.1"/>
        <g id="XMLID_1_" transform="translate(3 5)">
          <path id="XMLID_38_" d="M46.693,742.588a1.158,1.158,0,0,1-1.035.631H31.7c-.236,0-.472,0-.709,0a1.172,1.172,0,0,1-.968-.5,1.954,1.954,0,0,1-.2-1.185.658.658,0,0,1,.67-.659l.224,0H45.894c.081,0,.162,0,.243,0a.661.661,0,0,1,.677.629v.023A2.38,2.38,0,0,1,46.693,742.588Z" transform="translate(-29.818 -730.454)" fill="#465769"/>
          <path id="XMLID_41_" d="M119.349,150.74v-.014s0-.009,0-.012a.863.863,0,0,0-.712-.83,1.284,1.284,0,0,0-.2-.014H106.909c-.349,0-.7-.005-1.049,0a.87.87,0,0,0-.828.631,1.075,1.075,0,0,0-.032.291V159.4a.187.187,0,0,0,.182.182H118.6c.182,0,.363,0,.545,0l.026,0a.181.181,0,0,0,.178-.178v-7.608C119.349,151.443,119.361,151.089,119.349,150.74Zm-4.847,4.2a2.5,2.5,0,0,1-.067.587c-.005.019-.009.039-.014.056l-.016.056c-.009.028-.018.056-.028.085l-.021.056c-.011.028-.021.056-.033.083a1.864,1.864,0,0,1-.116.229c-.009.016-.018.03-.026.044s-.018.03-.028.044l-.039.058a.267.267,0,0,0-.019.028l-.03.041-.005.007-.032.041,0,.005c-.012.016-.026.032-.041.048l-.023.026h0c-.016.018-.03.033-.046.049s-.016.016-.023.025-.032.032-.048.046a.212.212,0,0,1-.021.019.088.088,0,0,1-.014.012l-.026.023a.352.352,0,0,1-.028.025l-.014.011-.033.028-.039.032s-.005.005-.009.007l-.042.032c-.014.011-.028.021-.042.03a.078.078,0,0,1-.012.007l-.032.021-.062.039c-.014.009-.028.018-.042.025l-.293.167-.175.1-.044.026-.109.063-.109.063-.055.032-.007.005-.03.018-.053.03-.018.011c-.039.023-.079.044-.118.065l-.011.005-.028.016-.079.042-.039.021a.168.168,0,0,1-.037.016l-.012,0-.012,0a.161.161,0,0,1-.058,0l-.011,0h0l0,0,0,0,0,0h-.009a4.911,4.911,0,0,0-.018,0,.372.372,0,0,1-.067-.03l-.233-.136a.037.037,0,0,1-.011-.007l-.691-.4h0l-.042-.025-.041-.025h0l-.021-.012-.021-.012-.041-.025c-.014-.009-.026-.019-.041-.028l-.079-.055h0c-.026-.018-.053-.033-.078-.053s-.069-.049-.1-.076a.258.258,0,0,0-.023-.018l-.033-.028c-.011-.009-.021-.018-.032-.028l-.033-.032-.005-.005-.032-.032a2.144,2.144,0,0,1-.583-1.142,2.289,2.289,0,0,1-.026-.289v-.044c0-.025,0-.048,0-.072V152.89a.178.178,0,0,1,.175-.176,2.97,2.97,0,0,0,.531-.048l.058-.011a.006.006,0,0,0,.005,0l.046-.009h0a.041.041,0,0,0,.014,0,.007.007,0,0,0,.005,0,.283.283,0,0,0,.037-.009.033.033,0,0,0,.012,0l.037-.009.019-.005a.381.381,0,0,0,.042-.012.453.453,0,0,0,.046-.014l.007,0,.069-.021.021-.007.039-.014.032-.011a.234.234,0,0,0,.032-.012l.053-.021.007,0,.074-.032,0,0,.033-.014.044-.021a4.129,4.129,0,0,0,.76-.506.054.054,0,0,1,.012-.009s.009-.005.012-.009a.1.1,0,0,0,.014-.009l.011-.005.012-.005h0a.033.033,0,0,1,.012,0h0l.011,0,.012,0a.2.2,0,0,1,.046,0l.026.005.009,0,0,0,0,0s.007,0,.009,0a.044.044,0,0,1,.012.007.062.062,0,0,1,.014.009l.011.007s.009.005.012.009a4.315,4.315,0,0,0,.76.506l.044.021c.044.021.088.041.134.058l.037.014.1.037.046.016s.007,0,.011,0a.125.125,0,0,0,.035.007h0c.009.018.019.011.028.012l.023.009.041.012.019.005a.283.283,0,0,0,.037.009l.012,0,.037.009.005,0,.014,0,0,0,.046.011a.006.006,0,0,1,.005,0l.058.011a2.969,2.969,0,0,0,.531.048.169.169,0,0,1,.123.053.189.189,0,0,1,.016.019l.005.007a.1.1,0,0,1,.012.023.184.184,0,0,1,.018.076v2.047Z" transform="translate(-103.675 -149.867)" fill="#465769"/>
          <path id="XMLID_10_" d="M429.4,362.2l-.192.192-1.35,1.35a.358.358,0,0,1-.5,0l-.763-.763a.353.353,0,0,1,.5-.5c.173.173.344.34.516.511l1.29-1.292a.353.353,0,0,1,.5.5Z" transform="translate(-419.505 -357.866)" fill="#465769"/>
        </g>
        <g id="Group_10078" data-name="Group 10078" transform="translate(-135 -335)">
          <text id="EVV" transform="translate(160 351)" fill="#465769" font-size="13" font-family="Lato-Bold, Lato" font-weight="700" letter-spacing="0.01em"><tspan x="0" y="0">EVV</tspan></text>
        </g>
      </g>
    </g>
  </g>
</svg>
