<svg xmlns="http://www.w3.org/2000/svg" width="13.555" height="13.624" viewBox="0 0 13.555 13.624">
  <g id="_3383097_component_device_electronics_pcb_icon" data-name="3383097_component_device_electronics_pcb_icon" transform="translate(-0.74 -0.49)">
    <path id="Path_8485" data-name="Path 8485" d="M45.8,2.541v.621h.55V2.541a.826.826,0,1,0-.55,0Z" transform="translate(-38.385 -0.386)" fill="#00a221"/>
    <path id="Path_8486" data-name="Path 8486" d="M27.648,2.093v.745h.55V2.093a.826.826,0,1,0-.55,0Z" transform="translate(-22.732)" fill="#00a221"/>
    <path id="Path_8487" data-name="Path 8487" d="M63.951,2.575v.612h.55V2.575a.826.826,0,1,0-.55,0Z" transform="translate(-54.04 -0.416)" fill="#00a221"/>
    <path id="Path_8488" data-name="Path 8488" d="M84.044,44.5a.826.826,0,0,0-.777.55h-.621v.55h.621a.825.825,0,1,0,.777-1.1Z" transform="translate(-70.636 -37.954)" fill="#00a221"/>
    <path id="Path_8489" data-name="Path 8489" d="M83.718,28a.826.826,0,1,0-.777-1.1H82.2v.55h.745A.826.826,0,0,0,83.718,28Z" transform="translate(-70.249 -22.3)" fill="#00a221"/>
    <path id="Path_8490" data-name="Path 8490" d="M84.068,62.651a.826.826,0,0,0-.777.55h-.612v.55h.612a.825.825,0,1,0,.777-1.1Z" transform="translate(-70.665 -53.609)" fill="#00a221"/>
    <path id="Path_8491" data-name="Path 8491" d="M46.35,83.516V82.9H45.8v.621a.826.826,0,1,0,.55,0Z" transform="translate(-38.385 -71.067)" fill="#00a221"/>
    <path id="Path_8492" data-name="Path 8492" d="M64.5,83.191v-.745h-.55v.745a.826.826,0,1,0,.55,0Z" transform="translate(-54.039 -70.68)" fill="#00a221"/>
    <path id="Path_8493" data-name="Path 8493" d="M28.2,83.541v-.612h-.55v.612a.826.826,0,1,0,.55,0Z" transform="translate(-22.731 -71.097)" fill="#00a221"/>
    <path id="Path_8494" data-name="Path 8494" d="M2.014,46.15a.826.826,0,0,0,.777-.55h.621v-.55H2.791a.825.825,0,1,0-.778,1.1Z" transform="translate(-0.386 -37.954)" fill="#00a221"/>
    <path id="Path_8495" data-name="Path 8495" d="M1.566,62.65a.826.826,0,1,0,.777,1.1h.745V63.2H2.343A.826.826,0,0,0,1.566,62.65Z" transform="translate(0 -53.608)" fill="#00a221"/>
    <path id="Path_8496" data-name="Path 8496" d="M2.048,28a.826.826,0,0,0,.777-.55h.612V26.9H2.825A.825.825,0,1,0,2.048,28Z" transform="translate(-0.416 -22.3)" fill="#00a221"/>
    <path id="Path_8497" data-name="Path 8497" d="M27.618,19.744h-7a.62.62,0,0,0-.619.619v7a.62.62,0,0,0,.619.619h7a.62.62,0,0,0,.619-.619v-7A.62.62,0,0,0,27.618,19.744Zm-4.189,3.5H22.056V21.871h1.372Z" transform="translate(-16.26 -16.605)" fill="#00a221"/>
  </g>
</svg>
