<svg id="Layer_1" data-name="Layer 1" xmlns="http://www.w3.org/2000/svg" width="9.961" height="9.961" viewBox="0 0 9.961 9.961">
  <rect id="Rectangle_3602" data-name="Rectangle 3602" width="9.961" height="9.961" rx="1" fill="#0088ce"/>
  <path id="Path_8407" data-name="Path 8407" d="M10.22,29v3.665h.352a.36.36,0,0,0,.36-.36V29Z" transform="translate(-8.747 -24.819)" fill="#fff" fill-rule="evenodd"/>
  <path id="Path_8408" data-name="Path 8408" d="M17.756,29.04h-.807L15.63,30.823,17.015,32.7h.817L16.4,30.823Z" transform="translate(-13.377 -24.854)" fill="#fff" fill-rule="evenodd"/>
  <path id="Path_8409" data-name="Path 8409" d="M38.132,29.009h0l-.712.52-1,.721L34.64,29v3.665h.35a.36.36,0,0,0,.36-.36V30.388l.432.319h0l.605.441h0l.637-.463h0l.381-.277V32.3a.359.359,0,0,0,.36.36h.35V29.006Z" transform="translate(-29.646 -24.819)" fill="#fff" fill-rule="evenodd"/>
  <path id="Path_8410" data-name="Path 8410" d="M26.638,15.528H26.1V14.99H25.8v.538H25.26v.3H25.8v.536H26.1v-.536h.536Z" transform="translate(-21.619 -12.829)" fill="#e2a62a" fill-rule="evenodd"/>
  <path id="Path_8411" data-name="Path 8411" d="M40.592,12h-.379V11.62H40V12H39.62v.215H40v.378h.215v-.378h.379Z" transform="translate(-33.908 -9.945)" fill="#ff6b43" fill-rule="evenodd"/>
  <path id="Path_8412" data-name="Path 8412" d="M47.6,14.832H47.11V14.34h-.278v.492H46.34v.278h.492V15.6h.278V15.11H47.6Z" transform="translate(-39.66 -12.273)" fill="#b6d7ef" fill-rule="evenodd"/>
  <path id="Path_8413" data-name="Path 8413" d="M55.9,21.333H55.68V21.11h-.127v.223H55.33v.127h.223v.222h.127V21.46H55.9Z" transform="translate(-47.354 -18.067)" fill="#99e87c" fill-rule="evenodd"/>
</svg>
