<svg id="Component_266_2" data-name="Component 266 – 2" xmlns="http://www.w3.org/2000/svg" width="12" height="9.011" viewBox="0 0 12 9.011">
  <g id="XMLID_1_">
    <path id="XMLID_38_" d="M41.73,742.083a.818.818,0,0,1-.73.445H31.145c-.167,0-.333,0-.5,0a.827.827,0,0,1-.683-.355,1.379,1.379,0,0,1-.139-.836.465.465,0,0,1,.473-.465H41.166c.057,0,.114,0,.172,0a.466.466,0,0,1,.478.444h0v.015A1.68,1.68,0,0,1,41.73,742.083Z" transform="translate(-29.818 -733.518)" fill="#00a221"/>
    <path id="XMLID_41_" d="M115.128,150.483v-.01s0-.006,0-.009a.609.609,0,0,0-.5-.586.907.907,0,0,0-.142-.01h-8.134c-.246,0-.494,0-.74,0a.614.614,0,0,0-.585.445.759.759,0,0,0-.022.205V156.6a.132.132,0,0,0,.128.128H114.6c.128,0,.256,0,.384,0H115a.128.128,0,0,0,.126-.126v-5.37C115.128,150.979,115.137,150.729,115.128,150.483Zm-3.422,2.968a1.764,1.764,0,0,1-.047.414c0,.014-.006.027-.01.04l-.011.04c-.006.02-.012.04-.02.06l-.015.04c-.007.02-.015.04-.024.058a1.316,1.316,0,0,1-.082.162l-.019.031c-.006.01-.012.021-.02.031l-.027.041a.188.188,0,0,0-.014.02l-.021.029,0,0-.022.029,0,0-.029.034-.016.019h0l-.032.035-.016.017-.034.032-.015.014-.01.009-.019.016-.02.017-.01.007-.024.02-.027.022-.006,0-.03.022-.03.021-.009,0-.022.015-.044.027-.03.017-.207.118-.123.072-.031.019-.077.045-.077.045-.039.022,0,0-.021.012-.037.021-.012.007c-.027.016-.056.031-.083.046l-.007,0-.02.011-.056.03-.027.015a.119.119,0,0,1-.026.011l-.009,0-.009,0a.114.114,0,0,1-.041,0h-.032a.264.264,0,0,1-.047-.021l-.164-.1-.007,0-.488-.284h0l-.03-.017-.029-.017h0l-.015-.009-.015-.009-.029-.017-.029-.02-.056-.039h0c-.019-.012-.037-.024-.055-.037s-.049-.035-.072-.053a.183.183,0,0,0-.016-.012l-.024-.02-.022-.02-.024-.022,0,0-.022-.022a1.513,1.513,0,0,1-.412-.806,1.615,1.615,0,0,1-.019-.2v-.031c0-.017,0-.034,0-.051V152a.125.125,0,0,1,.123-.124,2.1,2.1,0,0,0,.375-.034l.041-.007h0l.032-.006h0l.01,0h0l.026-.006.009,0,.026-.006.014,0,.03-.009.032-.01h0l.049-.015.015,0,.027-.01.022-.007.022-.009.037-.015,0,0,.052-.022h0l.024-.01.031-.015a2.915,2.915,0,0,0,.536-.357l.009-.006L110,151.3l.01-.006.007,0,.009,0h0l.009,0h0l.007,0h.009a.142.142,0,0,1,.032,0l.019,0,.006,0h0l.006,0a.031.031,0,0,1,.009,0,.044.044,0,0,1,.01.006l.007,0,.009.006a3.047,3.047,0,0,0,.536.357l.031.015c.031.015.062.029.095.041l.026.01.071.026.032.011s0,0,.007,0a.088.088,0,0,0,.025,0h0c.006.012.014.007.02.009l.016.006.029.009.014,0,.026.006.009,0,.026.006h0l.01,0h0l.032.007h0l.041.007a2.1,2.1,0,0,0,.375.034.119.119,0,0,1,.087.037l.011.014,0,0a.067.067,0,0,1,.009.016.13.13,0,0,1,.012.053v1.445Z" transform="translate(-104.065 -149.867)" fill="#00a221"/>
    <path id="XMLID_10_" d="M428.548,362.022l-.136.136-.953.953a.253.253,0,0,1-.352,0l-.539-.539a.249.249,0,0,1,.352-.352c.122.122.243.24.365.361l.911-.912a.249.249,0,1,1,.352.353Z" transform="translate(-421.562 -358.963)" fill="#00a221"/>
  </g>
</svg>
