<svg xmlns="http://www.w3.org/2000/svg" width="31" height="16" viewBox="0 0 31 16">
  <g id="Group_11496" data-name="Group 11496" transform="translate(-1207 -148)">
    <g id="Group_11363" data-name="Group 11363">
      <rect id="Rectangle_3763" data-name="Rectangle 3763" width="27" height="11" rx="3" transform="translate(1207 151)" fill="#8fa854"/>
      <path id="Path_8748" data-name="Path 8748" d="M3.982,1.057V.206H1.564V-4.886H.6V1.057Zm3.168,0L9.125-4.886H8.155L7.21-1.948,6.63.121H6.6l-.57-2.069L5.081-4.886h-1l1.95,5.943Zm3.108.1a.554.554,0,0,0,.622-.579V.453a.554.554,0,0,0-.622-.579.554.554,0,0,0-.622.579V.581A.554.554,0,0,0,10.258,1.16Z" transform="translate(1209.408 158.363)" fill="#fff" stroke="#fff" stroke-width="0.5"/>
    </g>
    <g id="Group_11362" data-name="Group 11362">
      <g id="Ellipse_130" data-name="Ellipse 130" transform="translate(1222 148)" fill="#8fa854" stroke="#fff" stroke-width="1">
        <circle cx="8" cy="8" r="8" stroke="none"/>
        <circle cx="8" cy="8" r="7.5" fill="none"/>
      </g>
      <path id="Path_8749" data-name="Path 8749" d="M2.41-.96H-1.11L.53-2.37C1.45-3.16,2.2-3.9,2.2-5.03A2.018,2.018,0,0,0-.04-7.1,2.346,2.346,0,0,0-2.43-5.4l.99.38A1.3,1.3,0,0,1-.13-6.12,1.035,1.035,0,0,1,1-5.03v.13A2.59,2.59,0,0,1-.1-3.07L-2.33-1.08V0H2.41Z" transform="translate(1230 159.1)" fill="#fff" stroke="#fff" stroke-width="0.3"/>
    </g>
  </g>
</svg>
