<svg xmlns="http://www.w3.org/2000/svg" width="31" height="16" viewBox="0 0 31 16">
  <g id="Group_11497" data-name="Group 11497" transform="translate(-1207 -148)">
    <g id="Group_11363" data-name="Group 11363">
      <rect id="Rectangle_3763" data-name="Rectangle 3763" width="27" height="11" rx="3" transform="translate(1207 151)" fill="#b9b94e"/>
      <path id="Path_8748" data-name="Path 8748" d="M3.982,1.057V.206H1.564V-4.886H.6V1.057Zm3.168,0L9.125-4.886H8.155L7.21-1.948,6.63.121H6.6l-.57-2.069L5.081-4.886h-1l1.95,5.943Zm3.108.1a.554.554,0,0,0,.622-.579V.453a.554.554,0,0,0-.622-.579.554.554,0,0,0-.622.579V.581A.554.554,0,0,0,10.258,1.16Z" transform="translate(1209.408 158.363)" fill="#fff" stroke="#fff" stroke-width="0.5"/>
    </g>
    <g id="Group_11362" data-name="Group 11362">
      <g id="Ellipse_130" data-name="Ellipse 130" transform="translate(1222 148)" fill="#b9b94e" stroke="#fff" stroke-width="1">
        <circle cx="8" cy="8" r="8" stroke="none"/>
        <circle cx="8" cy="8" r="7.5" fill="none"/>
      </g>
      <path id="Path_8750" data-name="Path 8750" d="M-1.09-4.11v.96h.74c.88,0,1.38.39,1.38,1.1v.07C1.03-1.26.56-.83-.29-.83a1.671,1.671,0,0,1-1.56-.95l-.83.65A2.656,2.656,0,0,0-.29.12C1.2.12,2.2-.7,2.2-1.92A1.689,1.689,0,0,0,.74-3.65V-3.7A1.6,1.6,0,0,0,2.08-5.3c0-1.13-.95-1.8-2.27-1.8A2.5,2.5,0,0,0-2.41-5.95l.75.65A1.6,1.6,0,0,1-.22-6.15a.976.976,0,0,1,1.11.99v.07c0,.57-.41.98-1.27.98Z" transform="translate(1230.18 159.6)" fill="#fff" stroke="#fff" stroke-width="0.3"/>
    </g>
  </g>
</svg>
