<svg xmlns="http://www.w3.org/2000/svg" width="31" height="16" viewBox="0 0 31 16">
  <g id="Group_11499" data-name="Group 11499" transform="translate(-1207 -148)">
    <g id="Group_11363" data-name="Group 11363">
      <rect id="Rectangle_3763" data-name="Rectangle 3763" width="27" height="11" rx="3" transform="translate(1207 151)" fill="#d04545"/>
      <path id="Path_8748" data-name="Path 8748" d="M3.982,1.057V.206H1.564V-4.886H.6V1.057Zm3.168,0L9.125-4.886H8.155L7.21-1.948,6.63.121H6.6l-.57-2.069L5.081-4.886h-1l1.95,5.943Zm3.108.1a.554.554,0,0,0,.622-.579V.453a.554.554,0,0,0-.622-.579.554.554,0,0,0-.622.579V.581A.554.554,0,0,0,10.258,1.16Z" transform="translate(1209.408 158.363)" fill="#fff" stroke="#fff" stroke-width="0.5"/>
    </g>
    <g id="Group_11362" data-name="Group 11362">
      <g id="Ellipse_130" data-name="Ellipse 130" transform="translate(1222 148)" fill="#d04545" stroke="#fff" stroke-width="1">
        <circle cx="8" cy="8" r="8" stroke="none"/>
        <circle cx="8" cy="8" r="7.5" fill="none"/>
      </g>
      <path id="Path_8752" data-name="Path 8752" d="M2.08-6.98H-1.88l-.26,3.89.93.13A1.465,1.465,0,0,1-.03-3.51,1.176,1.176,0,0,1,1.26-2.23v.12A1.176,1.176,0,0,1-.03-.83a1.646,1.646,0,0,1-1.51-.95l-.82.65A2.562,2.562,0,0,0-.05.12,2.278,2.278,0,0,0,2.44-2.26,2.029,2.029,0,0,0,.33-4.44a1.492,1.492,0,0,0-1.46.91H-1.2L-1.02-6h3.1Z" transform="translate(1229.86 159.48)" fill="#fff" stroke="#fff" stroke-width="0.3"/>
    </g>
  </g>
</svg>
