<svg xmlns="http://www.w3.org/2000/svg" width="31" height="16" viewBox="0 0 31 16">
  <g id="Group_11362" data-name="Group 11362" transform="translate(-1207 -148)">
    <g id="Group_11363" data-name="Group 11363">
      <rect id="Rectangle_3763" data-name="Rectangle 3763" width="27" height="11" rx="3" transform="translate(1207 151)" fill="#4f965b"/>
      <path id="Path_8748" data-name="Path 8748" d="M3.982,1.057V.206H1.564V-4.886H.6V1.057Zm3.168,0L9.125-4.886H8.155L7.21-1.948,6.63.121H6.6l-.57-2.069L5.081-4.886h-1l1.95,5.943Zm3.108.1a.554.554,0,0,0,.622-.579V.453a.554.554,0,0,0-.622-.579.554.554,0,0,0-.622.579V.581A.554.554,0,0,0,10.258,1.16Z" transform="translate(1209.408 158.363)" fill="#fff" stroke="#fff" stroke-width="0.5"/>
    </g>
    <g id="Group_11362-2" data-name="Group 11362">
      <g id="Ellipse_130" data-name="Ellipse 130" transform="translate(1222 148)" fill="#4f965b" stroke="#fff" stroke-width="1">
        <circle cx="8" cy="8" r="8" stroke="none"/>
        <circle cx="8" cy="8" r="7.5" fill="none"/>
      </g>
      <path id="Path_8747" data-name="Path 8747" d="M2.65,0V-.94H.95V-6.98H-.77L-2.55-5.05l.69.62L-.24-6.16h.08V-.94H-2.12V0Z" transform="translate(1230 160)" fill="#fff" stroke="#fff" stroke-width="0.3"/>
    </g>
  </g>
</svg>
