<svg xmlns="http://www.w3.org/2000/svg" width="14.351" height="15.221" viewBox="0 0 14.351 15.221">
  <g id="_515494_approval_permission_seal_rubber_stamp_stamp_icon" data-name="515494_approval_permission_seal_rubber stamp_stamp_icon" transform="translate(-4.5 -21.58)">
    <path id="Path_8656" data-name="Path 8656" d="M11.394,32.46c0-2.894,1.447-4.342,1.447-5.789a2.171,2.171,0,0,0-4.342,0c0,1.447,1.447,2.894,1.447,5.789Z" transform="translate(-1.106)" fill="#aa2a2a"/>
    <path id="Path_8657" data-name="Path 8657" d="M13.907,38.671a.726.726,0,0,0,.724-.724v-.724a.726.726,0,0,0-.724-.724H5.224a.726.726,0,0,0-.724.724v.724a.726.726,0,0,0,.724.724Z" transform="translate(0 -3.317)" fill="#aa2a2a"/>
    <path id="Path_8658" data-name="Path 8658" d="M14.183,40.862a.362.362,0,0,0-.362-.362H5.862a.362.362,0,1,0,0,.724h7.96A.362.362,0,0,0,14.183,40.862Z" transform="translate(-0.276 -4.422)" fill="#aa2a2a"/>
    <path id="Path_8664" data-name="Path 8664" d="M30.1,30.125a2.92,2.92,0,1,0,2.92,2.92A2.92,2.92,0,0,0,30.1,30.125Zm1.146,3.061-1.65,1.65h0l-.092.092h0l-.206-.206h0l-1.342-1.342.7-.742.977.916,1.044-1h0l1-1,.575.636Z" transform="translate(-14.172 -8.545)" fill="#aa2a2a"/>
    <g id="Group_11200" data-name="Group 11200" transform="translate(2.056 11.636)">
      <path id="Path_8660" data-name="Path 8660" d="M30.1,30.125a2.92,2.92,0,1,0,2.92,2.92A2.92,2.92,0,0,0,30.1,30.125Z" transform="translate(-16.228 -20.181)" fill="#aa2a2a"/>
      <path id="Path_8662" data-name="Path 8662" d="M12.46,12l2.757,2.757" transform="translate(0 -0.51)" fill="none" stroke="#fff" stroke-width="1"/>
      <path id="Path_8663" data-name="Path 8663" d="M15.217,12,12.46,14.753" transform="translate(0 -0.51)" fill="none" stroke="#fff" stroke-width="1"/>
    </g>
  </g>
</svg>
