<svg xmlns="http://www.w3.org/2000/svg" width="13.77" height="15.728" viewBox="0 0 13.77 15.728">
  <g id="_4172166_bill_cash_money_payment_receipt_icon" data-name="4172166_bill_cash_money_payment_receipt_icon" transform="translate(-3.025 -0.083)">
    <path id="Path_8659" data-name="Path 8659" d="M17.453,21.258v-.893a1.68,1.68,0,0,0,1.56-1.621c0-.789-.42-1.271-1.464-1.639-.745-.28-1.052-.465-1.052-.754,0-.246.184-.491.754-.491a2.9,2.9,0,0,1,1.262.3l.254-.991a3.157,3.157,0,0,0-1.271-.29v-.771h-.858v.832a1.619,1.619,0,0,0-1.481,1.56c0,.85.639,1.288,1.578,1.6.649.219.929.429.929.763,0,.35-.342.543-.842.543a3.1,3.1,0,0,1-1.455-.385l-.263,1.025a3.521,3.521,0,0,0,1.49.376v.832h.859Z" transform="translate(-8.115 -9.421)" fill="#01a221"/>
    <path id="Path_8660" data-name="Path 8660" d="M30.1,30.125a2.92,2.92,0,1,0,2.92,2.92A2.92,2.92,0,0,0,30.1,30.125Zm1.146,3.061-1.65,1.65h0l-.092.092h0l-.206-.206h0l-1.342-1.342.7-.742.977.916,1.044-1h0l1-1,.575.636Z" transform="translate(-16.228 -20.181)" fill="#01a221"/>
    <path id="Path_8661" data-name="Path 8661" d="M8.535,14.214H4.59V6.339h.005V1.653h6.281V4.008h2.355V8.951a4,4,0,0,1,.644-.057,3.947,3.947,0,0,1,.926.113V3.167L11.717.083H3.025v15.7H8.536v.027h2.687a3.966,3.966,0,0,1-1.077-1.6Z" fill="#01a221"/>
  </g>
</svg>
