<svg xmlns="http://www.w3.org/2000/svg" width="12.428" height="12.428" viewBox="0 0 12.428 12.428">
  <g id="_176267_pin_icon" data-name="176267_pin_icon" transform="translate(-6.942 -6.056)">
    <path id="Path_8651" data-name="Path 8651" d="M306.975,10.942,303.4,7.367a.872.872,0,0,1,0-1.073.743.743,0,0,1,1.073,0l3.575,3.576a.743.743,0,0,1,0,1.073A.891.891,0,0,1,306.975,10.942Z" transform="translate(-288.917 0)" fill="#486dc1"/>
    <path id="Path_8652" data-name="Path 8652" d="M209.254,41.512s-1.43-.358-1.967.179l-2.324,2.324-2.5-2.5,2.324-2.324c.536-.536.179-1.967.179-1.967Z" transform="translate(-190.66 -30.391)" fill="#486dc1"/>
    <path id="Path_8653" data-name="Path 8653" d="M78.709,194.526l-5.721-5.721a.892.892,0,0,1,.894-.536c.715,0,2.145.715,2.86,0l2.5,2.5c-.715.715,0,2.145,0,2.86A.892.892,0,0,1,78.709,194.526Z" transform="translate(-64.405 -177.684)" fill="#486dc1"/>
    <path id="Path_8654" data-name="Path 8654" d="M6.975,315.366c-.357-.358,2.324-3.039,2.324-3.039l1.788-1.788.715.715-1.788,1.788S7.332,315.723,6.975,315.366Z" transform="translate(0 -296.915)" fill="#486dc1"/>
  </g>
</svg>
