<svg xmlns="http://www.w3.org/2000/svg" width="12" height="11.409" viewBox="0 0 12 11.409">
  <path id="_4162081_star_rate_rating_favorite_award_icon" data-name="4162081_star_rate_rating_favorite_award_icon" d="M11.948,5.068a.366.366,0,0,0-.3-.264l-3.7-.529L6.246.989A.4.4,0,0,0,5.906.8h0a.363.363,0,0,0-.34.227L3.942,4.274.279,4.841a.366.366,0,0,0-.3.264.342.342,0,0,0,.113.378L2.734,8.089l-.566,3.663a.386.386,0,0,0,.151.378.4.4,0,0,0,.227.076.34.34,0,0,0,.189-.038l3.286-1.7,3.286,1.7a.347.347,0,0,0,.378-.038.359.359,0,0,0,.151-.378l-.6-3.663,2.606-2.606A.426.426,0,0,0,11.948,5.068Z" transform="translate(0.037 -0.8)" fill="#f7ad2e"/>
</svg>
