<svg xmlns="http://www.w3.org/2000/svg" width="13.842" height="13.21" viewBox="0 0 13.842 13.21">
  <g id="_4162081_star_rate_rating_favorite_award_icon" data-name="4162081_star_rate_rating_favorite_award_icon" transform="translate(0.507 0.5)">
    <path id="_4162081_star_rate_rating_favorite_award_icon-2" data-name="4162081_star_rate_rating_favorite_award_icon" d="M12.777,5.363a.391.391,0,0,0-.323-.283L8.5,4.515,6.68,1A.424.424,0,0,0,6.317.8h0a.388.388,0,0,0-.363.242L4.217,4.515.3,5.12A.391.391,0,0,0-.022,5.4a.365.365,0,0,0,.121.4L2.925,8.593,2.32,12.51a.413.413,0,0,0,.162.4.433.433,0,0,0,.242.081.364.364,0,0,0,.2-.04l3.513-1.817,3.513,1.817a.371.371,0,0,0,.4-.04.384.384,0,0,0,.162-.4L9.87,8.593l2.786-2.786A.456.456,0,0,0,12.777,5.363Z" transform="translate(0.037 -0.8)" fill="#fff" stroke="#cecece" stroke-width="1"/>
  </g>
</svg>
