<svg xmlns="http://www.w3.org/2000/svg" width="10.13" height="12.301" viewBox="0 0 10.13 12.301">
  <g id="_515494_approval_permission_seal_rubber_stamp_stamp_icon" data-name="515494_approval_permission_seal_rubber stamp_stamp_icon" transform="translate(-4.5 -24.5)">
    <path id="Path_8656" data-name="Path 8656" d="M11.394,32.46c0-2.894,1.447-4.342,1.447-5.789a2.171,2.171,0,0,0-4.342,0c0,1.447,1.447,2.894,1.447,5.789Z" transform="translate(-1.106)" fill="#486dc1"/>
    <path id="Path_8657" data-name="Path 8657" d="M13.907,38.671a.726.726,0,0,0,.724-.724v-.724a.726.726,0,0,0-.724-.724H5.224a.726.726,0,0,0-.724.724v.724a.726.726,0,0,0,.724.724Z" transform="translate(0 -3.317)" fill="#486dc1"/>
    <path id="Path_8658" data-name="Path 8658" d="M14.183,40.862a.362.362,0,0,0-.362-.362H5.862a.362.362,0,1,0,0,.724h7.96A.362.362,0,0,0,14.183,40.862Z" transform="translate(-0.276 -4.422)" fill="#486dc1"/>
  </g>
</svg>
