<svg xmlns="http://www.w3.org/2000/svg" width="12" height="10.879" viewBox="0 0 12 10.879">
  <path id="_170011_alert_attention_error_message_warning_icon" data-name="170011_alert_attention_error_message_warning_icon" d="M15.976,15.929l-4.709-8.3a1.291,1.291,0,0,0-2.246,0l-4.709,8.3a1.291,1.291,0,0,0,1.123,1.929h9.417a1.292,1.292,0,0,0,1.123-1.929Zm-5.189.4a.815.815,0,0,1-.556.211.836.836,0,0,1-.563-.209.744.744,0,0,1-.246-.59.792.792,0,0,1,.8-.795.791.791,0,0,1,.571.231.762.762,0,0,1,.238.563A.751.751,0,0,1,10.787,16.334ZM11,10.991l-.205,2.349a1.891,1.891,0,0,1-.151.673.46.46,0,0,1-.438.271.446.446,0,0,1-.434-.266,2.213,2.213,0,0,1-.15-.687l-.153-2.286c-.029-.452-.043-.767-.043-.964a.952.952,0,0,1,.23-.675.8.8,0,0,1,.607-.248.629.629,0,0,1,.624.331,1.981,1.981,0,0,1,.147.855A6.188,6.188,0,0,1,11,10.991Z" transform="translate(-4.144 -6.979)" fill="#f7ad2e"/>
</svg>
