<svg width="25" height="25" viewBox="0 0 25 25" fill="none" xmlns="http://www.w3.org/2000/svg">
<path d="M14.8267 0H0V24.0482H14.8267V0ZM6.69011 19.4827H5.1532V16.6801H6.69011V19.4827ZM6.69011 13.8323H5.1532V11.0296H6.69011V13.8323ZM6.69011 8.22703H5.1532V5.42441H6.69011V8.22703ZM11.3461 19.4827H9.80915V16.6801H11.3461V19.4827ZM11.3461 13.8323H9.80915V11.0296H11.3461V13.8323ZM11.3461 8.22703H9.80915V5.42441H11.3461V8.22703Z" fill="#3D4148"/>
<path d="M24.9998 21.011V9.8457H16.0947V24.0396H21.9712C23.6437 24.0396 24.9998 22.6835 24.9998 21.011ZM21.5643 19.5192H18.5809V18.0275H21.5643V19.5192ZM21.5643 15.7674H18.5809V14.2304H21.5643V15.7674Z" fill="#3D4148"/>
</svg>
