<svg xmlns="http://www.w3.org/2000/svg" width="23.465" height="21.273" viewBox="0 0 23.465 21.273">
  <path id="_170011_alert_attention_error_message_warning_icon" data-name="170011_alert_attention_error_message_warning_icon" d="M27.281,24.481,18.072,8.257a2.525,2.525,0,0,0-4.392,0L4.473,24.481a2.525,2.525,0,0,0,2.2,3.772H25.084a2.526,2.526,0,0,0,2.2-3.772Zm-10.146.791a1.593,1.593,0,0,1-1.088.413,1.634,1.634,0,0,1-1.1-.408,1.455,1.455,0,0,1-.481-1.154,1.549,1.549,0,0,1,1.563-1.554,1.547,1.547,0,0,1,1.117.452,1.491,1.491,0,0,1,.465,1.1A1.469,1.469,0,0,1,17.135,25.271Zm.409-10.446-.4,4.594a3.7,3.7,0,0,1-.3,1.316.9.9,0,0,1-.856.53.871.871,0,0,1-.849-.52,4.328,4.328,0,0,1-.294-1.344l-.3-4.471c-.056-.883-.084-1.5-.084-1.885a1.862,1.862,0,0,1,.45-1.319,1.56,1.56,0,0,1,1.188-.486,1.231,1.231,0,0,1,1.22.647,3.875,3.875,0,0,1,.287,1.671A12.1,12.1,0,0,1,17.543,14.825Z" transform="translate(-4.144 -6.979)" fill="#546071"/>
</svg>
