<svg id="_1177234_audit_auto_car_checklist_diagnostic_icon" data-name="1177234_audit_auto_car_checklist_diagnostic_icon" xmlns="http://www.w3.org/2000/svg" width="15" height="14" viewBox="0 0 15 14">
  <g id="_174114_browser_checkbox_ok_tick_web_icon" data-name="174114_browser_checkbox_ok_tick_web_icon" transform="translate(-16 -31.998)">
    <path id="Path_8678" data-name="Path 8678" d="M28.5,38.192V44.5A1.5,1.5,0,0,1,27,46H17.5A1.5,1.5,0,0,1,16,44.5v-9A1.5,1.5,0,0,1,17.5,34h8.874L24.5,36H18.25a.25.25,0,0,0-.25.25v7.5a.25.25,0,0,0,.25.25h8a.25.25,0,0,0,.25-.25V40.873Zm2.057-4.429c.49-.727.675-.887.019-1.411s-.858-.467-1.391.177l-6.221,6.64-2.09-1.643c-.643-.505-.829-.734-1.477-.2s-.423.737.1,1.518c.234.351,2.164,3.136,3.052,4.417a.565.565,0,0,0,.912.015Z" transform="translate(0 0)" fill="#0747a6"/>
  </g>
</svg>
