<svg id="_170011_alert_attention_error_message_warning_icon" data-name="170011_alert_attention_error_message_warning_icon" xmlns="http://www.w3.org/2000/svg" width="15" height="13.599" viewBox="0 0 15 13.599">
  <path id="_170011_alert_attention_error_message_warning_icon-2" data-name="170011_alert_attention_error_message_warning_icon" d="M18.934,18.167,13.047,7.8a1.614,1.614,0,0,0-2.807,0L4.354,18.167a1.614,1.614,0,0,0,1.4,2.411H17.53a1.614,1.614,0,0,0,1.4-2.411Zm-6.486.506a1.018,1.018,0,0,1-.7.264,1.045,1.045,0,0,1-.7-.261.93.93,0,0,1-.308-.738.99.99,0,0,1,1-.993.989.989,0,0,1,.714.289.953.953,0,0,1,.3.7A.939.939,0,0,1,12.448,18.672Zm.261-6.678-.256,2.937a2.364,2.364,0,0,1-.189.841.575.575,0,0,1-.547.339.557.557,0,0,1-.543-.333,2.767,2.767,0,0,1-.188-.859L10.8,12.062c-.036-.565-.054-.959-.054-1.2a1.19,1.19,0,0,1,.288-.843,1,1,0,0,1,.759-.31.787.787,0,0,1,.78.414,2.477,2.477,0,0,1,.183,1.068A7.735,7.735,0,0,1,12.709,11.995Z" transform="translate(-4.144 -6.979)" fill="#0747a6"/>
</svg>
