<svg id="Component_523_7" data-name="Component 523 – 7" xmlns="http://www.w3.org/2000/svg" width="30" height="30" viewBox="0 0 30 30">
  <rect id="Rectangle_4087" data-name="Rectangle 4087" width="30" height="30" rx="2" fill="#f1f2f4"/>
  <g id="_192090_external_go_to_hyperlink_link_new_tab_icon" data-name="192090_external_go to_hyperlink_link_new tab_icon" transform="translate(9.5 9.5)">
    <path id="Path_9305" data-name="Path 9305" d="M11.537,5.278,9.859,3.6,6.184,7.276c-.635.635-1.258,1.041-1.892.406S4.064,6.425,4.7,5.791L8.374,2.115,6.722.462A.582.582,0,0,1,7.2-.5h4.332A.963.963,0,0,1,12.5.462V4.8A.582.582,0,0,1,11.537,5.278Zm-10.412,5.6H9.25V6.1l1.625,1.625v3.153A1.624,1.624,0,0,1,9.25,12.5H1.125A1.624,1.624,0,0,1-.5,10.875V2.75A1.625,1.625,0,0,1,1.125,1.125H4.278L5.9,2.75H1.125Z"/>
  </g>
</svg>
