<svg width="5" height="9" viewBox="0 0 5 9" fill="none" xmlns="http://www.w3.org/2000/svg">
<path d="M0.271986 1.04347L0.272348 1.04311C0.376892 0.937703 0.518897 0.877945 0.667353 0.876885C0.81565 0.875826 0.958347 0.933424 1.06435 1.03712C1.06447 1.03723 1.06458 1.03734 1.06469 1.03745L4.12397 4.09673C4.34492 4.31768 4.34492 4.67436 4.12397 4.89531L1.06397 7.95531C0.958072 8.06121 0.814443 8.1207 0.66468 8.1207C0.514918 8.1207 0.371289 8.06121 0.265391 7.95531C0.159493 7.84941 0.1 7.70579 0.1 7.55602C0.1 7.40626 0.159493 7.26263 0.265391 7.15673L2.85206 4.57007L2.92268 4.49945L2.85215 4.42874L0.272149 1.84207L0.271986 1.84191C0.219491 1.78952 0.177843 1.72729 0.149427 1.65879C0.121011 1.59029 0.106385 1.51685 0.106385 1.44269C0.106385 1.36853 0.121011 1.29509 0.149427 1.22659C0.177843 1.15808 0.219491 1.09586 0.271986 1.04347Z" fill="#6C737F" stroke="#FAFAFA" stroke-width="0.2"/>
</svg>
