<svg xmlns="http://www.w3.org/2000/svg" width="11" height="11" viewBox="0 0 11 11">
  <g id="Time" transform="translate(-2 -2)">
    <path id="Path_8362" data-name="Path 8362" d="M11.35,3.1H10.8V2.55a.55.55,0,1,0-1.1,0V3.1H5.3V2.55a.55.55,0,1,0-1.1,0V3.1H3.65A1.65,1.65,0,0,0,2,4.75V5.3H13V4.75A1.65,1.65,0,0,0,11.35,3.1Z" transform="translate(0)" fill="#616a77"/>
    <path id="Path_8363" data-name="Path 8363" d="M2,14.95A1.65,1.65,0,0,0,3.65,16.6h7.7A1.65,1.65,0,0,0,13,14.95V10H2ZM9.975,11.1h.55a.55.55,0,1,1,0,1.1h-.55a.55.55,0,0,1,0-1.1Zm0,1.65h.55a.55.55,0,1,1,0,1.1h-.55a.55.55,0,0,1,0-1.1Zm0,1.65h.55a.55.55,0,1,1,0,1.1h-.55a.55.55,0,0,1,0-1.1Zm-2.75-3.3h.55a.55.55,0,0,1,0,1.1h-.55a.55.55,0,1,1,0-1.1Zm0,1.65h.55a.55.55,0,0,1,0,1.1h-.55a.55.55,0,0,1,0-1.1Zm0,1.65h.55a.55.55,0,1,1,0,1.1h-.55a.55.55,0,1,1,0-1.1Zm-2.75-3.3h.55a.55.55,0,1,1,0,1.1h-.55a.55.55,0,0,1,0-1.1Zm0,1.65h.55a.55.55,0,0,1,0,1.1h-.55a.55.55,0,0,1,0-1.1Zm0,1.65h.55a.55.55,0,1,1,0,1.1h-.55a.55.55,0,1,1,0-1.1Z" transform="translate(0 -3.6)" fill="#616a77"/>
  </g>
</svg>
