<svg width="25" height="25" viewBox="0 0 25 25" fill="none" xmlns="http://www.w3.org/2000/svg">
<path d="M12.5 1.5625C6.45996 1.5625 1.5625 6.45996 1.5625 12.5C1.5625 18.54 6.45996 23.4375 12.5 23.4375C18.54 23.4375 23.4375 18.54 23.4375 12.5C23.4375 6.45996 18.54 1.5625 12.5 1.5625ZM12.5 21.582C7.48535 21.582 3.41797 17.5146 3.41797 12.5C3.41797 7.48535 7.48535 3.41797 12.5 3.41797C17.5146 3.41797 21.582 7.48535 21.582 12.5C21.582 17.5146 17.5146 21.582 12.5 21.582Z" fill="#0010A2"/>
<path d="M12.5 3.41797C7.48535 3.41797 3.41797 7.48535 3.41797 12.5C3.41797 17.5146 7.48535 21.582 12.5 21.582C17.5146 21.582 21.582 17.5146 21.582 12.5C21.582 7.48535 17.5146 3.41797 12.5 3.41797ZM16.6943 16.2866C16.7236 16.3232 16.7407 16.3672 16.7407 16.4136C16.7407 16.5234 16.6528 16.6089 16.5454 16.6089L14.9341 16.6016L12.5098 13.7109L10.0854 16.604L8.47168 16.6113C8.36426 16.6113 8.27637 16.5234 8.27637 16.416C8.27637 16.3696 8.29346 16.3257 8.32275 16.2891L11.499 12.5073L8.32275 8.72314C8.29325 8.68736 8.27688 8.64256 8.27637 8.59619C8.27637 8.48633 8.36426 8.40088 8.47168 8.40088L10.0854 8.4082L12.5098 11.2988L14.9365 8.40576L16.5479 8.39844C16.6553 8.39844 16.7432 8.48633 16.7432 8.59375C16.7432 8.64014 16.7285 8.68652 16.6992 8.7207L13.5229 12.5049L16.6943 16.2866V16.2866Z" fill="black" fill-opacity="0.15"/>
<path d="M16.7432 8.59375C16.7432 8.48633 16.6553 8.39844 16.5479 8.39844L14.9365 8.40576L12.5098 11.2988L10.0854 8.4082L8.47168 8.40088C8.36426 8.40088 8.27637 8.48633 8.27637 8.59619C8.27637 8.64258 8.29346 8.68652 8.32275 8.72314L11.499 12.5073L8.32275 16.2891C8.29325 16.3248 8.27688 16.3696 8.27637 16.416C8.27637 16.5234 8.36426 16.6113 8.47168 16.6113L10.0854 16.604L12.5098 13.7109L14.9341 16.6016L16.5454 16.6089C16.6528 16.6089 16.7407 16.5234 16.7407 16.4136C16.7407 16.3672 16.7236 16.3232 16.6943 16.2866L13.5229 12.5049L16.6992 8.7207C16.7285 8.68652 16.7432 8.64014 16.7432 8.59375V8.59375Z" fill="#0010A1"/>
</svg>
