<svg id="Group_11235" data-name="Group 11235" xmlns="http://www.w3.org/2000/svg" width="30" height="30" viewBox="0 0 30 30">
  <circle id="Ellipse_115" data-name="Ellipse 115" cx="15" cy="15" r="15" fill="#d92121" opacity="0.1"/>
  <g id="_3194790_ambulance_emergency_siren_icon" data-name="3194790_ambulance_emergency_siren_icon" transform="translate(6.5 4.612)">
    <path id="Path_8775" data-name="Path 8775" d="M15.924,19.165h-.2V15.512a2.547,2.547,0,0,0-2.544-2.543h-2.32A2.547,2.547,0,0,0,8.32,15.512v3.653h-.2a1.017,1.017,0,0,0-1.017,1.017v.976h9.836v-.976A1.017,1.017,0,0,0,15.924,19.165ZM9.337,15.512a1.529,1.529,0,0,1,1.527-1.526h2.32a1.529,1.529,0,0,1,1.527,1.526v3.653H12.935V16.558a.912.912,0,0,0-1.823,0v2.607H9.337Z" transform="translate(-3.147 -4.088)"/>
    <path id="Path_8776" data-name="Path 8776" d="M16.075,7.246a.466.466,0,0,0,.466-.466V4.854a.467.467,0,0,0-.934,0V6.779A.468.468,0,0,0,16.075,7.246Z" transform="translate(-7.198)"/>
    <path id="Path_8777" data-name="Path 8777" d="M6.422,10.971a.466.466,0,0,0,.66-.66L5.72,8.951a.466.466,0,0,0-.66.66Z" transform="translate(-2.108 -2.109)"/>
    <path id="Path_8778" data-name="Path 8778" d="M2.89,19.5H.966a.466.466,0,0,0,0,.933H2.891a.466.466,0,1,0,0-.933Z" transform="translate(0 -7.199)"/>
    <path id="Path_8779" data-name="Path 8779" d="M24.49,10.971,25.85,9.61a.466.466,0,0,0-.66-.66l-1.36,1.361a.466.466,0,1,0,.66.66Z" transform="translate(-11.051 -2.109)"/>
    <path id="Path_8780" data-name="Path 8780" d="M29.433,19.5H27.508a.466.466,0,1,0,0,.933h1.924a.466.466,0,1,0,0-.933Z" transform="translate(-12.646 -7.199)"/>
  </g>
</svg>
