<svg xmlns="http://www.w3.org/2000/svg" width="30" height="30" viewBox="0 0 30 30">
  <g id="Group_11240" data-name="Group 11240" transform="translate(0 -0.25)">
    <circle id="Ellipse_115" data-name="Ellipse 115" cx="15" cy="15" r="15" transform="translate(0 0.25)" fill="#d92121" opacity="0.1"/>
    <g id="_2877930_call_emergency_help_phone_sos_icon" data-name="2877930_call_emergency_help_phone_sos_icon" transform="translate(8 10.25)">
      <path id="Path_8615" data-name="Path 8615" d="M11.875,9.525a5.332,5.332,0,0,1-1.721-.282.741.741,0,0,0-.765.166L8.3,10.253a6.09,6.09,0,0,1-2.7-2.777L6.4,6.387A.821.821,0,0,0,6.6,5.573,5.809,5.809,0,0,1,6.321,3.8.787.787,0,0,0,5.546,3H3.774A.787.787,0,0,0,3,3.8a9.023,9.023,0,0,0,8.875,9.144.787.787,0,0,0,.774-.8V10.323A.787.787,0,0,0,11.875,9.525Z" transform="translate(-3 -3)"/>
      <path id="Path_8616" data-name="Path 8616" d="M12.154,6.076h-.769a.385.385,0,0,0,0,.769h.769a1.154,1.154,0,0,0,0-2.307.385.385,0,0,1,0-.769h.769a.385.385,0,0,0,0-.769h-.769a1.154,1.154,0,0,0,0,2.307.385.385,0,0,1,0,.769Z" transform="translate(-5.09 -3)"/>
      <path id="Path_8617" data-name="Path 8617" d="M19.154,4.538a.385.385,0,0,1,0-.769h.769a.385.385,0,0,0,0-.769h-.769a1.154,1.154,0,0,0,0,2.307.385.385,0,1,1,0,.769h-.769a.385.385,0,0,0,0,.769h.769a1.154,1.154,0,0,0,0-2.307Z" transform="translate(-6.918 -3)"/>
      <path id="Path_8618" data-name="Path 8618" d="M15.654,6.845a1.155,1.155,0,0,0,1.154-1.154V4.154a1.154,1.154,0,0,0-2.307,0V5.692A1.155,1.155,0,0,0,15.654,6.845Zm-.385-2.692a.385.385,0,1,1,.769,0V5.692a.385.385,0,0,1-.769,0Z" transform="translate(-6.004 -3)"/>
    </g>
  </g>
</svg>
