<svg id="Component_274_412" data-name="Component 274 – 412" xmlns="http://www.w3.org/2000/svg" width="16" height="16" viewBox="0 0 16 16">
  <circle id="Ellipse_84" data-name="Ellipse 84" cx="8" cy="8" r="8" fill="#444f5f"/>
  <g id="_2639798_copy_icon" data-name="2639798_copy_icon" transform="translate(4.2 3.25)">
    <path id="Path_9049" data-name="Path 9049" d="M6.541,13.171a1.453,1.453,0,0,1-1.452-1.452V7H4.726A.726.726,0,0,0,4,7.726v5.808a.726.726,0,0,0,.726.726H9.445a.726.726,0,0,0,.726-.726v-.363Z" transform="translate(-4 -5.185)" fill="#fff"/>
    <path id="Path_9050" data-name="Path 9050" d="M15.065,4.1l-2-2A.363.363,0,0,0,12.811,2H9.726A.726.726,0,0,0,9,2.726V8.534a.726.726,0,0,0,.726.726h4.719a.726.726,0,0,0,.726-.726V4.359A.363.363,0,0,0,15.065,4.1Zm-2.072.438a.363.363,0,0,1-.363-.363V2.691l1.85,1.85Z" transform="translate(-7.185 -2)" fill="#fff"/>
  </g>
</svg>
