<svg id="Component_272_314" data-name="Component 272 – 314" xmlns="http://www.w3.org/2000/svg" width="17" height="17" viewBox="0 0 17 17">
  <g id="_352521_location_on_icon" data-name="352521_location_on_icon" opacity="0.8">
    <path id="Path_111" data-name="Path 111" d="M0,0H17V17H0Z" fill="none"/>
  </g>
  <g id="_2639798_copy_icon" data-name="2639798_copy_icon" transform="translate(4 2)">
    <path id="Path_8589" data-name="Path 8589" d="M7.182,14.727a1.82,1.82,0,0,1-1.818-1.818V7H4.909A.909.909,0,0,0,4,7.909v7.273a.909.909,0,0,0,.909.909h5.909a.909.909,0,0,0,.909-.909v-.455Z" transform="translate(-4 -4.727)" fill="#616a77"/>
    <path id="Path_8590" data-name="Path 8590" d="M16.594,4.633l-2.5-2.5A.454.454,0,0,0,13.773,2H9.909A.909.909,0,0,0,9,2.909v7.273a.909.909,0,0,0,.909.909h5.909a.909.909,0,0,0,.909-.909V4.955A.454.454,0,0,0,16.594,4.633ZM14,5.182a.455.455,0,0,1-.455-.455V2.865l2.316,2.316Z" transform="translate(-6.727 -2)" fill="#616a77"/>
  </g>
</svg>
