<svg width="3" height="13" viewBox="0 0 3 13" fill="none" xmlns="http://www.w3.org/2000/svg">
<path d="M1.5 3.5C2.32843 3.5 3 2.82843 3 2C3 1.17157 2.32843 0.5 1.5 0.5C0.671573 0.5 0 1.17157 0 2C0 2.82843 0.671573 3.5 1.5 3.5Z" fill="#25282C"/>
<path d="M1.5 8C2.32843 8 3 7.32843 3 6.5C3 5.67157 2.32843 5 1.5 5C0.671573 5 0 5.67157 0 6.5C0 7.32843 0.671573 8 1.5 8Z" fill="#25282C"/>
<path d="M1.5 12.5C2.32843 12.5 3 11.8284 3 11C3 10.1716 2.32843 9.5 1.5 9.5C0.671573 9.5 0 10.1716 0 11C0 11.8284 0.671573 12.5 1.5 12.5Z" fill="#25282C"/>
</svg>
