<svg xmlns="http://www.w3.org/2000/svg" width="13.493" height="13.493" viewBox="0 0 13.493 13.493">
  <g id="Layer_31" data-name="Layer 31" transform="translate(-5.054 -5.055)">
    <path id="Path_8482" data-name="Path 8482" d="M18.409,12.184a.536.536,0,0,0,.092-.148.616.616,0,0,0,0-.468.462.462,0,0,0-.092-.148.148.148,0,0,0-.037-.049h0L16.553,9.521a.616.616,0,1,0-.875.863l.783.8H12.417V7.141l.8.783a.617.617,0,0,0,.869-.875L12.239,5.231h0a.148.148,0,0,0-.049-.037.462.462,0,0,0-.148-.092.616.616,0,0,0-.468,0,.536.536,0,0,0-.148.092.148.148,0,0,0-.049.037h0L9.527,7.049a.616.616,0,1,0,.863.875l.8-.783v4.044H7.141l.783-.8a.616.616,0,1,0-.875-.863L5.23,11.37a.616.616,0,0,0,0,.863l1.818,1.849a.615.615,0,0,0,.875-.863l-.783-.8h4.044v4.044l-.8-.783a.616.616,0,0,0-.863.875l1.849,1.818a.616.616,0,0,0,.863,0l1.849-1.818a.616.616,0,0,0-.863-.875l-.8.783V12.418h4.044l-.783.8a.615.615,0,1,0,.875.863l1.818-1.849h0a.148.148,0,0,0,.037-.049Z" transform="translate(0 0)" fill="#fff"/>
  </g>
</svg>
