<svg xmlns="http://www.w3.org/2000/svg" width="8.671" height="8.669" viewBox="0 0 8.671 8.669">
  <path id="_173341_edit_pencil_icon" data-name="173341_edit_pencil_icon" d="M11.381,5.319l-.6.6a.29.29,0,0,1-.409,0L8.733,4.286a.29.29,0,0,1,0-.41l.6-.6a.928.928,0,0,1,1.309,0l.736.737A.928.928,0,0,1,11.381,5.319ZM10,6.7,5.62,11.08a1.113,1.113,0,0,1-.644.326l-1.729.264a.232.232,0,0,1-.264-.264l.265-1.728a1.113,1.113,0,0,1,.326-.643L7.952,4.657a.29.29,0,0,1,.409,0L10,6.293A.29.29,0,0,1,10,6.7Z" transform="translate(-2.981 -3.003)" fill="#33373e" fill-rule="evenodd"/>
</svg>
