<svg width="12" height="13" viewBox="0 0 12 13" fill="none" xmlns="http://www.w3.org/2000/svg">
<path fill-rule="evenodd" clip-rule="evenodd" d="M6 0.5C9.31371 0.5 12 3.18629 12 6.5C12 9.81371 9.31371 12.5 6 12.5C2.68629 12.5 0 9.81371 0 6.5C0 3.18629 2.68629 0.5 6 0.5ZM6 8.39456C5.58579 8.39456 5.25 8.73035 5.25 9.14456C5.25 9.55877 5.58579 9.89456 6 9.89456C6.41421 9.89456 6.75 9.55877 6.75 9.14456C6.75 8.73035 6.41421 8.39456 6 8.39456ZM6 3.33379C5.65482 3.33379 5.375 3.61361 5.375 3.95879V7.11975C5.375 7.46493 5.65482 7.74475 6 7.74475C6.34518 7.74475 6.625 7.46493 6.625 7.11975V3.95879C6.625 3.61361 6.34518 3.33379 6 3.33379Z" fill="#FC2D2D"/>
</svg>
