<svg xmlns="http://www.w3.org/2000/svg" width="12.228" height="11.733" viewBox="0 0 12.228 11.733">
  <path id="Path_8642" data-name="Path 8642" d="M12.276,11.656l2.138-1.842a.832.832,0,0,0-.476-1.455L11.13,8.128a.822.822,0,0,1-.7-.5L9.353,5.037a.829.829,0,0,0-1.532,0l-1.082,2.6a.822.822,0,0,1-.7.5l-2.807.232a.832.832,0,0,0-.476,1.455L4.9,11.669a.859.859,0,0,1,.27.824l-.657,2.743a.83.83,0,0,0,1.236.9l2.408-1.468a.8.8,0,0,1,.863,0l2.408,1.442a.828.828,0,0,0,1.236-.9l-.657-2.743A.846.846,0,0,1,12.276,11.656Z" transform="translate(-2.473 -4.525)" fill="#f7ad2e"/>
</svg>
