<svg id="Group_11351" data-name="Group 11351" xmlns="http://www.w3.org/2000/svg" width="14.682" height="14.682" viewBox="0 0 14.682 14.682">
  <g id="normal_size_full_screen_full_resize_fit_to_page_select_fit" data-name="normal size, full screen, full, resize, fit to page, select, fit">
    <path id="Path_8671" data-name="Path 8671" d="M16.158,2H2.524A.524.524,0,0,0,2,2.524V16.158a.524.524,0,0,0,.524.524H16.158a.524.524,0,0,0,.524-.524V2.524A.524.524,0,0,0,16.158,2Zm-.524,13.633H3.049V3.049H15.633Z" transform="translate(-2 -2)" fill="#616a77"/>
    <path id="Path_8672" data-name="Path 8672" d="M19.524,7.049h2.1v2.1a.524.524,0,0,0,1.049,0V6.524A.524.524,0,0,0,22.146,6H19.524a.524.524,0,0,0,0,1.049Z" transform="translate(-10.086 -3.903)" fill="#616a77"/>
    <path id="Path_8673" data-name="Path 8673" d="M6.524,22.671H9.146a.524.524,0,0,0,0-1.049h-2.1v-2.1a.524.524,0,0,0-1.049,0v2.622A.524.524,0,0,0,6.524,22.671Z" transform="translate(-3.903 -10.086)" fill="#616a77"/>
    <path id="Path_8674" data-name="Path 8674" d="M6.524,9.671a.524.524,0,0,0,.524-.524v-2.1h2.1A.524.524,0,0,0,9.146,6H6.524A.524.524,0,0,0,6,6.524V9.146A.524.524,0,0,0,6.524,9.671Z" transform="translate(-3.903 -3.903)" fill="#616a77"/>
    <path id="Path_8675" data-name="Path 8675" d="M19.524,22.671h2.622a.524.524,0,0,0,.524-.524V19.524a.524.524,0,0,0-1.049,0v2.1h-2.1a.524.524,0,0,0,0,1.049Z" transform="translate(-10.086 -10.086)" fill="#616a77"/>
  </g>
</svg>
