<svg width="152" height="152" viewBox="0 0 152 152" fill="none" xmlns="http://www.w3.org/2000/svg">
<mask id="path-1-outside-1_564_4485" maskUnits="userSpaceOnUse" x="74" y="0" width="79" height="78" fill="black">
<rect fill="white" x="74" width="79" height="78"/>
<path d="M81.3552 1.19143C99.9449 2.52219 117.373 10.7267 130.244 24.2061C143.114 37.6855 150.505 55.4742 150.976 74.1055L76 76L81.3552 1.19143Z"/>
</mask>
<path d="M81.3552 1.19143C99.9449 2.52219 117.373 10.7267 130.244 24.2061C143.114 37.6855 150.505 55.4742 150.976 74.1055L76 76L81.3552 1.19143Z" fill="#ADE571"/>
<path d="M81.3552 1.19143C99.9449 2.52219 117.373 10.7267 130.244 24.2061C143.114 37.6855 150.505 55.4742 150.976 74.1055L76 76L81.3552 1.19143Z" stroke="#ECEDEF" stroke-width="2" mask="url(#path-1-outside-1_564_4485)"/>
<mask id="path-2-outside-2_564_4485" maskUnits="userSpaceOnUse" x="54" y="0" width="29" height="77" fill="black">
<rect fill="white" x="54" width="29" height="77"/>
<path d="M56.2021 3.66022C64.3458 1.43148 72.8073 0.593817 81.2298 1.18256L76 76L56.2021 3.66022Z"/>
</mask>
<path d="M56.2021 3.66022C64.3458 1.43148 72.8073 0.593817 81.2298 1.18256L76 76L56.2021 3.66022Z" fill="#FD6E61"/>
<path d="M56.2021 3.66022C64.3458 1.43148 72.8073 0.593817 81.2298 1.18256L76 76L56.2021 3.66022Z" stroke="#ECEDEF" stroke-width="2" mask="url(#path-2-outside-2_564_4485)"/>
<mask id="path-3-outside-3_564_4485" maskUnits="userSpaceOnUse" x="0" y="2" width="152" height="150" fill="black">
<rect fill="white" y="2" width="152" height="150"/>
<path d="M151 76C151 89.9916 147.086 103.704 139.701 115.588C132.316 127.471 121.753 137.052 109.208 143.247C96.6628 149.443 82.6347 152.005 68.7094 150.645C54.7841 149.285 41.5169 144.056 30.4075 135.551C19.298 127.046 10.7892 115.602 5.84294 102.514C0.896667 89.4258 -0.289886 75.2151 2.4174 61.4879C5.12468 47.7608 11.6179 35.0646 21.163 24.8346C30.7081 14.6045 42.9246 7.24843 56.4315 3.59784L76 76L151 76Z"/>
</mask>
<path d="M151 76C151 89.9916 147.086 103.704 139.701 115.588C132.316 127.471 121.753 137.052 109.208 143.247C96.6628 149.443 82.6347 152.005 68.7094 150.645C54.7841 149.285 41.5169 144.056 30.4075 135.551C19.298 127.046 10.7892 115.602 5.84294 102.514C0.896667 89.4258 -0.289886 75.2151 2.4174 61.4879C5.12468 47.7608 11.6179 35.0646 21.163 24.8346C30.7081 14.6045 42.9246 7.24843 56.4315 3.59784L76 76L151 76Z" fill="#4772E0"/>
<path d="M151 76C151 89.9916 147.086 103.704 139.701 115.588C132.316 127.471 121.753 137.052 109.208 143.247C96.6628 149.443 82.6347 152.005 68.7094 150.645C54.7841 149.285 41.5169 144.056 30.4075 135.551C19.298 127.046 10.7892 115.602 5.84294 102.514C0.896667 89.4258 -0.289886 75.2151 2.4174 61.4879C5.12468 47.7608 11.6179 35.0646 21.163 24.8346C30.7081 14.6045 42.9246 7.24843 56.4315 3.59784L76 76L151 76Z" stroke="#ECEDEF" stroke-width="2" mask="url(#path-3-outside-3_564_4485)"/>
<mask id="path-4-outside-4_564_4485" maskUnits="userSpaceOnUse" x="75" y="66" width="77" height="11" fill="black">
<rect fill="white" x="75" y="66" width="77" height="11"/>
<path d="M151 76C151 73.2793 150.852 70.5606 150.557 67.8559L76 76H151Z"/>
</mask>
<path d="M151 76C151 73.2793 150.852 70.5606 150.557 67.8559L76 76H151Z" fill="#91B3F5"/>
<path d="M151 76C151 73.2793 150.852 70.5606 150.557 67.8559L76 76H151Z" stroke="#ECEDEF" stroke-width="2" mask="url(#path-4-outside-4_564_4485)"/>
</svg>
