<svg width="17" height="17" viewBox="0 0 17 17" fill="none" xmlns="http://www.w3.org/2000/svg">
<path d="M8.4575 13.6C8.755 13.6 9.0066 13.4971 9.2123 13.2914C9.418 13.0857 9.52057 12.8344 9.52 12.5375C9.52 12.24 9.41743 11.9884 9.2123 11.7827C9.00717 11.577 8.75557 11.4744 8.4575 11.475C8.16 11.475 7.90868 11.5778 7.70355 11.7835C7.49842 11.9892 7.39557 12.2406 7.395 12.5375C7.395 12.835 7.49785 13.0866 7.70355 13.2923C7.90925 13.498 8.16057 13.6006 8.4575 13.6ZM8.585 4.845C8.98167 4.845 9.30042 4.95465 9.54125 5.17395C9.78208 5.39325 9.9025 5.68027 9.9025 6.035C9.9025 6.27583 9.82118 6.52007 9.65855 6.7677C9.49592 7.01533 9.26557 7.27402 8.9675 7.54375C8.5425 7.91208 8.23083 8.26625 8.0325 8.60625C7.83417 8.94625 7.735 9.28625 7.735 9.62625C7.735 9.82458 7.80952 9.99118 7.95855 10.126C8.10758 10.2609 8.28098 10.3281 8.47875 10.3275C8.67708 10.3275 8.85417 10.2567 9.01 10.115C9.16583 9.97333 9.265 9.79625 9.3075 9.58375C9.35 9.34292 9.44577 9.11965 9.5948 8.91395C9.74383 8.70825 9.98807 8.44277 10.3275 8.1175C10.7667 7.70667 11.0749 7.33125 11.2523 6.99125C11.4297 6.65125 11.5181 6.27583 11.5175 5.865C11.5175 5.1425 11.2446 4.55118 10.6989 4.09105C10.1532 3.63092 9.4486 3.40057 8.585 3.4C7.99 3.4 7.46243 3.51333 7.0023 3.74C6.54217 3.96667 6.18432 4.31375 5.92875 4.78125C5.82958 4.96542 5.79417 5.14618 5.8225 5.32355C5.85083 5.50092 5.95 5.64598 6.12 5.75875C6.30417 5.87208 6.50618 5.9075 6.72605 5.865C6.94592 5.8225 7.1264 5.70208 7.2675 5.50375C7.42333 5.29125 7.6109 5.12833 7.8302 5.015C8.0495 4.90167 8.3011 4.845 8.585 4.845ZM8.5 17C7.33833 17 6.24042 16.7767 5.20625 16.3302C4.17208 15.8837 3.26882 15.2782 2.49645 14.5137C1.72465 13.7487 1.11548 12.8492 0.668951 11.815C0.222418 10.7808 -0.000565589 9.67583 1.07731e-06 8.5C1.07731e-06 7.32417 0.223268 6.21917 0.669801 5.185C1.11633 4.15083 1.7255 3.25125 2.4973 2.48625C3.2691 1.72125 4.1718 1.11577 5.2054 0.6698C6.239 0.223833 7.3372 0.000566667 8.5 0C9.69 0 10.8021 0.223267 11.8362 0.6698C12.8704 1.11633 13.77 1.72182 14.535 2.48625C15.3 3.25125 15.9021 4.15083 16.3412 5.185C16.7804 6.21917 17 7.32417 17 8.5C17 9.67583 16.7804 10.7808 16.3412 11.815C15.9021 12.8492 15.3 13.7487 14.535 14.5137C13.77 15.2787 12.8704 15.8845 11.8362 16.331C10.8021 16.7776 9.69 17.0006 8.5 17ZM8.5 15.3C10.3983 15.3 12.0062 14.6378 13.3237 13.3135C14.6412 11.9892 15.3 10.3847 15.3 8.5C15.3 6.61583 14.6412 5.01132 13.3237 3.68645C12.0062 2.36158 10.3983 1.69943 8.5 1.7C6.64417 1.7 5.04673 2.36215 3.7077 3.68645C2.36867 5.01075 1.69943 6.61527 1.7 8.5C1.7 10.3842 2.36952 11.9887 3.70855 13.3135C5.04758 14.6384 6.64473 15.3006 8.5 15.3Z" fill="white"/>
</svg>
