<svg xmlns="http://www.w3.org/2000/svg" width="10.427" height="10.427" viewBox="0 0 10.427 10.427">
  <g id="_192090_external_go_to_hyperlink_link_new_tab_icon" data-name="192090_external_go to_hyperlink_link_new tab_icon" transform="translate(0.5 0.5)">
    <path id="Path_8697" data-name="Path 8697" d="M9.155,4.134,7.809,2.789,4.861,5.737c-.509.509-1.009.835-1.517.326s-.183-1.008.326-1.517L6.618,1.6,5.293.272A.467.467,0,0,1,5.68-.5H9.155a.772.772,0,0,1,.773.772V3.748A.467.467,0,0,1,9.155,4.134ZM.8,8.624H7.32V4.791l1.3,1.3V8.624a1.3,1.3,0,0,1-1.3,1.3H.8a1.3,1.3,0,0,1-1.3-1.3V2.107A1.3,1.3,0,0,1,.8.8H3.333l1.3,1.3H.8Z" fill="#33373e"/>
  </g>
</svg>
