<svg xmlns="http://www.w3.org/2000/svg" width="12" height="8.606" viewBox="0 0 12 8.606">
  <g id="Group_12444" data-name="Group 12444" transform="translate(-2.5 -15.9)">
    <path id="Path_8978" data-name="Path 8978" d="M8.494,42.3a1.737,1.737,0,0,1-.707-.151L2.5,39.8v4.959a.625.625,0,0,0,.631.631H13.856a.625.625,0,0,0,.631-.631V39.8L9.2,42.147A1.737,1.737,0,0,1,8.494,42.3Z" transform="translate(0 -20.884)" fill="#616a77"/>
    <path id="Path_8979" data-name="Path 8979" d="M13.856,15.9H3.131a.625.625,0,0,0-.631.631v.77a.638.638,0,0,0,.379.58l5.363,2.372a.618.618,0,0,0,.517,0l5.363-2.385a.638.638,0,0,0,.379-.58v-.77A.641.641,0,0,0,13.856,15.9Z" fill="#616a77"/>
  </g>
</svg>
