<svg xmlns="http://www.w3.org/2000/svg" width="654.298" height="501.263" viewBox="0 0 654.298 501.263">
  <g id="Group_10466" data-name="Group 10466" transform="translate(-489.228 -202.7)">
    <g id="Group_10465" data-name="Group 10465" transform="translate(-0.085 0.223)">
      <path id="blob" d="M451.98-48.855c59.207,25.434,97.984,100.069,117.164,182.626,19.18,82.14,18.763,171.785-24.183,227.24-43.363,55.038-129.256,76.72-202.64,80.055-72.967,3.336-133.008-10.841-207.643-22.516-74.218-11.258-162.2-20.014-193.467-65.879C-90.06,307.224-64.209,224.25-34.606,157.12S28.355,38.288,72.969,10.353C118-17.583,174.706-21.336,243.086-35.512,311.883-49.689,392.356-73.872,451.98-48.855Z" transform="translate(562.324 262.178)" fill="#f4f8fc"/>
      <g id="g10" transform="translate(-1663.535 3718.251)">
        <g id="g12" transform="translate(2329.619 -3386.472)">
          <path id="path42" d="M3881.656-2127.4a.465.465,0,0,0-.294-.222.476.476,0,0,0-.361.052l-1.593.941-.941-1.593a.471.471,0,0,0-.292-.22.471.471,0,0,0-.364.052.471.471,0,0,0-.222.294.476.476,0,0,0,.052.362l.941,1.593-1.593.941a.471.471,0,0,0-.22.292.472.472,0,0,0,.052.364.466.466,0,0,0,.294.222.474.474,0,0,0,.364-.052l1.591-.941.941,1.593a.479.479,0,0,0,.505.226.426.426,0,0,0,.15-.058.479.479,0,0,0,.17-.656l-.941-1.593,1.593-.941a.477.477,0,0,0,.168-.656" transform="translate(-3644.872 2317.007)" fill="#406fbf"/>
          <path id="path44" d="M3924.534-2077.864a.973.973,0,0,0-.973.971.973.973,0,0,0,.973.973.973.973,0,0,0,.971-.973A.972.972,0,0,0,3924.534-2077.864Zm0,3.062a2.092,2.092,0,0,1-2.09-2.09,2.092,2.092,0,0,1,2.09-2.088,2.091,2.091,0,0,1,2.088,2.088,2.092,2.092,0,0,1-2.088,2.09" transform="translate(-3683.714 2274.946)" fill="#406fbf"/>
          <path id="path46" d="M2516.229-1873.227a.976.976,0,0,0-.973.973.974.974,0,0,0,.973.973.973.973,0,0,0,.973-.973A.975.975,0,0,0,2516.229-1873.227Zm0,3.064a2.092,2.092,0,0,1-2.088-2.09,2.091,2.091,0,0,1,2.088-2.088,2.091,2.091,0,0,1,2.09,2.088,2.092,2.092,0,0,1-2.09,2.09" transform="translate(-2486.485 2100.978)" fill="#406fbf"/>
          <path id="path48" d="M4060.281-3372.608a.973.973,0,0,0-.973.973.973.973,0,0,0,.973.971.972.972,0,0,0,.971-.971A.973.973,0,0,0,4060.281-3372.608Zm0,3.062a2.092,2.092,0,0,1-2.09-2.088,2.092,2.092,0,0,1,2.09-2.09,2.092,2.092,0,0,1,2.088,2.09,2.091,2.091,0,0,1-2.088,2.088" transform="translate(-3799.115 3375.635)" fill="#406fbf"/>
          <path id="path50" d="M4303.2-2992.989a.477.477,0,0,0-.244.274.483.483,0,0,0,.022.368l.81,1.66-1.663.812a.48.48,0,0,0-.242.274.483.483,0,0,0,.022.368.475.475,0,0,0,.274.242.48.48,0,0,0,.368-.022l1.661-.809.812,1.662a.481.481,0,0,0,.274.244.489.489,0,0,0,.367-.024.481.481,0,0,0,.242-.274.478.478,0,0,0-.022-.368l-.809-1.661,1.663-.812a.479.479,0,0,0,.266-.485.437.437,0,0,0-.046-.154.479.479,0,0,0-.639-.222l-1.663.81-.812-1.663a.477.477,0,0,0-.64-.22" transform="translate(-4006.257 3052.005)" fill="#406fbf"/>
          <path id="path52" d="M4097.507-2754.118a.975.975,0,0,0-.973.973.975.975,0,0,0,.973.973.974.974,0,0,0,.971-.973A.974.974,0,0,0,4097.507-2754.118Zm0,3.064a2.092,2.092,0,0,1-2.09-2.09,2.092,2.092,0,0,1,2.09-2.088,2.092,2.092,0,0,1,2.089,2.088,2.092,2.092,0,0,1-2.089,2.09" transform="translate(-3830.761 2849.842)" fill="#406fbf"/>
          <path id="path54" d="M2329.877-2533.706a.475.475,0,0,0-.152.334.478.478,0,0,0,.13.344l1.265,1.349-1.349,1.265a.475.475,0,0,0-.152.334.478.478,0,0,0,.13.344.474.474,0,0,0,.336.152.47.47,0,0,0,.342-.13l1.349-1.265,1.265,1.349a.485.485,0,0,0,.336.15.47.47,0,0,0,.342-.13.471.471,0,0,0,.152-.334.477.477,0,0,0-.13-.344l-1.265-1.349,1.349-1.263a.481.481,0,0,0,.11-.544.453.453,0,0,0-.088-.136.481.481,0,0,0-.677-.022l-1.349,1.265-1.265-1.347a.478.478,0,0,0-.677-.022" transform="translate(-2329.619 2661.628)" fill="#406fbf"/>
          <path id="path56" d="M2456.882-2406.437a.976.976,0,0,0-.973.973.976.976,0,0,0,.973.973.976.976,0,0,0,.973-.973A.976.976,0,0,0,2456.882-2406.437Zm0,3.063a2.091,2.091,0,0,1-2.088-2.09,2.092,2.092,0,0,1,2.088-2.09,2.092,2.092,0,0,1,2.09,2.09,2.092,2.092,0,0,1-2.09,2.09" transform="translate(-2436.033 2554.273)" fill="#406fbf"/>
          <path id="path58" d="M2402.9-2621.384l-.018,0c-.745-.032-1.5-.05-2.246-.05-.662,0-1.331.014-1.992.04a.428.428,0,0,1-.444-.408.425.425,0,0,1,.41-.442c.671-.028,1.355-.042,2.026-.042.757,0,1.525.018,2.284.052a.426.426,0,0,1,.406.444A.428.428,0,0,1,2402.9-2621.384Zm-14.42,1.423a.426.426,0,0,1-.412-.324.425.425,0,0,1,.312-.513c.845-.208,1.709-.4,2.568-.562.548-.106,1.105-.2,1.657-.292a.428.428,0,0,1,.488.354.428.428,0,0,1-.354.488c-.542.086-1.091.182-1.631.286-.845.162-1.695.348-2.526.552A.453.453,0,0,1,2388.479-2619.961Zm24.558.078a.475.475,0,0,1-.106-.012c-1.365-.348-2.76-.64-4.148-.871a.425.425,0,0,1-.35-.488.424.424,0,0,1,.489-.35c1.413.234,2.832.532,4.219.883a.426.426,0,0,1,.308.518A.426.426,0,0,1,2413.037-2619.883Zm-34.208,3.353a.424.424,0,0,1-.384-.244.423.423,0,0,1,.2-.566c1.291-.614,2.628-1.179,3.969-1.683a.427.427,0,0,1,.547.25.426.426,0,0,1-.25.548c-1.319.494-2.632,1.049-3.9,1.653A.416.416,0,0,1,2378.828-2616.53Zm43.83.168a.432.432,0,0,1-.186-.042c-1.267-.615-2.576-1.183-3.889-1.691a.426.426,0,0,1-.244-.55.428.428,0,0,1,.55-.244c1.337.516,2.666,1.093,3.955,1.719a.424.424,0,0,1,.2.567.424.424,0,0,1-.382.24Zm-52.587,5.144a.425.425,0,0,1-.34-.168.426.426,0,0,1,.082-.6c1.143-.863,2.336-1.688,3.545-2.452a.429.429,0,0,1,.588.134.423.423,0,0,1-.134.585c-1.189.751-2.362,1.563-3.485,2.41A.42.42,0,0,1,2370.072-2611.218Zm61.306.236a.426.426,0,0,1-.26-.088c-1.117-.855-2.284-1.675-3.469-2.434a.426.426,0,0,1-.13-.588.424.424,0,0,1,.587-.128c1.205.771,2.392,1.6,3.529,2.474a.428.428,0,0,1,.08.6A.428.428,0,0,1,2431.378-2610.982Zm-68.81,6.736a.424.424,0,0,1-.28-.106.426.426,0,0,1-.038-.6c.945-1.075,1.946-2.122,2.978-3.114a.426.426,0,0,1,.6.01.424.424,0,0,1-.012.6c-1.013.975-2,2.006-2.929,3.063A.425.425,0,0,1,2362.568-2604.246Zm76.274.278a.418.418,0,0,1-.322-.146c-.923-1.061-1.9-2.1-2.912-3.079a.424.424,0,0,1-.01-.6.426.426,0,0,1,.6-.008c1.027,1,2.024,2.052,2.962,3.132a.424.424,0,0,1-.042.6A.421.421,0,0,1,2438.842-2603.968Zm-82.227,8.057a.429.429,0,0,1-.212-.056.426.426,0,0,1-.158-.582c.711-1.241,1.483-2.468,2.3-3.647a.426.426,0,0,1,.592-.11.425.425,0,0,1,.108.592c-.8,1.159-1.559,2.366-2.256,3.589A.423.423,0,0,1,2356.615-2595.91Zm88.122.316a.423.423,0,0,1-.372-.218c-.689-1.227-1.439-2.438-2.23-3.6a.425.425,0,0,1,.114-.591.425.425,0,0,1,.59.114c.805,1.185,1.569,2.418,2.268,3.665a.426.426,0,0,1-.162.58.436.436,0,0,1-.208.054Zm-92.285,9.045a.447.447,0,0,1-.134-.02.426.426,0,0,1-.27-.538c.446-1.359.955-2.716,1.515-4.035a.426.426,0,0,1,.558-.226.424.424,0,0,1,.226.558c-.55,1.3-1.051,2.632-1.491,3.969a.428.428,0,0,1-.4.292Zm96.364.352a.425.425,0,0,1-.406-.3c-.427-1.343-.917-2.682-1.455-3.98a.426.426,0,0,1,.232-.556.425.425,0,0,1,.555.232c.546,1.319,1.043,2.682,1.477,4.046a.426.426,0,0,1-.276.536.476.476,0,0,1-.128.02Zm-98.554,9.658a.4.4,0,0,1-.048,0,.428.428,0,0,1-.376-.472c.162-1.421.388-2.854.67-4.258a.426.426,0,0,1,.5-.332.423.423,0,0,1,.332.5c-.276,1.381-.5,2.79-.658,4.187A.424.424,0,0,1,2350.262-2576.54Zm100.67.422a.426.426,0,0,1-.424-.382c-.148-1.4-.36-2.806-.625-4.193l-.01-.054a.423.423,0,0,1,.336-.5.425.425,0,0,1,.5.336l.01.056c.272,1.409.486,2.844.637,4.263a.426.426,0,0,1-.378.468.4.4,0,0,1-.046,0Zm-100.788,9.826a.425.425,0,0,1-.424-.386c-.128-1.429-.2-2.877-.206-4.306a.423.423,0,0,1,.422-.428h0a.422.422,0,0,1,.424.422c.008,1.407.078,2.832.2,4.235a.423.423,0,0,1-.384.461A.272.272,0,0,1,2350.144-2566.292Zm100.84.418a.3.3,0,0,1-.042,0,.426.426,0,0,1-.382-.466c.136-1.4.214-2.822.23-4.23a.423.423,0,0,1,.43-.42.425.425,0,0,1,.422.43c-.018,1.433-.1,2.88-.236,4.3A.423.423,0,0,1,2450.984-2565.875Zm-98.9,9.642a.422.422,0,0,1-.406-.3c-.41-1.367-.765-2.772-1.061-4.177a.426.426,0,0,1,.33-.5.427.427,0,0,1,.5.33c.29,1.381.639,2.762,1.041,4.107a.424.424,0,0,1-.286.53.421.421,0,0,1-.122.018Zm96.875.4a.4.4,0,0,1-.126-.02.425.425,0,0,1-.28-.531c.417-1.345.781-2.724,1.083-4.1a.424.424,0,0,1,.506-.324.426.426,0,0,1,.326.506c-.308,1.4-.677,2.8-1.1,4.168A.425.425,0,0,1,2448.958-2555.829Zm-92.96,9.063a.426.426,0,0,1-.374-.224c-.679-1.261-1.311-2.566-1.88-3.879a.426.426,0,0,1,.22-.56.425.425,0,0,1,.56.222c.56,1.291,1.183,2.574,1.848,3.813a.423.423,0,0,1-.172.575.41.41,0,0,1-.2.052Zm88.95.366a.413.413,0,0,1-.2-.054.425.425,0,0,1-.168-.577c.679-1.233,1.313-2.51,1.886-3.8a.424.424,0,0,1,.562-.216.427.427,0,0,1,.216.562c-.583,1.307-1.229,2.606-1.918,3.859a.426.426,0,0,1-.374.222Zm-83.2,8.111a.424.424,0,0,1-.326-.152c-.921-1.1-1.8-2.248-2.628-3.417a.424.424,0,0,1,.1-.594.426.426,0,0,1,.592.1c.809,1.149,1.678,2.28,2.584,3.359a.427.427,0,0,1-.052.6A.432.432,0,0,1,2361.748-2538.289Zm77.381.32a.426.426,0,0,1-.276-.1.425.425,0,0,1-.048-.6c.911-1.071,1.789-2.2,2.608-3.341a.425.425,0,0,1,.594-.1.427.427,0,0,1,.1.594c-.833,1.163-1.725,2.306-2.652,3.4A.428.428,0,0,1,2439.129-2537.969Zm-70.041,6.822a.422.422,0,0,1-.264-.092c-1.123-.891-2.22-1.839-3.261-2.82a.424.424,0,0,1-.018-.6.426.426,0,0,1,.6-.018c1.023.963,2.1,1.9,3.205,2.772a.426.426,0,0,1,.07.6A.425.425,0,0,1,2369.088-2531.147Zm62.653.27a.426.426,0,0,1-.336-.162.425.425,0,0,1,.072-.6c1.109-.867,2.194-1.792,3.226-2.75a.426.426,0,0,1,.6.022.426.426,0,0,1-.022.6c-1.049.973-2.152,1.914-3.279,2.8A.415.415,0,0,1,2431.741-2530.877Zm-54.028,5.258a.416.416,0,0,1-.194-.046c-1.275-.647-2.54-1.357-3.759-2.108a.425.425,0,0,1-.138-.585.425.425,0,0,1,.586-.138c1.2.74,2.442,1.437,3.7,2.072a.426.426,0,0,1,.188.572A.428.428,0,0,1,2377.713-2525.619Zm45.363.2a.423.423,0,0,1-.382-.236.426.426,0,0,1,.192-.57c1.261-.625,2.51-1.311,3.715-2.04a.424.424,0,0,1,.583.144.424.424,0,0,1-.144.584c-1.223.741-2.494,1.439-3.777,2.074A.424.424,0,0,1,2423.076-2525.424Zm-35.8,3.491a.37.37,0,0,1-.112-.016c-1.381-.376-2.762-.817-4.107-1.309a.426.426,0,0,1-.252-.548.423.423,0,0,1,.545-.252c1.321.484,2.68.917,4.037,1.289a.423.423,0,0,1,.3.521A.422.422,0,0,1,2387.271-2521.932Zm26.211.1a.425.425,0,0,1-.412-.318.426.426,0,0,1,.3-.52c1.363-.358,2.726-.777,4.051-1.247a.425.425,0,0,1,.542.26.424.424,0,0,1-.258.543c-1.347.478-2.734.9-4.118,1.267A.393.393,0,0,1,2413.482-2521.834Zm-16.1,1.581h-.026c-1.429-.09-2.872-.242-4.286-.452a.426.426,0,0,1-.358-.483.423.423,0,0,1,.482-.358c1.393.206,2.81.356,4.215.444a.423.423,0,0,1,.4.452A.424.424,0,0,1,2397.379-2520.254Zm5.983.018a.425.425,0,0,1-.426-.4.427.427,0,0,1,.4-.449c1.4-.078,2.822-.218,4.219-.416a.423.423,0,0,1,.479.362.423.423,0,0,1-.362.48c-1.419.2-2.864.344-4.289.424h-.024" transform="translate(-2346.532 2736.822)" fill="#406fbf"/>
          <path id="path60" d="M3186.08-3385.622h-.028c-1.391,0-2.8.036-4.195.1a.425.425,0,0,1-.446-.406.423.423,0,0,1,.4-.444h.006c1.407-.068,2.832-.1,4.236-.1a.425.425,0,0,1,.426.426A.426.426,0,0,1,3186.08-3385.622Zm-14.282,1.153a.428.428,0,0,1-.448-.358.425.425,0,0,1,.352-.488c.865-.14,1.747-.268,2.62-.384.524-.07,1.055-.134,1.581-.194a.425.425,0,0,1,.469.374.424.424,0,0,1-.374.471c-.52.058-1.045.124-1.567.192-.863.114-1.736.242-2.594.38A.283.283,0,0,1,3171.8-3384.469Zm24.384-.576a.5.5,0,0,1-.076,0c-1.383-.16-2.79-.288-4.181-.38a.425.425,0,0,1-.4-.451.426.426,0,0,1,.452-.4c1.4.094,2.826.224,4.221.384a.427.427,0,0,1,.375.472A.426.426,0,0,1,3196.182-3385.045Zm-34.264,2.752a.426.426,0,0,1-.437-.31.423.423,0,0,1,.293-.524c1.353-.38,2.736-.733,4.107-1.049a.424.424,0,0,1,.51.319.425.425,0,0,1-.318.51c-1.359.312-2.728.662-4.069,1.037A.407.407,0,0,1,3161.918-3382.293Zm44.242-1.017a.432.432,0,0,1-.124-.01c-1.361-.318-2.746-.607-4.119-.859a.426.426,0,0,1-.342-.5.427.427,0,0,1,.5-.342c1.387.254,2.786.548,4.158.867a.427.427,0,0,1,.318.511A.429.429,0,0,1,3206.16-3383.31ZM3152.35-3379a.428.428,0,0,1-.421-.264.426.426,0,0,1,.232-.555c1.3-.531,2.634-1.041,3.96-1.511a.427.427,0,0,1,.544.26.425.425,0,0,1-.26.542c-1.313.466-2.634.969-3.921,1.5A.466.466,0,0,1,3152.35-3379Zm63.526-1.437a.418.418,0,0,1-.17-.024c-1.315-.472-2.656-.917-3.991-1.325a.427.427,0,0,1-.282-.531.426.426,0,0,1,.531-.282c1.347.412,2.7.861,4.029,1.339a.424.424,0,0,1,.256.543.427.427,0,0,1-.374.28Zm-72.655,5.8a.423.423,0,0,1-.4-.22.424.424,0,0,1,.166-.578c1.233-.68,2.5-1.337,3.761-1.957a.427.427,0,0,1,.57.2.425.425,0,0,1-.2.57c-1.251.612-2.5,1.263-3.723,1.937A.412.412,0,0,1,3143.221-3374.639Zm81.976-1.839a.436.436,0,0,1-.216-.044c-1.249-.617-2.532-1.213-3.809-1.771a.427.427,0,0,1-.22-.562.426.426,0,0,1,.56-.22c1.291.563,2.584,1.165,3.847,1.79a.425.425,0,0,1,.192.57A.429.429,0,0,1,3225.2-3376.478Zm-90.531,7.214a.425.425,0,0,1-.375-.178.425.425,0,0,1,.1-.594c1.145-.813,2.324-1.611,3.505-2.37a.426.426,0,0,1,.587.13.424.424,0,0,1-.128.588c-1.169.749-2.338,1.541-3.471,2.346A.407.407,0,0,1,3134.666-3369.264Zm99.335-2.218a.431.431,0,0,1-.258-.068c-1.171-.755-2.376-1.493-3.581-2.192a.425.425,0,0,1-.156-.582.425.425,0,0,1,.582-.154c1.217.706,2.434,1.451,3.617,2.212a.426.426,0,0,1,.126.589A.431.431,0,0,1,3234-3371.482Zm-107.227,8.539a.42.42,0,0,1-.344-.14.422.422,0,0,1,.032-.6c1.043-.941,2.126-1.868,3.213-2.756a.426.426,0,0,1,.6.06.425.425,0,0,1-.062.6c-1.077.881-2.148,1.8-3.184,2.73A.424.424,0,0,1,3126.775-3362.943Zm115.406-2.58a.426.426,0,0,1-.3-.1c-1.077-.883-2.19-1.752-3.309-2.584a.422.422,0,0,1-.086-.593.423.423,0,0,1,.594-.088c1.129.839,2.254,1.716,3.341,2.608a.424.424,0,0,1,.06.6A.423.423,0,0,1,3242.181-3365.523Zm-122.532,9.76a.418.418,0,0,1-.308-.106.424.424,0,0,1-.038-.6c.933-1.053,1.9-2.1,2.884-3.105a.426.426,0,0,1,.6-.008.426.426,0,0,1,.008.6c-.971,1-1.933,2.032-2.856,3.075A.419.419,0,0,1,3119.648-3355.763Zm129.98-2.914a.433.433,0,0,1-.334-.13c-.969-1-1.976-1.986-2.991-2.939a.424.424,0,0,1-.02-.6.426.426,0,0,1,.6-.018c1.025.961,2.042,1.958,3.022,2.968a.424.424,0,0,1-.01.6A.422.422,0,0,1,3249.629-3358.676Zm-136.248,10.859a.424.424,0,0,1-.271-.076.427.427,0,0,1-.1-.593c.807-1.151,1.652-2.3,2.514-3.411a.424.424,0,0,1,.6-.076.424.424,0,0,1,.078.6c-.854,1.1-1.691,2.24-2.49,3.381A.427.427,0,0,1,3113.381-3347.817Zm142.868-3.218a.423.423,0,0,1-.366-.164c-.849-1.1-1.737-2.2-2.638-3.259a.427.427,0,0,1,.048-.6.425.425,0,0,1,.6.05c.909,1.069,1.806,2.176,2.664,3.289a.426.426,0,0,1-.076.6A.411.411,0,0,1,3256.25-3351.034Zm-148.2,11.824a.431.431,0,0,1-.23-.05.426.426,0,0,1-.171-.578c.671-1.237,1.383-2.474,2.112-3.677a.423.423,0,0,1,.583-.144.423.423,0,0,1,.144.583c-.723,1.193-1.427,2.42-2.092,3.643A.425.425,0,0,1,3108.054-3339.21Zm153.9-3.479a.422.422,0,0,1-.392-.206c-.717-1.191-1.473-2.38-2.248-3.535a.427.427,0,0,1,.118-.591.425.425,0,0,1,.589.118c.781,1.167,1.545,2.368,2.27,3.571a.427.427,0,0,1-.146.583A.429.429,0,0,1,3261.951-3342.689Zm-158.213,12.64a.428.428,0,0,1-.186-.03.425.425,0,0,1-.236-.553c.526-1.3,1.091-2.616,1.678-3.9a.427.427,0,0,1,.566-.208.426.426,0,0,1,.208.564c-.583,1.267-1.143,2.566-1.665,3.859A.424.424,0,0,1,3103.737-3330.049Zm162.926-3.7a.424.424,0,0,1-.416-.248c-.577-1.267-1.193-2.538-1.831-3.777a.429.429,0,0,1,.184-.574.428.428,0,0,1,.573.184c.644,1.251,1.265,2.534,1.848,3.815a.427.427,0,0,1-.212.564.4.4,0,0,1-.148.036Zm-166.169,13.293a.415.415,0,0,1-.14-.016.424.424,0,0,1-.3-.521c.374-1.359.786-2.726,1.223-4.067a.429.429,0,0,1,.538-.272.427.427,0,0,1,.272.538c-.434,1.327-.842,2.682-1.213,4.026A.426.426,0,0,1,3100.494-3320.451Zm169.824-3.859a.425.425,0,0,1-.432-.294c-.428-1.325-.893-2.658-1.385-3.96a.428.428,0,0,1,.248-.55.429.429,0,0,1,.55.25c.5,1.315.965,2.662,1.4,4a.427.427,0,0,1-.274.536A.467.467,0,0,1,3270.318-3324.31Zm-171.944,13.769a.37.37,0,0,1-.094,0,.423.423,0,0,1-.354-.483c.214-1.4.466-2.8.748-4.183a.425.425,0,0,1,.5-.332.423.423,0,0,1,.332.5c-.278,1.369-.528,2.762-.741,4.143A.423.423,0,0,1,3098.374-3310.541Zm174.5-3.979a.423.423,0,0,1-.444-.34c-.276-1.367-.585-2.744-.925-4.095a.426.426,0,0,1,.31-.516.423.423,0,0,1,.516.308c.342,1.365.656,2.756.933,4.135a.429.429,0,0,1-.334.5A.554.554,0,0,1,3272.872-3314.52Zm-175.464,14.051a.359.359,0,0,1-.046,0,.426.426,0,0,1-.408-.442c.054-1.407.142-2.83.262-4.23a.426.426,0,0,1,.462-.386.425.425,0,0,1,.388.459c-.12,1.387-.208,2.8-.262,4.189A.425.425,0,0,1,3097.408-3300.469Zm176.906-3.9a.427.427,0,0,1-.451-.39c-.116-1.385-.268-2.79-.449-4.175l-.018-.134a.422.422,0,0,1,.366-.478.424.424,0,0,1,.478.364l.018.138c.184,1.4.336,2.814.456,4.213a.429.429,0,0,1-.39.46l-.008,0ZM3097.6-3290.352a.427.427,0,0,1-.452-.394c-.026-.33-.048-.661-.07-.993-.07-1.073-.12-2.164-.152-3.24a.424.424,0,0,1,.414-.436.423.423,0,0,1,.438.412c.03,1.065.08,2.144.15,3.209.02.328.044.655.068.983a.424.424,0,0,1-.392.456Zm177-3.9h-.042a.424.424,0,0,1-.412-.437c.04-1.391.048-2.8.024-4.2a.426.426,0,0,1,.418-.434.426.426,0,0,1,.432.417c.026,1.407.018,2.834-.024,4.239A.425.425,0,0,1,3274.594-3294.25Zm-175.665,13.931a.425.425,0,0,1-.446-.344c-.262-1.381-.5-2.788-.693-4.183a.422.422,0,0,1,.36-.479.426.426,0,0,1,.482.36c.2,1.383.428,2.776.688,4.143a.425.425,0,0,1-.338.5A.249.249,0,0,1,3098.929-3280.32Zm174.786-3.851a.443.443,0,0,1-.09,0,.425.425,0,0,1-.36-.481c.2-1.379.372-2.78.505-4.167a.426.426,0,0,1,.464-.384.426.426,0,0,1,.382.466c-.134,1.4-.306,2.816-.507,4.207A.429.429,0,0,1,3273.715-3284.171ZM3101.383-3270.5a.428.428,0,0,1-.434-.3c-.418-1.343-.809-2.714-1.163-4.075a.425.425,0,0,1,.3-.52.427.427,0,0,1,.52.306c.35,1.347.737,2.706,1.151,4.035a.426.426,0,0,1-.278.533A.451.451,0,0,1,3101.383-3270.5Zm170.3-3.747a.406.406,0,0,1-.138-.012.427.427,0,0,1-.3-.521c.36-1.349.689-2.726.983-4.089a.427.427,0,0,1,.506-.328.428.428,0,0,1,.326.505c-.3,1.377-.629,2.768-.991,4.131A.423.423,0,0,1,3271.683-3274.251Zm-166.74,13.217a.423.423,0,0,1-.416-.252c-.57-1.285-1.115-2.6-1.623-3.915a.423.423,0,0,1,.242-.549.426.426,0,0,1,.552.242c.5,1.3,1.043,2.6,1.607,3.879a.423.423,0,0,1-.216.56A.384.384,0,0,1,3104.942-3261.033Zm163.581-3.591a.411.411,0,0,1-.182-.028.425.425,0,0,1-.242-.552c.512-1.3,1-2.628,1.445-3.949a.424.424,0,0,1,.54-.266.425.425,0,0,1,.266.54c-.451,1.333-.941,2.674-1.457,3.985A.426.426,0,0,1,3268.523-3264.625Zm-158.961,12.584a.427.427,0,0,1-.4-.21c-.711-1.209-1.4-2.452-2.056-3.693a.426.426,0,0,1,.178-.575.424.424,0,0,1,.573.18c.647,1.229,1.333,2.46,2.038,3.657a.426.426,0,0,1-.15.583A.442.442,0,0,1,3109.563-3252.041Zm154.724-3.387a.411.411,0,0,1-.226-.048.423.423,0,0,1-.176-.575c.655-1.233,1.289-2.5,1.882-3.755a.427.427,0,0,1,.567-.2.427.427,0,0,1,.2.567c-.6,1.271-1.241,2.546-1.9,3.791a.423.423,0,0,1-.348.224Zm-149.109,11.788a.419.419,0,0,1-.366-.168c-.847-1.121-1.677-2.278-2.47-3.437a.427.427,0,0,1,.112-.592.426.426,0,0,1,.592.112c.785,1.149,1.607,2.294,2.444,3.405a.426.426,0,0,1-.082.6A.419.419,0,0,1,3115.178-3243.64Zm143.857-3.135a.429.429,0,0,1-.27-.074.424.424,0,0,1-.108-.591c.79-1.149,1.563-2.33,2.3-3.515a.424.424,0,0,1,.585-.136.425.425,0,0,1,.138.586c-.741,1.195-1.522,2.388-2.32,3.549A.427.427,0,0,1,3259.035-3246.775Zm-137.314,10.847a.422.422,0,0,1-.336-.132c-.969-1.019-1.926-2.074-2.846-3.138a.425.425,0,0,1,.044-.6.425.425,0,0,1,.6.044c.909,1.053,1.858,2.1,2.818,3.107a.423.423,0,0,1-.014.6A.437.437,0,0,1,3121.721-3235.928Zm131.115-2.848a.431.431,0,0,1-.306-.1.425.425,0,0,1-.042-.6c.913-1.051,1.816-2.138,2.68-3.231a.426.426,0,0,1,.6-.07.428.428,0,0,1,.07.6c-.873,1.1-1.782,2.2-2.706,3.261A.427.427,0,0,1,3252.836-3238.775Zm-123.737,9.768a.428.428,0,0,1-.3-.1c-1.079-.9-2.15-1.842-3.186-2.8a.424.424,0,0,1-.024-.6.424.424,0,0,1,.6-.026c1.025.943,2.086,1.875,3.155,2.768a.425.425,0,0,1,.052.6.419.419,0,0,1-.3.152Zm116.677-2.526a.422.422,0,0,1-.342-.138.422.422,0,0,1,.026-.6c1.027-.941,2.044-1.918,3.028-2.906a.426.426,0,0,1,.6,0,.426.426,0,0,1,0,.6c-.991,1-2.021,1.984-3.058,2.934A.432.432,0,0,1,3245.776-3231.533Zm-108.56,8.569a.453.453,0,0,1-.262-.07c-1.175-.775-2.346-1.589-3.481-2.418a.425.425,0,0,1-.094-.594.427.427,0,0,1,.6-.094c1.125.821,2.284,1.626,3.449,2.4a.422.422,0,0,1,.12.587A.431.431,0,0,1,3137.216-3222.964Zm100.724-2.18a.421.421,0,0,1-.372-.174.425.425,0,0,1,.094-.594c1.127-.817,2.248-1.67,3.335-2.54a.423.423,0,0,1,.6.066.423.423,0,0,1-.066.6c-1.1.877-2.23,1.741-3.367,2.564A.406.406,0,0,1,3237.94-3225.145Zm-91.969,7.264a.428.428,0,0,1-.22-.046c-1.255-.635-2.512-1.311-3.737-2.006a.425.425,0,0,1-.16-.579.428.428,0,0,1,.582-.16c1.211.688,2.456,1.357,3.7,1.988a.426.426,0,0,1,.188.572A.429.429,0,0,1,3145.971-3217.881Zm83.46-1.812a.424.424,0,0,1-.4-.216.426.426,0,0,1,.162-.58c1.211-.682,2.422-1.4,3.6-2.14a.426.426,0,0,1,.585.134.425.425,0,0,1-.134.587c-1.189.745-2.412,1.473-3.635,2.16A.433.433,0,0,1,3229.431-3219.693Zm-74.182,5.869a.4.4,0,0,1-.174-.026c-1.321-.49-2.646-1.017-3.943-1.569a.426.426,0,0,1-.226-.558.425.425,0,0,1,.557-.226c1.285.548,2.6,1.071,3.907,1.555a.425.425,0,0,1,.25.548A.426.426,0,0,1,3155.25-3213.824Zm65.1-1.427a.424.424,0,0,1-.418-.26.425.425,0,0,1,.226-.557c1.287-.54,2.574-1.117,3.831-1.717a.428.428,0,0,1,.568.2.423.423,0,0,1-.2.565c-1.267.606-2.568,1.189-3.867,1.735A.4.4,0,0,1,3220.349-3215.251Zm-55.411,4.4a.417.417,0,0,1-.13-.012c-1.367-.334-2.746-.708-4.1-1.107a.422.422,0,0,1-.286-.528.422.422,0,0,1,.527-.288c1.339.4,2.706.765,4.061,1.1a.424.424,0,0,1,.312.513A.427.427,0,0,1,3164.938-3210.854Zm45.873-1.023a.425.425,0,0,1-.436-.306.425.425,0,0,1,.29-.528c1.339-.388,2.686-.813,4-1.265a.423.423,0,0,1,.54.264.425.425,0,0,1-.264.54c-1.331.458-2.69.887-4.041,1.279A.359.359,0,0,1,3210.81-3211.877Zm-35.915,2.86a.355.355,0,0,1-.08,0c-1.4-.176-2.808-.387-4.192-.627a.429.429,0,0,1-.346-.493.427.427,0,0,1,.493-.346c1.371.24,2.768.45,4.151.621a.427.427,0,0,1,.368.476A.423.423,0,0,1,3174.9-3209.018Zm26.053-.6a.425.425,0,0,1-.446-.354.423.423,0,0,1,.348-.49c1.377-.236,2.762-.506,4.121-.8a.423.423,0,0,1,.506.323.425.425,0,0,1-.324.508c-1.371.3-2.77.574-4.159.81A.363.363,0,0,1,3200.948-3209.613Zm-15.957,1.277h-.032c-1.407-.014-2.832-.062-4.237-.144a.424.424,0,0,1-.4-.448.428.428,0,0,1,.45-.4c1.389.082,2.8.128,4.195.142a.427.427,0,0,1,.422.43A.427.427,0,0,1,3184.991-3208.336Zm6.633-.182c-.246.016-.49.03-.735.044a.425.425,0,0,1-.448-.4.425.425,0,0,1,.4-.448h0c1.391-.078,2.8-.192,4.187-.336a.426.426,0,0,1,.468.38.424.424,0,0,1-.38.466c-1.157.122-2.332.22-3.491.3" transform="translate(-2981.922 3386.472)" fill="#406fbf"/>
          <path id="path62" d="M2992.8-3264.3v146.309h-.384l-11.077-10.779-11.077,10.779h-1.153l-11.077-10.779-11.079,10.779h-1.139l-11.059-10.759-11.057,10.759h-1.131l-11.071-10.771-11.071,10.771h-1.167l-11.071-10.771-11.069,10.771h-1.155l-11.049-10.751-11.049,10.751h-.729v-186.972h99L2992.8-3264.3" transform="translate(-2774.675 3317.182)" fill="#90b4e3" opacity="0.531"/>
          <path id="path64" d="M3554.361-3264.3H3513.7v-40.663Z" transform="translate(-3336.23 3317.182)" fill="#406fbf" opacity="0.626"/>
          <path id="path72" d="M3081.083-2001.665v0a4.924,4.924,0,0,1-6.966,0l-29.91-29.912-3.8-3.8a24.568,24.568,0,0,0,6.966-6.969l33.71,33.713a4.922,4.922,0,0,1,0,6.964" transform="translate(-2933.875 2243.798)" fill="#406fbf"/>
          <path id="path74" d="M3057.492-2032.235l7.794,7.8a24.579,24.579,0,0,1-6.966,6.966h0l-3.995-3.995-3.8-3.8a24.619,24.619,0,0,0,6.966-6.968" transform="translate(-2942.478 2235.206)" fill="#325590"/>
          <path id="path76" d="M2782.239-2276.094a24.3,24.3,0,0,1-14.311-4.63,24.479,24.479,0,0,1-8.629-11.381,24.372,24.372,0,0,1-1.489-8.415,24.7,24.7,0,0,1,.22-3.281,24.455,24.455,0,0,1,15.713-19.628,24.38,24.38,0,0,1,8.5-1.517,24.675,24.675,0,0,1,3.185.206,24.329,24.329,0,0,1,13,5.925,24.368,24.368,0,0,1,8.241,18.295c0,.372-.008.742-.026,1.109a24.406,24.406,0,0,1-.8,5.208,24.252,24.252,0,0,1-3.2,7.118,24.564,24.564,0,0,1-6.966,6.968,24.283,24.283,0,0,1-2.1,1.241,24.177,24.177,0,0,1-4.914,1.928A24.439,24.439,0,0,1,2782.239-2276.094Zm29.684-25.707a29.805,29.805,0,0,0-.392-3.719,29.663,29.663,0,0,0-9.8-17.426,29.594,29.594,0,0,0-19.49-7.288,29.712,29.712,0,0,0-29.712,29.714,30.118,30.118,0,0,0,.188,3.359,29.487,29.487,0,0,0,2.842,9.728h0a29.827,29.827,0,0,0,9.065,10.839q.932.69,1.92,1.3a29.57,29.57,0,0,0,15.7,4.48,29.581,29.581,0,0,0,17.236-5.507v0a29.817,29.817,0,0,0,6.966-6.964v0h0a29.575,29.575,0,0,0,4.354-9.015,29.742,29.742,0,0,0,1.153-8.221c0-.43-.01-.857-.028-1.281" transform="translate(-2689.142 2488.542)" fill="#406fbf"/>
          <circle id="Ellipse_80" data-name="Ellipse 80" cx="25" cy="25" r="25" transform="translate(68 162.998)" fill="#fff" opacity="0.658"/>
          <path id="path78" d="M2814.409-2247.156a2.281,2.281,0,0,1-2.282-2.28,21.046,21.046,0,0,1,6.205-14.98,21.045,21.045,0,0,1,14.978-6.205,2.283,2.283,0,0,1,2.282,2.282,2.281,2.281,0,0,1-2.282,2.28,16.522,16.522,0,0,0-11.752,4.868,16.515,16.515,0,0,0-4.868,11.755,2.28,2.28,0,0,1-2.28,2.28" transform="translate(-2739.809 2437.863)" fill="#406fbf"/>
        </g>
      </g>
    </g>
    <text id="No_Data_Found_" data-name="No Data Found!" transform="translate(745 613)" fill="#243756" font-size="20" font-family="Helvetica"><tspan x="0" y="0">No Data Found!</tspan></text>
  </g>
</svg>
