<svg width="23" height="23" viewBox="0 0 23 23" fill="none" xmlns="http://www.w3.org/2000/svg">
<path d="M0.95 20.1941V20.1941C0.950107 20.1164 0.968266 20.0398 1.00308 19.9694C1.03783 19.8991 1.08829 19.8368 1.15085 19.7863C1.65688 19.3653 2.09923 18.8843 2.46626 18.3563C2.87294 17.6265 3.11673 16.8299 3.18356 16.0131L3.18356 13.5836C3.18356 13.5836 3.18356 13.5836 3.18356 13.5835C3.18073 12.2833 3.69199 11.027 4.62146 10.047C5.54117 9.0773 6.80864 8.4432 8.19295 8.25803V7.65712C8.19295 7.46811 8.27489 7.28782 8.4191 7.15561C8.56317 7.02354 8.7577 6.95 8.95973 6.95C9.16176 6.95 9.35629 7.02354 9.50036 7.15561C9.64457 7.28782 9.72651 7.46811 9.72651 7.65712V8.24777C11.1234 8.4213 12.4063 9.05167 13.3382 10.0246C14.2801 11.0078 14.7985 12.2734 14.795 13.5835C14.795 13.5836 14.795 13.5836 14.795 13.5837M0.95 20.1941L14.745 13.5835L14.795 13.5837M0.95 20.1941V20.8636C0.95 21.0089 1.01299 21.1472 1.12347 21.2485C1.2338 21.3496 1.38259 21.4058 1.53691 21.4058H16.4631C16.6174 21.4058 16.7662 21.3496 16.8765 21.2485C16.987 21.1472 17.05 21.0089 17.05 20.8636V20.1941V20.1941C17.0499 20.1164 17.0317 20.0398 16.9969 19.9694C16.9621 19.899 16.9115 19.8365 16.8488 19.786L16.8174 19.825L16.8491 19.7863C16.3355 19.3665 15.8858 18.8854 15.5122 18.3561C15.1055 17.6264 14.8618 16.8298 14.795 16.0131M0.95 20.1941L14.795 16.0131M14.795 13.5837L14.795 16.0131M14.795 13.5837L14.795 16.0131M14.5373 18.923C14.8861 19.4297 15.2957 19.8987 15.7582 20.3214H2.24712C2.70967 19.8987 3.11924 19.4297 3.46803 18.923L3.46815 18.9231L3.47006 18.9198C3.99178 18.0231 4.29632 17.0334 4.36265 16.0184L4.36275 16.0184V16.0151V13.5835H4.36279L4.36272 13.5817C4.3417 13.0122 4.44589 12.4445 4.66921 11.9124C4.89255 11.3803 5.23052 10.8946 5.66326 10.4842C6.09601 10.0738 6.61465 9.74723 7.18842 9.52412C7.76219 9.301 8.3792 9.18597 9.00268 9.18597C9.62617 9.18597 10.2432 9.301 10.8169 9.52412C11.3907 9.74723 11.9094 10.0738 12.3421 10.4842C12.7748 10.8946 13.1128 11.3803 13.3362 11.9124C13.5595 12.4445 13.6637 13.0122 13.6427 13.5817L13.6426 13.5817V13.5835V16.0151H13.6425L13.6427 16.0184C13.709 17.0334 14.0136 18.0231 14.5353 18.9198L14.5352 18.9199L14.5373 18.923Z" fill="#F1F1F1" stroke="#CCD3E0" stroke-width="0.1"/>
<path d="M9.02682 22.9992C9.36504 22.9921 9.68961 22.8755 9.94311 22.6701C10.1966 22.4648 10.3627 22.1838 10.4121 21.877H7.58789C7.63861 22.1921 7.81249 22.4797 8.07718 22.6861C8.34187 22.8926 8.67934 23.0038 9.02682 22.9992Z" fill="#CCD3E0"/>
<circle cx="15.5" cy="7.5" r="7.5" fill="#DE5D59"/>
<path d="M16.3146 3.27273V12H14.9936V4.59375H14.9425L12.8544 5.95739V4.69602L15.032 3.27273H16.3146Z" fill="white"/>
</svg>
