<svg xmlns="http://www.w3.org/2000/svg" width="13.907" height="13.907" viewBox="0 0 13.907 13.907">
  <g id="Group_9670" data-name="Group 9670" transform="translate(-967.249 -247)">
    <path id="Path_8221" data-name="Path 8221" d="M11.959,18.457l-.131.125c-.293.279-.564.54-.783.788,2.467.281,3.792,1.016,3.792,1.436,0,.527-2.077,1.55-5.884,1.55S3.07,21.332,3.07,20.8c0-.42,1.325-1.155,3.792-1.436-.219-.248-.491-.509-.783-.788l-.131-.125C3.726,18.824,2,19.614,2,20.8c0,1.7,3.5,2.584,6.954,2.584s6.954-.888,6.954-2.584C15.907,19.614,14.182,18.824,11.959,18.457Z" transform="translate(965.249 237.518)" fill="#00a221"/>
    <path id="Path_8222" data-name="Path 8222" d="M11.369,2A4.257,4.257,0,0,0,7,6.135c0,3.1,3.823,4.135,3.823,6.2a.547.547,0,0,0,1.092,0c0-2.067,3.823-3.1,3.823-6.2A4.257,4.257,0,0,0,11.369,2Zm0,5.168a1.035,1.035,0,1,1,1.092-1.034A1.064,1.064,0,0,1,11.369,7.168Z" transform="translate(962.833 245)" fill="#00a221"/>
  </g>
</svg>
