<svg xmlns="http://www.w3.org/2000/svg" width="11.934" height="11.147" viewBox="0 0 11.934 11.147">
  <g id="Production" transform="translate(-8.412 -9.967)">
    <g id="Group_9669" data-name="Group 9669" transform="translate(8.412 9.967)">
      <path id="Path_8304" data-name="Path 8304" d="M16.735,20.193h-.77v-.976H12.793v.976h-.77a.917.917,0,0,0-.917.917c0,.006,6.545.006,6.545,0A.917.917,0,0,0,16.735,20.193Zm3.473-10.088h0a.469.469,0,0,0-.331-.137h-11a.469.469,0,0,0-.468.469v7.728a.469.469,0,0,0,.468.468h11a.468.468,0,0,0,.468-.468V10.436A.463.463,0,0,0,20.208,10.105Zm-.8,7.59H9.348V10.9H19.409Z" transform="translate(-8.412 -9.967)" fill="#00a221"/>
    </g>
  </g>
</svg>
