<svg id="_176267_pin_icon" data-name="176267_pin_icon" xmlns="http://www.w3.org/2000/svg" width="15" height="15" viewBox="0 0 15 15">
  <path id="Path_8801" data-name="Path 8801" d="M307.752,11.954l-4.316-4.316a1.053,1.053,0,0,1,0-1.295.9.9,0,0,1,1.295,0l4.315,4.316a.9.9,0,0,1,0,1.295A1.075,1.075,0,0,1,307.752,11.954Z" transform="translate(-294.334 -6.056)" fill="#2558a8"/>
  <path id="Path_8802" data-name="Path 8802" d="M210.66,42.4s-1.726-.432-2.374.216l-2.805,2.805L202.461,42.4l2.805-2.805c.647-.647.216-2.374.216-2.374Z" transform="translate(-196.596 -36.286)" fill="#2558a8"/>
  <path id="Path_8803" data-name="Path 8803" d="M79.893,195.821l-6.9-6.9a1.077,1.077,0,0,1,1.079-.647c.863,0,2.589.863,3.452,0l3.021,3.021c-.863.863,0,2.589,0,3.452A1.077,1.077,0,0,1,79.893,195.821Z" transform="translate(-71.007 -182.803)" fill="#2558a8"/>
  <path id="Path_8804" data-name="Path 8804" d="M6.981,316.365c-.431-.432,2.805-3.668,2.805-3.668l2.158-2.158.863.863L10.65,313.56S7.413,316.8,6.981,316.365Z" transform="translate(-6.942 -301.404)" fill="#2558a8"/>
</svg>
