<svg id="Component_125_2" data-name="Component 125 – 2" xmlns="http://www.w3.org/2000/svg" width="12" height="10.907" viewBox="0 0 12 10.907">
  <path id="Path_8351" data-name="Path 8351" d="M18.545,4.273A.273.273,0,0,0,18.273,4h-6A.273.273,0,0,0,12,4.273V5.909h6.545Z" transform="translate(-9.273 -4)" fill="#616a77"/>
  <path id="Path_8352" data-name="Path 8352" d="M13.727,13H2.273A.273.273,0,0,0,2,13.273v6a.273.273,0,0,0,.273.273H4.182V17.909H3.636a.273.273,0,0,1,0-.545h8.727a.273.273,0,1,1,0,.545h-.545v1.636h1.909A.273.273,0,0,0,14,19.273v-6A.273.273,0,0,0,13.727,13Zm-1.636,2.182h-.545a.273.273,0,0,1,0-.545h.545a.273.273,0,1,1,0,.545Z" transform="translate(-2 -10.546)" fill="#616a77"/>
  <path id="Path_8353" data-name="Path 8353" d="M12,34.273a.273.273,0,0,0,.273.273h6a.273.273,0,0,0,.273-.273V31H12Z" transform="translate(-9.273 -23.638)" fill="#616a77"/>
</svg>
