<svg xmlns="http://www.w3.org/2000/svg" width="30" height="30" viewBox="0 0 30 30">
  <g id="Group_11481" data-name="Group 11481" transform="translate(-406 -242)">
    <circle id="Ellipse_115" data-name="Ellipse 115" cx="15" cy="15" r="15" transform="translate(406 242)" fill="#0747a6" opacity="0.1"/>
    <g id="_709430_bed_bedroom_hospital_patient_sleep_icon" data-name="709430_bed_bedroom_hospital_patient_sleep_icon" transform="translate(410.779 170.612)">
      <path id="Path_8659" data-name="Path 8659" d="M70.323,132.7a1.634,1.634,0,1,1-1.634-1.634A1.634,1.634,0,0,1,70.323,132.7Z" transform="translate(-63.713 -49.391)"/>
      <path id="Path_8660" data-name="Path 8660" d="M173.048,165.292a.436.436,0,0,1,.436-.436h6.972c1.8,0,3.268.9,3.268,2.015v1.144H173.048Z" transform="translate(-165.947 -81.988)"/>
      <path id="Path_8661" data-name="Path 8661" d="M18.43,86.463H2.307V80.508a.654.654,0,1,0-1.307,0V92.346H2.307V90.385H17.777v1.961h1.307V87.117A.654.654,0,0,0,18.43,86.463Z"/>
      <path id="Path_8662" data-name="Path 8662" d="M69.887,230.245h-2.4a.436.436,0,0,1-.436-.436h0a.436.436,0,0,1,.436-.436h2.4a.436.436,0,0,1,.436.436h0A.436.436,0,0,1,69.887,230.245Z" transform="translate(-63.713 -144.218)"/>
    </g>
  </g>
</svg>
