<svg xmlns="http://www.w3.org/2000/svg" width="30" height="30" viewBox="0 0 30 30">
  <g id="Group_10950" data-name="Group 10950" transform="translate(-406 -242)">
    <circle id="Ellipse_115" data-name="Ellipse 115" cx="15" cy="15" r="15" transform="translate(406 242)" fill="#0747a6" opacity="0.1"/>
    <g id="_3773374_big_idea_excellent_idea_great_idea_innovative_idea_light_bulb_icon" data-name="3773374_big idea_excellent idea_great idea_innovative idea_light bulb_icon" transform="translate(409.74 248.911)">
      <path id="Path_8665" data-name="Path 8665" d="M22.406,12.492a3.988,3.988,0,0,0-7.311.177,3.961,3.961,0,0,0,.709,4.209,3.019,3.019,0,0,1,.753,1.529A1.008,1.008,0,0,1,17,18.3h1.6v-2.3l-.775-.775a.219.219,0,0,1,.31-.31l.687.687.731-.731a.219.219,0,1,1,.31.31l-.82.82v2.282h1.6a.9.9,0,0,1,.421.089,2.707,2.707,0,0,1,.731-1.462A4.017,4.017,0,0,0,22.406,12.492Z" transform="translate(-7.925 -7.149)"/>
      <g id="Group_11151" data-name="Group 11151" transform="translate(8.499 11.589)">
        <path id="Path_8666" data-name="Path 8666" d="M26.941,49.349v.576a.548.548,0,0,1-.554.554h-.066v.155a1.75,1.75,0,1,1-3.5,0v-.155h-.066a.548.548,0,0,1-.554-.554v-.576a.548.548,0,0,1,.554-.554h3.633A.535.535,0,0,1,26.941,49.349Z" transform="translate(-22.2 -48.794)"/>
      </g>
      <path id="Path_8667" data-name="Path 8667" d="M32.222,2.662a.209.209,0,0,0,.222-.222V1.222a.222.222,0,1,0-.443,0V2.44A.222.222,0,0,0,32.222,2.662Z" transform="translate(-21.33)"/>
      <path id="Path_8668" data-name="Path 8668" d="M19.023,6.076a.228.228,0,1,0,.4-.222l-.6-1.041a.228.228,0,0,0-.4.222Z" transform="translate(-10.745 -2.883)"/>
      <path id="Path_8669" data-name="Path 8669" d="M8.379,15.089l1.041.6a.228.228,0,0,0,.222-.4L8.6,14.69a.228.228,0,0,0-.222.4Z" transform="translate(-2.848 -10.633)"/>
      <path id="Path_8670" data-name="Path 8670" d="M6.239,28.622a.209.209,0,0,0-.222-.222h-1.2a.222.222,0,0,0,0,.443h1.2A.209.209,0,0,0,6.239,28.622Z" transform="translate(0 -21.33)"/>
      <path id="Path_8671" data-name="Path 8671" d="M9.455,39.39l-1.041.6a.228.228,0,0,0,.222.4l1.041-.6a.245.245,0,0,0,.089-.31A.224.224,0,0,0,9.455,39.39Z" transform="translate(-2.883 -29.861)"/>
      <path id="Path_8672" data-name="Path 8672" d="M52.342,40.088l-1.041-.6a.228.228,0,1,0-.222.4l1.041.6a.224.224,0,0,0,.31-.089A.214.214,0,0,0,52.342,40.088Z" transform="translate(-36.088 -29.939)"/>
      <path id="Path_8673" data-name="Path 8673" d="M55.418,28.4h-1.2a.222.222,0,0,0,0,.443H55.44a.209.209,0,0,0,.222-.222A.228.228,0,0,0,55.418,28.4Z" transform="translate(-38.456 -21.33)"/>
      <path id="Path_8674" data-name="Path 8674" d="M51.335,15.722l1.041-.6a.245.245,0,0,0,.089-.31.238.238,0,0,0-.31-.089l-1.041.6a.245.245,0,0,0-.089.31A.224.224,0,0,0,51.335,15.722Z" transform="translate(-36.123 -10.667)"/>
      <path id="Path_8675" data-name="Path 8675" d="M43.079,6.13a.224.224,0,0,0,.31-.089L43.987,5a.228.228,0,1,0-.4-.222l-.6,1.041A.224.224,0,0,0,43.079,6.13Z" transform="translate(-29.861 -2.848)"/>
    </g>
  </g>
</svg>
