<svg xmlns="http://www.w3.org/2000/svg" width="30" height="30" viewBox="0 0 30 30">
  <g id="Group_10950" data-name="Group 10950" transform="translate(-406 -242)">
    <circle id="Ellipse_115" data-name="Ellipse 115" cx="15" cy="15" r="15" transform="translate(406 242)" fill="#0747a6" opacity="0.1"/>
    <g id="Production" transform="translate(410.072 249.01)">
      <g id="Group_11222" data-name="Group 11222" transform="translate(6 2.018)">
        <path id="Path_8696" data-name="Path 8696" d="M11.307,6.495c.15,0,.328-.057.375-.5a4.131,4.131,0,0,0,0-.792c-.04-.445-.232-.5-.374-.5s-.334.051-.374.5a4.131,4.131,0,0,0,0,.792C10.979,6.437,11.157,6.495,11.307,6.495Zm4.1-4.068a24.776,24.776,0,0,0-8.965,0A.592.592,0,0,0,6,3.011v9.955a.592.592,0,0,0,.446.584,23.52,23.52,0,0,0,5.624.387c1.062,0,3.786-2.849,3.786-3.959V3.011A.592.592,0,0,0,15.411,2.427ZM10.1,5.135a1.212,1.212,0,0,1,2.424,0,4.089,4.089,0,0,1,0,.935,1.211,1.211,0,0,1-2.423,0A4.089,4.089,0,0,1,10.1,5.135ZM7.516,4.372a.426.426,0,0,1,.231-.388c.052-.025.161-.078.806-.078A1.2,1.2,0,0,1,9.818,5.13a4.442,4.442,0,0,1,0,.944A1.232,1.232,0,0,1,8.553,7.291c-.65,0-.759-.054-.811-.08a.427.427,0,0,1-.226-.385ZM14.15,9.979H12.686a.714.714,0,0,0-.619.689s0,1.7,0,1.7c0,.4-.258.4-.572.4a31.931,31.931,0,0,1-4.358-.22V8.785h7.582v.4h0C14.719,9.581,14.464,9.979,14.15,9.979ZM13.6,6.01c.05.413.294.466.455.466a1.553,1.553,0,0,0,.406-.063c.211-.069.355-.053.423.165s.069.5-.175.576a2.5,2.5,0,0,1-.771.1,1.207,1.207,0,0,1-1.2-1.193,4.132,4.132,0,0,1,0-.926,1.2,1.2,0,0,1,1.2-1.2,3.87,3.87,0,0,1,.768.1c.254.075.248.359.18.577s-.212.235-.422.165a1.612,1.612,0,0,0-.409-.064c-.151,0-.41.048-.454.46A4.279,4.279,0,0,0,13.6,6.01ZM9.01,5.973a3.763,3.763,0,0,0,0-.756c-.033-.363-.146-.474-.478-.474-.1,0-.256,0-.256,0v1.7s.154,0,.256,0C8.833,6.454,8.973,6.315,9.01,5.973Z" transform="translate(-6 -2.018)"/>
      </g>
    </g>
  </g>
</svg>
