<svg xmlns="http://www.w3.org/2000/svg" width="30" height="30" viewBox="0 0 30 30">
  <g id="Group_11479" data-name="Group 11479" transform="translate(-406 -242)">
    <circle id="Ellipse_115" data-name="Ellipse 115" cx="15" cy="15" r="15" transform="translate(406 242)" fill="#0747a6" opacity="0.1"/>
    <path id="_5113492_doctor_health_medic_nurse_physician_icon" data-name="5113492_doctor_health_medic_nurse_physician_icon" d="M9.539,10.32a3.626,3.626,0,1,1,3.626,3.622A3.626,3.626,0,0,1,9.539,10.32ZM19.726,18v1.313a.438.438,0,0,1-.438.438H7.038a.438.438,0,0,1-.438-.438V18a2.95,2.95,0,0,1,2.954-2.954h1.268a.883.883,0,0,1,.728.377l.86,1.279a.883.883,0,0,0,1.449,0l.9-1.294a.879.879,0,0,1,.721-.377h1.29A2.95,2.95,0,0,1,19.73,18Zm-1.509-.675a.189.189,0,0,0-.189-.189h-.713v-.69a.189.189,0,0,0-.189-.189h-.566a.189.189,0,0,0-.189.189v.69h-.683a.189.189,0,0,0-.189.189v.566a.189.189,0,0,0,.189.189h.69v.69a.189.189,0,0,0,.189.189h.566a.189.189,0,0,0,.189-.189v-.69h.69a.189.189,0,0,0,.189-.189Zm-5.358-2.347a.472.472,0,0,0,0,.943h.755a.472.472,0,1,0,0-.943Z" transform="translate(407.4 243.31)"/>
  </g>
</svg>
