<svg xmlns="http://www.w3.org/2000/svg" width="30" height="30" viewBox="0 0 30 30">
  <g id="Group_10950" data-name="Group 10950" transform="translate(-406 -242)">
    <circle id="Ellipse_115" data-name="Ellipse 115" cx="15" cy="15" r="15" transform="translate(406 242)" fill="#0747a6" opacity="0.1"/>
    <path id="_725663_list_to-do_bullet_lines_menu_icon" data-name="725663_list_to-do_bullet_lines_menu_icon" d="M6.523,4.262H11.8a.754.754,0,1,0,0-1.508H6.523a.754.754,0,1,0,0,1.508ZM11.8,6.523H6.523a.754.754,0,0,0,0,1.508H11.8a.754.754,0,0,0,0-1.508Zm0,3.769H6.523a.754.754,0,0,0,0,1.508H11.8a.754.754,0,0,0,0-1.508ZM3.508,2A1.508,1.508,0,1,0,5.015,3.508,1.512,1.512,0,0,0,3.508,2Zm0,3.769A1.508,1.508,0,1,0,5.015,7.277,1.512,1.512,0,0,0,3.508,5.769Zm0,3.769a1.508,1.508,0,1,0,1.508,1.508A1.512,1.512,0,0,0,3.508,9.538Z" transform="translate(414 250)"/>
  </g>
</svg>
