<svg xmlns="http://www.w3.org/2000/svg" width="30" height="30" viewBox="0 0 30 30">
  <g id="Group_11482" data-name="Group 11482" transform="translate(-406 -242)">
    <circle id="Ellipse_115" data-name="Ellipse 115" cx="15" cy="15" r="15" transform="translate(406 242)" fill="#0747a6" opacity="0.1"/>
    <path id="_753952_doctors_doctor_health_hospital_medical_icon" data-name="753952_doctors_doctor_health_hospital_medical_icon" d="M15.118.844a3.628,3.628,0,0,0-5.1.514L3.829,8.927a3.628,3.628,0,0,0,5.619,4.591l6.184-7.57A3.627,3.627,0,0,0,15.118.844ZM9.707,11.4l-.677.829a2.655,2.655,0,0,1-3.741.324c-.071-.058-.138-.12-.2-.184-.123-.152.079-.186.079-.186l0,0A6.472,6.472,0,0,0,9.532,11.2l0,.007s.1-.042.142,0A.148.148,0,0,1,9.707,11.4Zm5.18-5.787-1.06,1.3c-.02.026-.037.053-.058.079L12.446,8.609,8.1,5.179l2.5-3.065a2.765,2.765,0,1,1,4.283,3.5Z" transform="translate(411.6 249.757)"/>
  </g>
</svg>
