<svg xmlns="http://www.w3.org/2000/svg" width="30" height="30" viewBox="0 0 30 30">
  <g id="Group_10950" data-name="Group 10950" transform="translate(-406 -242)">
    <circle id="Ellipse_115" data-name="Ellipse 115" cx="15" cy="15" r="15" transform="translate(406 242)" fill="#d92121" opacity="0.1"/>
    <g id="_1568704_business_group_business_team_community_group_group_of_people_icon" data-name="1568704_business group_business team_community_group_group of people_icon" transform="translate(411.2 246.718)">
      <path id="Path_8619" data-name="Path 8619" d="M13.222,53.329a6,6,0,0,1-2.64-3.664.674.674,0,0,0-1.31.314A7.359,7.359,0,0,0,12.5,54.472a.675.675,0,1,0,.719-1.143Z" transform="translate(-6.978 -38.688)"/>
      <path id="Path_8620" data-name="Path 8620" d="M30.608,4.226a5.966,5.966,0,0,1,5.165,0A.677.677,0,0,0,36.359,3a7.315,7.315,0,0,0-6.338,0,.677.677,0,0,0,.586,1.221Z" transform="translate(-23.805)"/>
      <path id="Path_8621" data-name="Path 8621" d="M70.094,49.2a.674.674,0,0,0-.813.5,6,6,0,0,1-2.64,3.664.674.674,0,1,0,.714,1.143,7.359,7.359,0,0,0,3.237-4.483.674.674,0,0,0-.5-.822Z" transform="translate(-54.09 -38.716)"/>
      <path id="Path_8622" data-name="Path 8622" d="M76.6,8.991A1.536,1.536,0,1,0,75.06,7.456,1.536,1.536,0,0,0,76.6,8.991Z" transform="translate(-61.302 -3.003)"/>
      <path id="Path_8623" data-name="Path 8623" d="M73.509,26.31a1.316,1.316,0,0,0-.981-.44h-.468a.157.157,0,0,0-.124.059l-.749.93c-.026.033-.051.031-.077,0l-.743-.928a.157.157,0,0,0-.124-.059h-.452a1.31,1.31,0,0,0-1.312,1.286h0V28.51a.382.382,0,0,0,.382.382h4.595a.382.382,0,0,0,.386-.382V27.158h0A1.314,1.314,0,0,0,73.509,26.31Z" transform="translate(-55.87 -19.472)"/>
      <path id="Path_8624" data-name="Path 8624" d="M8.866,8.991A1.536,1.536,0,1,0,7.33,7.456,1.536,1.536,0,0,0,8.866,8.991Z" transform="translate(-5.391 -3.003)"/>
      <path id="Path_8625" data-name="Path 8625" d="M1.184,28.906H5.771a.382.382,0,0,0,.382-.387V27.166h0A1.312,1.312,0,0,0,4.848,25.88H4.37a.157.157,0,0,0-.124.059l-.743.93c-.026.033-.051.031-.077,0l-.743-.928a.157.157,0,0,0-.124-.059H2.112A1.31,1.31,0,0,0,.8,27.166h0v1.352a.382.382,0,0,0,.384.387Z" transform="translate(0 -19.48)"/>
      <path id="Path_8626" data-name="Path 8626" d="M42.786,63.471a1.536,1.536,0,1,0-1.536-1.536,1.536,1.536,0,0,0,1.536,1.536Z" transform="translate(-33.392 -47.976)"/>
      <path id="Path_8627" data-name="Path 8627" d="M35.052,80.778a1.312,1.312,0,0,0-.332.848h0v1.358a.382.382,0,0,0,.382.382h4.589a.382.382,0,0,0,.382-.382V81.626h0a1.312,1.312,0,0,0-1.312-1.286H38.29a.157.157,0,0,0-.124.059l-.743.928c-.026.033-.051.031-.077,0L36.6,80.4a.157.157,0,0,0-.124-.059h-.447A1.316,1.316,0,0,0,35.052,80.778Z" transform="translate(-28.001 -64.437)"/>
    </g>
  </g>
</svg>
