<svg xmlns="http://www.w3.org/2000/svg" width="30" height="30" viewBox="0 0 30 30">
  <g id="Group_10950" data-name="Group 10950" transform="translate(-406 -242)">
    <circle id="Ellipse_115" data-name="Ellipse 115" cx="15" cy="15" r="15" transform="translate(406 242)" fill="#0747a6" opacity="0.1"/>
    <g id="_109000_calendar_holiday_journey_pika_simple_icon" data-name="109000_calendar_holiday_journey_pika_simple_icon" transform="translate(415 251)">
      <g id="_x32_._White_icons">
        <g id="_x31_2_2_" transform="translate(0.812 0.406)">
          <rect id="Rectangle_3741" data-name="Rectangle 3741" width="1.624" height="1.624" transform="translate(4.872 5.684)"/>
          <rect id="Rectangle_3742" data-name="Rectangle 3742" width="1.624" height="1.624" transform="translate(7.308 5.684)"/>
          <rect id="Rectangle_3743" data-name="Rectangle 3743" width="1.624" height="1.624" transform="translate(7.308 8.12)"/>
          <rect id="Rectangle_3744" data-name="Rectangle 3744" width="1.624" height="1.624" transform="translate(2.436 8.12)"/>
          <rect id="Rectangle_3745" data-name="Rectangle 3745" width="1.624" height="1.624" transform="translate(4.872 8.12)"/>
          <path id="Path_8663" data-name="Path 8663" d="M12.881,2.665c-.052-.011-.781-.155-1.948-.277V1.812a.811.811,0,1,0-1.622,0l0,1.624a.8.8,0,0,0,.268.6c-.023,0-.045.007-.069.007A1.015,1.015,0,0,1,8.5,3.03v-.8c-.264-.007-.533-.012-.812-.012-.576,0-1.119.017-1.624.043V1.812a.811.811,0,1,0-1.622,0V3.436a.8.8,0,0,0,.27.6c-.023,0-.045.007-.069.007A1.015,1.015,0,0,1,3.624,3.03V2.483c-.686.092-1.1.174-1.136.182a.608.608,0,0,0-.488.6v8.867a.609.609,0,0,0,.481.6,27.1,27.1,0,0,0,5.2.453,27.1,27.1,0,0,0,5.2-.453.608.608,0,0,0,.481-.6V3.262A.608.608,0,0,0,12.881,2.665Zm-.73,9.036a27.805,27.805,0,0,1-4.466.352A27.93,27.93,0,0,1,3.218,11.7V5.864h8.932Z" transform="translate(-2 -1)"/>
        </g>
        <rect id="Rectangle_3746" data-name="Rectangle 3746" width="13" height="13" fill="none"/>
      </g>
    </g>
  </g>
</svg>
