<svg xmlns="http://www.w3.org/2000/svg" width="12" height="12" viewBox="0 0 12 12">
  <path id="_739355_cog_configuration_gear_options_preferences_icon" data-name="739355_cog_configuration_gear_options_preferences_icon" d="M11.344,4.875c-.457-.1-.593-.148-.844-.75a.918.918,0,0,1,.074-1.108.751.751,0,0,0-.066-.995l-.53-.53a.751.751,0,0,0-.994-.066A.914.914,0,0,1,7.875,1.5c-.562-.227-.647-.386-.75-.844A.752.752,0,0,0,6.375,0h-.75a.751.751,0,0,0-.75.656c-.1.458-.188.617-.75.844a.915.915,0,0,1-1.108-.074.751.751,0,0,0-.994.066l-.531.531a.751.751,0,0,0-.066.994A.918.918,0,0,1,1.5,4.125c-.251.6-.386.647-.844.75A.751.751,0,0,0,0,5.625v.75a.751.751,0,0,0,.656.75c.458.1.593.148.844.75a.918.918,0,0,1-.074,1.108.751.751,0,0,0,.066.995l.53.53a.751.751,0,0,0,.994.066A.914.914,0,0,1,4.125,10.5c.562.227.647.386.75.844a.751.751,0,0,0,.75.656h.75a.752.752,0,0,0,.75-.656c.1-.457.188-.616.75-.844a.915.915,0,0,1,1.108.074.751.751,0,0,0,.994-.066l.53-.53a.752.752,0,0,0,.066-.995A.918.918,0,0,1,10.5,7.875c.251-.6.386-.647.844-.75A.751.751,0,0,0,12,6.375v-.75A.751.751,0,0,0,11.344,4.875ZM6,7.875a1.875,1.875,0,0,1,0-3.75C7.035,4.125,7.875,6,7.875,6S7.035,7.875,6,7.875Z" fill="#616a77"/>
</svg>
