<svg xmlns="http://www.w3.org/2000/svg" width="12" height="11.306" viewBox="0 0 12 11.306">
  <path id="_1474241_classify_filter_order_sort_sort_by_icon" data-name="1474241_classify_filter_order_sort_sort by_icon" d="M337.985,490.62H327.422a.242.242,0,0,1-.242-.242v-1.516a.242.242,0,0,1,.242-.242h10.563a.242.242,0,0,1,.242.242v1.516A.242.242,0,0,1,337.985,490.62Zm-3.966,3.335v-1.516a.242.242,0,0,0-.242-.242h-6.356a.242.242,0,0,0-.242.242v1.516a.242.242,0,0,0,.242.242h6.356A.242.242,0,0,0,334.019,493.955Zm-1.579,3.683v-1.516a.242.242,0,0,0-.242-.242h-4.776a.242.242,0,0,0-.242.242v1.516a.242.242,0,0,0,.242.242H332.2a.242.242,0,0,0,.244-.242Zm1.478-2.283,1.316,2.3,1.316,2.276,1.316-2.285,1.316-2.285h-1.741v-3.683H335.86v3.683h-1.935Z" transform="translate(-327.18 -488.62)" fill="#181c32"/>
</svg>
