<svg id="Component_273_217" data-name="Component 273 – 217" xmlns="http://www.w3.org/2000/svg" width="23" height="22" viewBox="0 0 23 22">
  <rect id="Rectangle_3576" data-name="Rectangle 3576" width="23" height="22" rx="3" fill="#213449" opacity="0.1"/>
  <g id="XMLID_291_" transform="translate(1.474 -1.004)">
    <g id="XMLID_323_" transform="translate(6.345 9.225)">
      <path id="XMLID_350_" d="M35.192,35.742a3.043,3.043,0,0,1-3.037,3.106H25.434a.074.074,0,0,1-.055-.124c.221-.276.442-.538.649-.8a.1.1,0,0,1,.055-.028h6.059a2.084,2.084,0,0,0,.014-4.168H28.746a1.888,1.888,0,0,1-1.9-1.794A1.863,1.863,0,0,1,28.7,30h1.477a.072.072,0,0,1,.055.028c.193.262.414.524.649.814.041.041,0,.11-.055.11H28.7a.9.9,0,0,0-.9.994.92.92,0,0,0,.939.814h3.368A3.1,3.1,0,0,1,35.192,35.742Z" transform="translate(-25.359 -30)" fill="#616a77"/>
    </g>
    <path id="XMLID_354_" d="M5.577,49.1A2.3,2.3,0,0,0,3.3,51.4a2.186,2.186,0,0,0,.207.952,11.216,11.216,0,0,0,1.85,2.609.328.328,0,0,0,.5,0A11.648,11.648,0,0,0,7.7,52.354a2.248,2.248,0,0,0,.207-.966A2.286,2.286,0,0,0,5.577,49.1Zm.041,3.423A1.118,1.118,0,1,1,6.737,51.4,1.113,1.113,0,0,1,5.619,52.52Z" transform="translate(0 -37.235)" fill="#616a77"/>
    <path id="XMLID_341_" d="M58.973,5.9A1.594,1.594,0,0,0,57.4,7.486a1.777,1.777,0,0,0,.138.663,7.943,7.943,0,0,0,1.27,1.808.221.221,0,0,0,.345,0,7.654,7.654,0,0,0,1.27-1.808A1.6,1.6,0,0,0,58.973,5.9Zm.014,2.374A.773.773,0,1,1,59.76,7.5.781.781,0,0,1,58.987,8.273Z" transform="translate(-46.633 0)" fill="#616a77"/>
  </g>
</svg>
