<svg id="Component_273_251" data-name="Component 273 – 251" xmlns="http://www.w3.org/2000/svg" width="23" height="22" viewBox="0 0 23 22">
  <rect id="Rectangle_3576" data-name="Rectangle 3576" width="23" height="22" rx="3" fill="#213449" opacity="0.1"/>
  <path id="Path_8613" data-name="Path 8613" d="M14.594,11.593,12.045,10.28a.85.85,0,0,0-1.051.223l-.933,1.2a9.406,9.406,0,0,1-2.4-1.761A9.492,9.492,0,0,1,5.87,7.494l1.182-.92a.834.834,0,0,0,.223-1.051l-1.3-2.536a.84.84,0,0,0-1.209-.315L3.137,3.75a1.279,1.279,0,0,0-.552,1.13,8.335,8.335,0,0,0,.2,1.445,12.027,12.027,0,0,0,3.193,5.282,11.939,11.939,0,0,0,5.282,3.206,9.775,9.775,0,0,0,1.458.2,1.279,1.279,0,0,0,1.143-.578l1.051-1.642A.83.83,0,0,0,14.594,11.593Z" transform="translate(2.417 2.468)" fill="#616a77"/>
</svg>
