<svg id="Component_273_218" data-name="Component 273 – 218" xmlns="http://www.w3.org/2000/svg" width="23" height="22" viewBox="0 0 23 22">
  <rect id="Rectangle_3576" data-name="Rectangle 3576" width="23" height="22" rx="3" fill="#213449" opacity="0.1"/>
  <g id="_2216360_google_map_location_map_navigation_position_icon" data-name="2216360_google map_location_map_navigation_position_icon" transform="translate(-11.8 -12.3)">
    <path id="Path_8741" data-name="Path 8741" d="M40.6,20.484c0,1.687,2.851,4.681,2.97,4.8l.214.214L44,25.283c.119-.119,2.97-3.113,2.97-4.8a3.184,3.184,0,0,0-6.368,0Zm4.229-.071a1.045,1.045,0,1,1-1.045-1.045A1.055,1.055,0,0,1,44.829,20.413Z" transform="translate(-18.145)" fill="#616a77"/>
    <path id="Path_8742" data-name="Path 8742" d="M28.324,40.9h0a.4.4,0,0,0,0,.808h.166l.428,2.257-1.14.832-7.294-3.089h2.233a.4.4,0,0,0,0-.808H17.75l-.95,6.344H28.49a1.592,1.592,0,0,0,1.592-1.592l-.9-4.752Zm-1.307,4.443L25.472,46.46h-6.51l2.851-3.3Zm-8.577-3.635h0L21.053,42.8,17.917,46.46h-.19ZM28.49,46.46H26.85l2.257-1.639.166.879A.8.8,0,0,1,28.49,46.46Z" transform="translate(0 -17.993)" fill="#616a77"/>
  </g>
</svg>
