<svg id="Component_272_322" data-name="Component 272 – 322" xmlns="http://www.w3.org/2000/svg" width="23" height="22" viewBox="0 0 23 22">
  <rect id="Rectangle_3687" data-name="Rectangle 3687" width="23" height="22" rx="3" fill="#213449" opacity="0.1"/>
  <g id="Production" transform="translate(1.673 -6.313)">
    <g id="Group_11430" data-name="Group 11430" transform="translate(4.327 14.313)">
      <path id="Path_8765" data-name="Path 8765" d="M14.586,16.9A6.919,6.919,0,0,0,9.5,14.313,6.919,6.919,0,0,0,4.423,16.9a.468.468,0,0,0-.054.477c.066.145,1.65,3.555,5.135,3.555,3.4,0,5.063-3.4,5.132-3.547A.468.468,0,0,0,14.586,16.9ZM9.5,20a5.062,5.062,0,0,1-4.148-2.749A6.42,6.42,0,0,1,8.3,15.407a2.152,2.152,0,1,0,3.2.985.935.935,0,1,1-1.393-1.1,6.164,6.164,0,0,1,3.538,1.954C13.215,17.975,11.812,20,9.5,20Z" transform="translate(-4.327 -14.313)" fill="#616a77"/>
    </g>
  </g>
</svg>
