<svg xmlns="http://www.w3.org/2000/svg" width="40" height="40" viewBox="0 0 40 40">
  <g id="Group_10421" data-name="Group 10421" transform="translate(-8 -288)">
    <path id="Path_8810" data-name="Path 8810" d="M5,0H35a5,5,0,0,1,5,5V35a5,5,0,0,1-5,5H5a5,5,0,0,1-5-5V5A5,5,0,0,1,5,0Z" transform="translate(8 288)" fill="none"/>
    <g id="Group_User" data-name="Group User" transform="translate(17.98 297)">
      <circle id="Ellipse_28" data-name="Ellipse 28" cx="2.894" cy="2.894" r="2.894" transform="translate(7.032 5)" fill="#f0f3f7"/>
      <path id="Path_8238" data-name="Path 8238" d="M15.237,14.182A9.923,9.923,0,0,0,10.788,13a9.923,9.923,0,0,0-4.44,1.182A2.481,2.481,0,0,0,5,16.39v.38a1.182,1.182,0,0,0,1.182,1.191h9.212a1.182,1.182,0,0,0,1.182-1.191v-.38A2.481,2.481,0,0,0,15.237,14.182Z" transform="translate(-0.862 -1.385)" fill="#f0f3f7"/>
      <circle id="Ellipse_29" data-name="Ellipse 29" cx="2.067" cy="2.067" r="2.067" transform="translate(1.657 5)" fill="#f0f3f7"/>
      <circle id="Ellipse_30" data-name="Ellipse 30" cx="2.067" cy="2.067" r="2.067" transform="translate(14.061 5)" fill="#f0f3f7"/>
      <path id="Path_8239" data-name="Path 8239" d="M21.639,11.357a5.739,5.739,0,0,0-2.828-.827,5.739,5.739,0,0,0-2.828.827,1.7,1.7,0,0,0-.347.281.413.413,0,0,0,.157.678,12.478,12.478,0,0,1,1.654.7,3.308,3.308,0,0,1,1.174,1.034.413.413,0,0,0,.339.174h2.7a.926.926,0,0,0,.868-.959V13a1.9,1.9,0,0,0-.893-1.646Z" transform="translate(-2.683 -0.957)" fill="#f0f3f7"/>
      <path id="Path_8240" data-name="Path 8240" d="M5.105,13.019a12.4,12.4,0,0,1,1.654-.7.413.413,0,0,0,.157-.678,1.7,1.7,0,0,0-.347-.281,5.739,5.739,0,0,0-2.828-.827,5.739,5.739,0,0,0-2.828.827A1.9,1.9,0,0,0,.02,13.011v.265a.926.926,0,0,0,.868.951h2.7a.413.413,0,0,0,.339-.174,3.308,3.308,0,0,1,1.174-1.034Z" transform="translate(0 -0.957)" fill="#f0f3f7"/>
    </g>
  </g>
</svg>
