<svg id="Group_10819" data-name="Group 10819" xmlns="http://www.w3.org/2000/svg" width="15" height="10.757" viewBox="0 0 15 10.757">
  <path id="Path_8561" data-name="Path 8561" d="M9.992,42.923a2.171,2.171,0,0,1-.883-.189L2.5,39.8V46a.781.781,0,0,0,.789.789H16.7A.781.781,0,0,0,17.484,46V39.8l-6.609,2.934A2.171,2.171,0,0,1,9.992,42.923Z" transform="translate(-2.5 -36.03)" fill="#fff"/>
  <path id="Path_8562" data-name="Path 8562" d="M16.7,15.9H3.289a.781.781,0,0,0-.789.789v.962a.8.8,0,0,0,.473.726l6.7,2.965a.772.772,0,0,0,.647,0l6.7-2.981a.8.8,0,0,0,.473-.726v-.962A.8.8,0,0,0,16.7,15.9Z" transform="translate(-2.5 -15.9)" fill="#fff"/>
</svg>
