<svg id="_5402358_alert_bell_notification_alarm_attention_icon" data-name="5402358_alert_bell_notification_alarm_attention_icon" xmlns="http://www.w3.org/2000/svg" width="14.99" height="18.463" viewBox="0 0 14.99 18.463">
  <path id="Path_8563" data-name="Path 8563" d="M15.846,12.383a.692.692,0,0,1-.692.692H2.692a.692.692,0,0,1,0-1.385A.692.692,0,0,0,3.385,11V7.738A5.691,5.691,0,0,1,8.75,2a5.538,5.538,0,0,1,5.711,5.538V11a.692.692,0,0,0,.692.692A.692.692,0,0,1,15.846,12.383Z" transform="translate(-2 2.619)" fill="#fff"/>
  <path id="Path_8564" data-name="Path 8564" d="M12.077,21.385H10.692a.692.692,0,1,1,0-1.385h1.385a.692.692,0,1,1,0,1.385Z" transform="translate(-4.462 -2.921)" fill="#fff"/>
  <circle id="Ellipse_65" data-name="Ellipse 65" cx="3" cy="3" r="3" transform="translate(8.99)" fill="#f70606"/>
</svg>
