<svg xmlns="http://www.w3.org/2000/svg" width="11.082" height="15.91" viewBox="0 0 11.082 15.91">
  <g id="_2644920_document_exams_paper_reports_research_icon" data-name="2644920_document_exams_paper_reports_research_icon" transform="translate(-132.483 -78.671)">
    <path id="Path_8241" data-name="Path 8241" d="M140.321,80.61V78.671h-6.446a1.391,1.391,0,0,0-1.391,1.391V93.19a1.391,1.391,0,0,0,1.391,1.391h8.3a1.391,1.391,0,0,0,1.391-1.391V81.915h-1.939A1.307,1.307,0,0,1,140.321,80.61Zm.881,9.87h-6.354a.121.121,0,0,1-.121-.121V89.9a.121.121,0,0,1,.121-.121H141.2a.121.121,0,0,1,.121.121v.459A.121.121,0,0,1,141.2,90.479Zm0-2.63h-6.354a.121.121,0,0,1-.121-.121V87.27a.121.121,0,0,1,.121-.121H141.2a.121.121,0,0,1,.121.121v.459A.121.121,0,0,1,141.2,87.85Zm0-2.63h-6.354a.121.121,0,0,1-.121-.121V84.64a.121.121,0,0,1,.121-.121H141.2a.121.121,0,0,1,.121.121V85.1A.121.121,0,0,1,141.2,85.22Z" fill="#fff"/>
    <path id="Path_8242" data-name="Path 8242" d="M323.425,87.98h1.621l-2.226-2.226v1.621A.605.605,0,0,0,323.425,87.98Z" transform="translate(-181.799 -6.765)" fill="#fff"/>
  </g>
</svg>
