<svg xmlns="http://www.w3.org/2000/svg" width="14.46" height="14.098" viewBox="0 0 14.46 14.098">
  <path id="_284924_schedule_period_days_time_date_icon" data-name="284924_schedule_period_days_time_date_icon" d="M26.122,32.845v.723a.363.363,0,0,1-.362.362h-.723a.363.363,0,0,1-.361-.362v-.723a.363.363,0,0,1,.361-.362h.723A.363.363,0,0,1,26.122,32.845Zm0-2.169a.363.363,0,0,0-.362-.361h-.723a.363.363,0,0,0-.361.361V31.4a.363.363,0,0,0,.361.361h.723a.363.363,0,0,0,.362-.361Zm-2.169,0a.363.363,0,0,0-.362-.361h-.723a.363.363,0,0,0-.361.361V31.4a.363.363,0,0,0,.361.361h.723a.363.363,0,0,0,.362-.361Zm0-2.169a.363.363,0,0,0-.362-.361h-.723a.363.363,0,0,0-.361.361v.723a.363.363,0,0,0,.361.362h.723a.363.363,0,0,0,.362-.362Zm3.976,3.976h-.723a.363.363,0,0,0-.361.362v.723a.363.363,0,0,0,.361.362h.723a.363.363,0,0,0,.361-.362v-.723A.363.363,0,0,0,27.929,32.483Zm-4.338,0h-.723a.363.363,0,0,0-.361.362v.723a.363.363,0,0,0,.361.362h.723a.363.363,0,0,0,.362-.362v-.723A.363.363,0,0,0,23.591,32.483Zm-2.169,0H20.7a.363.363,0,0,0-.361.362v.723a.363.363,0,0,0,.361.362h.723a.363.363,0,0,0,.361-.362v-.723A.363.363,0,0,0,21.423,32.483Zm6.868-1.808a.363.363,0,0,0-.361-.361h-.723a.363.363,0,0,0-.361.361V31.4a.363.363,0,0,0,.361.361h.723a.363.363,0,0,0,.361-.361Zm-9.037,1.808H18.53a.363.363,0,0,0-.361.362v.723a.363.363,0,0,0,.361.362h.723a.363.363,0,0,0,.361-.362v-.723A.363.363,0,0,0,19.253,32.483Zm.361-3.976a.363.363,0,0,0-.361-.361H18.53a.363.363,0,0,0-.361.361v.723a.363.363,0,0,0,.361.362h.723a.363.363,0,0,0,.361-.362Zm0,2.169a.363.363,0,0,0-.361-.361H18.53a.363.363,0,0,0-.361.361V31.4a.363.363,0,0,0,.361.361h.723a.363.363,0,0,0,.361-.361Zm-.361-5.422a.725.725,0,0,0,.723-.723V23.084a.723.723,0,0,0-1.446,0V24.53A.725.725,0,0,0,19.253,25.253Zm9.76,4.113v5.286H17.446v-7.23h5.461a4.288,4.288,0,0,1,0-3.615H20.7v.723a1.446,1.446,0,1,1-2.892,0v-.723h-.362A1.45,1.45,0,0,0,16,25.253v9.4A1.45,1.45,0,0,0,17.446,36.1H29.014a1.45,1.45,0,0,0,1.446-1.446V28.008A4.367,4.367,0,0,1,29.014,29.366Zm-7.23,1.31a.363.363,0,0,0-.361-.361H20.7a.363.363,0,0,0-.361.361V31.4a.363.363,0,0,0,.361.361h.723a.363.363,0,0,0,.361-.361Zm0-2.169a.363.363,0,0,0-.361-.361H20.7a.363.363,0,0,0-.361.361v.723a.363.363,0,0,0,.361.362h.723a.363.363,0,0,0,.361-.362Zm1.446-2.892a3.615,3.615,0,1,1,3.615,3.615A3.615,3.615,0,0,1,23.23,25.615Zm2.116-.925.79.79a.723.723,0,1,0,1.419,0l1.524-1.524a.361.361,0,0,0-.511-.511l-1.486,1.486a.672.672,0,0,0-.469,0l-.755-.755a.361.361,0,0,0-.511.511Z" transform="translate(-16 -22)" fill="#fff"/>
</svg>
