<svg xmlns="http://www.w3.org/2000/svg" width="15" height="15.706" viewBox="0 0 15 15.706">
  <g id="_5084648_alarm_alert_clock_notification_time_icon" data-name="5084648_alarm_alert_clock_notification_time_icon" transform="translate(-2.629 -2)">
    <path id="Path_8245" data-name="Path 8245" d="M19.028,2H11.556A4.538,4.538,0,0,1,8.572,9.96a1.217,1.217,0,0,1-.2,0v6.625a1.122,1.122,0,0,0,1.122,1.122h9.536a1.122,1.122,0,0,0,1.122-1.122V3.122A1.122,1.122,0,0,0,19.028,2Z" transform="translate(-2.521 0)" fill="#f0f3f7"/>
    <path id="Path_8246" data-name="Path 8246" d="M6.051,8.838A3.422,3.422,0,0,0,6.612,2.05h0A3.366,3.366,0,0,0,6.051,2a3.416,3.416,0,0,0-.2,6.827,1.217,1.217,0,0,0,.2.011ZM3.779,5.422a.561.561,0,0,1,.561-.561H5.49V3.285a.561.561,0,1,1,1.122,0V5.422a.561.561,0,0,1-.432.561.477.477,0,0,1-.129,0H4.34A.561.561,0,0,1,3.779,5.422Z" fill="#f0f3f7"/>
  </g>
</svg>
