<svg xmlns="http://www.w3.org/2000/svg" width="13.462" height="13.462" viewBox="0 0 13.462 13.462">
  <path id="_618036_calendar_date_event_reminder_icon" data-name="618036_calendar_date_event_reminder_icon" d="M12.2,13.462H1.262A1.24,1.24,0,0,1,0,12.2V4.628H13.462V12.2A1.24,1.24,0,0,1,12.2,13.462ZM4.628,7.152a.4.4,0,0,0-.421-.421H3.365a.4.4,0,0,0-.421.421v.841a.4.4,0,0,0,.421.421h.841a.4.4,0,0,0,.421-.421Zm0,2.945a.4.4,0,0,0-.421-.421H3.365a.4.4,0,0,0-.421.421v.841a.4.4,0,0,0,.421.421h.841a.4.4,0,0,0,.421-.421ZM7.572,7.152a.4.4,0,0,0-.421-.421H6.31a.4.4,0,0,0-.421.421v.841a.4.4,0,0,0,.421.421h.841a.4.4,0,0,0,.421-.421Zm0,2.945a.4.4,0,0,0-.421-.421H6.31a.4.4,0,0,0-.421.421v.841a.4.4,0,0,0,.421.421h.841a.4.4,0,0,0,.421-.421Zm2.945-2.945a.4.4,0,0,0-.421-.421H9.255a.4.4,0,0,0-.421.421v.841a.4.4,0,0,0,.421.421H10.1a.4.4,0,0,0,.421-.421Zm0,2.945a.4.4,0,0,0-.421-.421H9.255a.4.4,0,0,0-.421.421v.841a.4.4,0,0,0,.421.421H10.1a.4.4,0,0,0,.421-.421ZM0,2.945A1.24,1.24,0,0,1,1.262,1.683H2.945V.841a.841.841,0,1,1,1.683,0v.841H8.834V.841a.841.841,0,0,1,1.683,0v.841H12.2a1.24,1.24,0,0,1,1.262,1.262v.841H0Z" fill="#fff" fill-rule="evenodd"/>
</svg>
