<svg width="18" height="18" viewBox="0 0 18 18" fill="none" xmlns="http://www.w3.org/2000/svg">
<path d="M8.80781 10.7319C8.88136 10.7319 8.95251 10.7181 9.02127 10.6906C9.0904 10.663 9.14795 10.6262 9.19391 10.5802L11.7311 8.04302C11.8323 7.9419 11.8828 7.8132 11.8828 7.65692C11.8828 7.50064 11.8323 7.37194 11.7311 7.27082C11.63 7.1697 11.5013 7.11914 11.345 7.11914C11.1888 7.11914 11.0601 7.1697 10.9589 7.27082L8.80781 9.42194L6.65669 7.27082C6.55557 7.1697 6.42687 7.11914 6.27059 7.11914C6.11432 7.11914 5.98562 7.1697 5.8845 7.27082C5.78337 7.37194 5.73281 7.50064 5.73281 7.65692C5.73281 7.8132 5.78337 7.9419 5.8845 8.04302L8.42171 10.5802C8.47687 10.6354 8.53662 10.6744 8.60097 10.6972C8.66532 10.7203 8.73427 10.7319 8.80781 10.7319Z" fill="#787878"/>
</svg>
