<svg width="26" height="27" viewBox="0 0 26 27" fill="none" xmlns="http://www.w3.org/2000/svg">
<path d="M13 0.5C5.82098 0.5 0 6.32098 0 13.5C0 20.679 5.82098 26.5 13 26.5C20.179 26.5 26 20.679 26 13.5C26 6.32098 20.179 0.5 13 0.5ZM13.9286 19.7679C13.9286 19.8955 13.8241 20 13.6964 20H12.3036C12.1759 20 12.0714 19.8955 12.0714 19.7679V11.875C12.0714 11.7473 12.1759 11.6429 12.3036 11.6429H13.6964C13.8241 11.6429 13.9286 11.7473 13.9286 11.875V19.7679ZM13 9.78571C12.6355 9.77827 12.2885 9.62826 12.0333 9.36786C11.7782 9.10746 11.6353 8.75742 11.6353 8.39286C11.6353 8.0283 11.7782 7.67826 12.0333 7.41786C12.2885 7.15746 12.6355 7.00744 13 7C13.3645 7.00744 13.7115 7.15746 13.9667 7.41786C14.2218 7.67826 14.3647 8.0283 14.3647 8.39286C14.3647 8.75742 14.2218 9.10746 13.9667 9.36786C13.7115 9.62826 13.3645 9.77827 13 9.78571Z" fill="#0747A6"/>
</svg>
