<svg width="26" height="25" viewBox="0 0 26 25" fill="none" xmlns="http://www.w3.org/2000/svg">
<path d="M15.4602 1.48639C14.9758 0.569644 14.0323 0 12.9996 0C11.967 0 11.0234 0.569645 10.5391 1.48779L0.32673 20.8907C0.100116 21.3168 -0.0121387 21.7949 0.0010401 22.2779C0.0142189 22.761 0.152375 23.2322 0.401882 23.6451C0.647795 24.06 0.997032 24.4031 1.41511 24.6407C1.8332 24.8783 2.30566 25.0021 2.78588 25H23.2134C24.1987 25 25.0908 24.4933 25.5987 23.6451C25.8479 23.232 25.9858 22.7609 25.999 22.2779C26.0121 21.795 25.9001 21.3169 25.6739 20.8907L15.4602 1.48639Z" fill="#F44A3E"/>
<path d="M11.6673 9.66699H14.3327V16.542H11.6673V9.66699ZM11.666 17.917H14.3313V20.667H11.666V17.917Z" fill="white"/>
</svg>
