<svg width="16" height="14" viewBox="0 0 16 14" fill="none" xmlns="http://www.w3.org/2000/svg">
<g clip-path="url(#clip0_427_23572)">
<path d="M10.6654 4H13.9987C14.1755 4 14.3451 4.07024 14.4701 4.19526C14.5951 4.32029 14.6654 4.48986 14.6654 4.66667V9.33333C14.6654 9.51014 14.5951 9.67971 14.4701 9.80474C14.3451 9.92976 14.1755 10 13.9987 10H10.6654M5.66536 4H1.9987C1.82189 4 1.65232 4.07024 1.52729 4.19526C1.40227 4.32029 1.33203 4.48986 1.33203 4.66667V9.33333C1.33203 9.51014 1.40227 9.67971 1.52729 9.80474C1.65232 9.92976 1.82189 10 1.9987 10H5.66536M7.9987 1V13M3.9987 7H5.33203M10.6654 7H11.9987" stroke="white" stroke-width="1.33333" stroke-linecap="round" stroke-linejoin="round"/>
</g>
<defs>
<clipPath id="clip0_427_23572">
<rect width="15.3333" height="14" fill="white" transform="translate(0.332031)"/>
</clipPath>
</defs>
</svg>
