<svg width="16" height="17" viewBox="0 0 16 17" fill="none" xmlns="http://www.w3.org/2000/svg">
<g clip-path="url(#clip0_745_29951)">
<path d="M13.4284 3.35715H5.42836C4.74638 3.35715 4.09232 3.62807 3.61009 4.1103C3.12785 4.59254 2.85693 5.24659 2.85693 5.92858V13.9286C2.85693 14.6106 3.12785 15.2646 3.61009 15.7468C4.09232 16.2291 4.74638 16.5 5.42836 16.5H13.4284C14.1103 16.5 14.7644 16.2291 15.2466 15.7468C15.7289 15.2646 15.9998 14.6106 15.9998 13.9286V5.92858C15.9998 5.24659 15.7289 4.59254 15.2466 4.1103C14.7644 3.62807 14.1103 3.35715 13.4284 3.35715ZM12.2694 10.5H9.99979V12.7696C9.99979 13.0771 9.76336 13.3411 9.45586 13.3564C9.3786 13.3602 9.30139 13.3482 9.2289 13.3212C9.15641 13.2942 9.09016 13.2527 9.03416 13.1994C8.97816 13.146 8.93358 13.0818 8.90312 13.0107C8.87265 12.9396 8.85694 12.8631 8.85693 12.7857V10.5H6.58729C6.27979 10.5 6.01586 10.2636 6.0005 9.95608C5.99678 9.87881 6.00878 9.8016 6.03579 9.72911C6.06279 9.65663 6.10422 9.59037 6.15758 9.53438C6.21095 9.47838 6.27512 9.43379 6.34622 9.40333C6.41732 9.37287 6.49387 9.35715 6.57122 9.35715H8.85693V7.0875C8.85693 6.78 9.09336 6.51608 9.40086 6.50072C9.47812 6.497 9.55534 6.509 9.62782 6.536C9.70031 6.563 9.76656 6.60444 9.82256 6.6578C9.87856 6.71116 9.92314 6.77533 9.95361 6.84643C9.98407 6.91754 9.99978 6.99408 9.99979 7.07143V9.35715H12.2855C12.3629 9.35706 12.4395 9.3727 12.5107 9.40312C12.5819 9.43354 12.6462 9.47811 12.6996 9.53412C12.753 9.59013 12.7945 9.65641 12.8216 9.72894C12.8486 9.80148 12.8607 9.87875 12.8569 9.95608C12.8419 10.2636 12.5769 10.5 12.2694 10.5Z" fill="#475768"/>
<path d="M11.4288 2.99966C11.2881 2.60314 11.0281 2.25988 10.6846 2.01696C10.3411 1.77404 9.93077 1.64336 9.51003 1.64285H3.17827C2.6385 1.64285 2.12084 1.85728 1.73917 2.23895C1.35749 2.62063 1.14307 3.13829 1.14307 3.67806V10.0098C1.14357 10.4306 1.27425 10.8408 1.51717 11.1844C1.76009 11.5279 2.10336 11.7879 2.49987 11.9286V5.261C2.49987 4.66126 2.73812 4.08607 3.1622 3.66199C3.58629 3.23791 4.16147 2.99966 4.76121 2.99966H11.4288Z" fill="#475768"/>
</g>
<defs>
<clipPath id="clip0_745_29951">
<rect width="16" height="16" fill="white" transform="translate(0 0.5)"/>
</clipPath>
</defs>
</svg>
