<svg width="15" height="16" viewBox="0 0 15 16" fill="none" xmlns="http://www.w3.org/2000/svg">
<path d="M12.84 3.5H2.76C2.067 3.5 1.5063 4.09062 1.5063 4.8125L1.5 12.6875C1.5 13.4094 2.067 14 2.76 14H12.84C13.533 14 14.1 13.4094 14.1 12.6875V4.8125C14.1 4.09062 13.533 3.5 12.84 3.5ZM12.588 6.28906L8.1339 9.18969C7.9323 9.32094 7.6677 9.32094 7.4661 9.18969L3.012 6.28906C2.94883 6.25212 2.89351 6.20221 2.84939 6.14236C2.80527 6.08251 2.77327 6.01395 2.75532 5.94084C2.73738 5.86773 2.73386 5.79158 2.74498 5.71701C2.7561 5.64245 2.78163 5.571 2.82003 5.50701C2.85842 5.44302 2.90888 5.38781 2.96836 5.34472C3.02783 5.30163 3.09508 5.27155 3.16603 5.25632C3.23699 5.24109 3.31017 5.24101 3.38115 5.25609C3.45213 5.27117 3.51944 5.3011 3.579 5.34406L7.8 8.09375L12.021 5.34406C12.0806 5.3011 12.1479 5.27117 12.2188 5.25609C12.2898 5.24101 12.363 5.24109 12.434 5.25632C12.5049 5.27155 12.5722 5.30163 12.6316 5.34472C12.6911 5.38781 12.7416 5.44302 12.78 5.50701C12.8184 5.571 12.8439 5.64245 12.855 5.71701C12.8661 5.79158 12.8626 5.86773 12.8447 5.94084C12.8267 6.01395 12.7947 6.08251 12.7506 6.14236C12.7065 6.20221 12.6512 6.25212 12.588 6.28906Z" fill="#4772E0"/>
</svg>
