<svg width="16" height="17" viewBox="0 0 16 17" fill="none" xmlns="http://www.w3.org/2000/svg">
<g id="mdi:warning-circle">
<path id="Vector" d="M8.66732 9.16732H7.33398V5.16732H8.66732M8.66732 11.834H7.33398V10.5007H8.66732M8.00065 1.83398C7.12517 1.83398 6.25827 2.00642 5.44943 2.34145C4.64059 2.67649 3.90566 3.16755 3.28661 3.78661C2.03636 5.03685 1.33398 6.73254 1.33398 8.50065C1.33398 10.2688 2.03636 11.9645 3.28661 13.2147C3.90566 13.8338 4.64059 14.3248 5.44943 14.6598C6.25827 14.9949 7.12517 15.1673 8.00065 15.1673C9.76876 15.1673 11.4645 14.4649 12.7147 13.2147C13.9649 11.9645 14.6673 10.2688 14.6673 8.50065C14.6673 7.62517 14.4949 6.75827 14.1598 5.94943C13.8248 5.14059 13.3338 4.40566 12.7147 3.78661C12.0956 3.16755 11.3607 2.67649 10.5519 2.34145C9.74304 2.00642 8.87613 1.83398 8.00065 1.83398Z" fill="#8D8D8D"/>
</g>
</svg>
