<svg width="49" height="56" viewBox="0 0 49 56" fill="none" xmlns="http://www.w3.org/2000/svg">
<path d="M24.3333 27.9167C25.3188 27.9167 26.1626 27.5655 26.865 26.8632C27.5673 26.1608 27.9179 25.3176 27.9167 24.3333C27.9167 23.3479 27.5655 22.504 26.8632 21.8017C26.1608 21.0994 25.3176 20.7488 24.3333 20.75C23.3479 20.75 22.504 21.1012 21.8017 21.8035C21.0994 22.5058 20.7488 23.3491 20.75 24.3333C20.75 25.3187 21.1012 26.1626 21.8035 26.865C22.5058 27.5673 23.3491 27.9179 24.3333 27.9167ZM24.3333 45.1615C24.0944 45.1615 23.8556 45.1167 23.6167 45.0271C23.3778 44.9375 23.1688 44.8181 22.9896 44.6688C18.6299 40.8167 15.375 37.2405 13.225 33.9403C11.075 30.64 10 27.5571 10 24.6917C10 20.2125 11.4411 16.6441 14.3233 13.9865C17.2055 11.3288 20.5422 10 24.3333 10C28.1257 10 31.463 11.3288 34.3452 13.9865C37.2274 16.6441 38.6679 20.2125 38.6667 24.6917C38.6667 27.5583 37.5917 30.6418 35.4417 33.942C33.2917 37.2423 30.0368 40.8179 25.6771 44.6688C25.4979 44.8181 25.2889 44.9375 25.05 45.0271C24.8111 45.1167 24.5722 45.1615 24.3333 45.1615Z" fill="#0747A6"/>
</svg>
