<svg width="17" height="17" viewBox="0 0 17 17" fill="none" xmlns="http://www.w3.org/2000/svg">
<g clip-path="url(#clip0_745_29952)">
<path d="M5.5533 9.01999C5.76202 9.01999 5.9371 8.95471 6.07854 8.82415C6.21998 8.69359 6.29046 8.53221 6.28997 8.33999C6.28997 8.14733 6.21925 7.98571 6.07781 7.85515C5.93637 7.72459 5.76153 7.65954 5.5533 7.65999C5.34458 7.65999 5.1695 7.72528 5.02806 7.85583C4.88662 7.98639 4.81614 8.14778 4.81663 8.33999C4.81663 8.53266 4.88735 8.69427 5.02879 8.82483C5.17023 8.95539 5.34507 9.02045 5.5533 9.01999ZM8.49997 9.01999C8.70869 9.01999 8.88377 8.95471 9.02521 8.82415C9.16665 8.69359 9.23712 8.53221 9.23663 8.33999C9.23663 8.14733 9.16591 7.98571 9.02447 7.85515C8.88303 7.72459 8.7082 7.65954 8.49997 7.65999C8.29124 7.65999 8.11616 7.72528 7.97472 7.85583C7.83328 7.98639 7.76281 8.14778 7.7633 8.33999C7.7633 8.53266 7.83402 8.69427 7.97546 8.82483C8.1169 8.95539 8.29174 9.02045 8.49997 9.01999ZM11.4466 9.01999C11.6554 9.01999 11.8304 8.95471 11.9719 8.82415C12.1133 8.69359 12.1838 8.53221 12.1833 8.33999C12.1833 8.14733 12.1126 7.98571 11.9711 7.85515C11.8297 7.72459 11.6549 7.65954 11.4466 7.65999C11.2379 7.65999 11.0628 7.72528 10.9214 7.85583C10.78 7.98639 10.7095 8.14778 10.71 8.33999C10.71 8.53266 10.7807 8.69427 10.9221 8.82483C11.0636 8.95539 11.2384 9.02045 11.4466 9.01999ZM1.1333 16.5V4.25999C1.1333 3.88599 1.27769 3.56571 1.56646 3.29915C1.85523 3.03259 2.20196 2.89954 2.60663 2.9H14.3933C14.7985 2.9 15.1454 3.03328 15.4342 3.29984C15.723 3.56639 15.8671 3.88645 15.8666 4.25999V12.42C15.8666 12.794 15.7222 13.1143 15.4335 13.3808C15.1447 13.6474 14.798 13.7804 14.3933 13.78H4.07997L1.1333 16.5Z" fill="#475768"/>
</g>
<defs>
<clipPath id="clip0_745_29952">
<rect width="17" height="15.8667" fill="white" transform="translate(0 0.633331)"/>
</clipPath>
</defs>
</svg>
