<svg width="18" height="19" viewBox="0 0 18 19" fill="none" xmlns="http://www.w3.org/2000/svg">
<path d="M8.5 6.5C9.32843 6.5 10 5.82843 10 5C10 4.17157 9.32843 3.5 8.5 3.5C7.67157 3.5 7 4.17157 7 5C7 5.82843 7.67157 6.5 8.5 6.5Z" fill="#25282C"/>
<path d="M8.5 11C9.32843 11 10 10.3284 10 9.5C10 8.67157 9.32843 8 8.5 8C7.67157 8 7 8.67157 7 9.5C7 10.3284 7.67157 11 8.5 11Z" fill="#25282C"/>
<path d="M8.5 15.5C9.32843 15.5 10 14.8284 10 14C10 13.1716 9.32843 12.5 8.5 12.5C7.67157 12.5 7 13.1716 7 14C7 14.8284 7.67157 15.5 8.5 15.5Z" fill="#25282C"/>
</svg>
