<svg width="15" height="15" viewBox="0 0 15 15" fill="none" xmlns="http://www.w3.org/2000/svg">
<g id="fluent:book-contacts-24-filled">
<path id="Vector" d="M4.0625 1.25C3.6481 1.25 3.25067 1.41462 2.95765 1.70765C2.66462 2.00067 2.5 2.3981 2.5 2.8125V12.1875C2.5 12.6019 2.66462 12.9993 2.95765 13.2924C3.25067 13.5854 3.6481 13.75 4.0625 13.75H12.3438C12.4681 13.75 12.5873 13.7006 12.6752 13.6127C12.7631 13.5248 12.8125 13.4056 12.8125 13.2812C12.8125 13.1569 12.7631 13.0377 12.6752 12.9498C12.5873 12.8619 12.4681 12.8125 12.3438 12.8125H4.0625C3.89674 12.8125 3.73777 12.7467 3.62056 12.6294C3.50335 12.5122 3.4375 12.3533 3.4375 12.1875H12.3438C12.4681 12.1875 12.5873 12.1381 12.6752 12.0502C12.7631 11.9623 12.8125 11.8431 12.8125 11.7188V2.8125C12.8125 2.60731 12.7721 2.40413 12.6936 2.21456C12.615 2.02499 12.4999 1.85274 12.3549 1.70765C12.2098 1.56255 12.0375 1.44746 11.8479 1.36894C11.6584 1.29042 11.4552 1.25 11.25 1.25H4.0625ZM9.6875 7.65625V7.96875C9.6875 8.59375 8.82312 9.0625 7.65625 9.0625C6.48938 9.0625 5.625 8.59375 5.625 7.96875V7.65625C5.625 7.53193 5.67439 7.4127 5.76229 7.32479C5.8502 7.23689 5.96943 7.1875 6.09375 7.1875H9.21875C9.34307 7.1875 9.4623 7.23689 9.55021 7.32479C9.63811 7.4127 9.6875 7.53193 9.6875 7.65625ZM8.75 5.46562C8.75 5.75571 8.63477 6.03391 8.42965 6.23902C8.22453 6.44414 7.94633 6.55937 7.65625 6.55937C7.36617 6.55937 7.08797 6.44414 6.88285 6.23902C6.67773 6.03391 6.5625 5.75571 6.5625 5.46562C6.5625 4.8625 7.05188 4.375 7.65625 4.375C8.26062 4.375 8.75 4.86187 8.75 5.46562Z" fill="#3D4148"/>
</g>
</svg>
