<svg xmlns="http://www.w3.org/2000/svg" width="25" height="25" viewBox="0 0 25 25">
  <g id="icons8-google" transform="translate(-4 -4)">
    <path id="Path_8461" data-name="Path 8461" d="M28.757,14.052H27.75V14H16.5v5h7.064a7.506,7.506,0,1,1-2.089-8.1l3.536-3.536A12.487,12.487,0,1,0,29,16.5,12.585,12.585,0,0,0,28.757,14.052Z" fill="#fbc02d"/>
    <path id="Path_8462" data-name="Path 8462" d="M6.306,10.682l4.107,3.012A7.485,7.485,0,0,1,22.34,10.9l3.536-3.536a12.475,12.475,0,0,0-19.57,3.318Z" transform="translate(-0.865)" fill="#e53935"/>
    <path id="Path_8463" data-name="Path 8463" d="M17.323,38.02A12.441,12.441,0,0,0,25.7,34.775L21.835,31.5a7.481,7.481,0,0,1-11.564-3.448L6.195,31.195A12.49,12.49,0,0,0,17.323,38.02Z" transform="translate(-0.823 -9.02)" fill="#4caf50"/>
    <path id="Path_8464" data-name="Path 8464" d="M36.257,20.052,36.247,20H24v5h7.064a7.525,7.525,0,0,1-2.554,3.482h0l3.869,3.274A12.092,12.092,0,0,0,36.5,22.5,12.585,12.585,0,0,0,36.257,20.052Z" transform="translate(-7.5 -6)" fill="#1565c0"/>
  </g>
</svg>
