<svg xmlns="http://www.w3.org/2000/svg" width="130.707" height="45.649" viewBox="0 0 130.707 45.649">
  <g id="KanTime-Logo-Tagline" transform="translate(-19.8 -105.6)">
    <g id="Group_10218" data-name="Group 10218" transform="translate(19.8 120.141)">
      <path id="Path_8439" data-name="Path 8439" d="M56.556,269.343a4.967,4.967,0,0,0-3.612,1.5v-1.329H49.423v14.467h1.641l.018-.009a1.945,1.945,0,0,0,1.944-1.944h0v-6.794a2.417,2.417,0,1,1,4.813,0v8.747H59.48l.018-.009a1.945,1.945,0,0,0,1.944-1.944v-7.3a5.352,5.352,0,0,0-1.467-4.107,4.716,4.716,0,0,0-3.42-1.284m15.779,14.633H70.693V269.508h3.612v12.515a1.945,1.945,0,0,1-1.944,1.944Zm-6.436,0H64.257V267.812H57.83V264.2H74.3v3.612H67.869v14.211a1.945,1.945,0,0,1-1.944,1.944ZM35.5,264.209H31.141l-7.124,9.636L31.5,283.976h4.41l-7.738-10.131Zm-15.7,0v19.767h1.879l.018-.009a1.945,1.945,0,0,0,1.944-1.944l.009-.064v-17.75Zm23.718,14.44a2.353,2.353,0,0,1-.532,1.834,2.847,2.847,0,0,1-2.274.7c-1.421,0-2.081-.669-2.081-1.669,0-1.027.724-1.641,2.026-1.641h2.86v.779Zm-2.549-9.306c-2.42,0-3.8.44-5.217,2l2.3,2.246a3.1,3.1,0,0,1,2.778-1.192c1.916,0,2.7.7,2.7,2.274v.724h-3.42c-3.356,0-4.942,1.889-4.942,4.19a3.886,3.886,0,0,0,1.192,2.925c1.256,1.256,2.521,1.6,4.786,1.6s3.53-.339,4.786-1.6a5.886,5.886,0,0,0,1.192-3.713V274.45c.009-3.383-2.1-5.107-6.152-5.107m65.306,14.77c-4.052,0-6.161-1.724-6.161-5.107v-4.355a5.886,5.886,0,0,1,1.192-3.713c1.256-1.256,2.521-1.6,4.786-1.6s3.53.339,4.786,1.6a3.867,3.867,0,0,1,1.192,2.925c0,2.3-1.586,4.19-4.942,4.19h-3.411v.724c0,1.586.779,2.274,2.7,2.274a3.111,3.111,0,0,0,2.778-1.192l2.3,2.246c-1.412,1.568-2.8,2.008-5.217,2.008m.257-11.827a2.836,2.836,0,0,0-2.274.7,2.389,2.389,0,0,0-.532,1.834v.779h2.861c1.3,0,2.026-.614,2.026-1.641,0-1-.669-1.669-2.081-1.669m-10.654,11.69H94.246v-8.747a2.41,2.41,0,1,0-4.8-.083v6.84l-.009.037a1.945,1.945,0,0,1-1.944,1.944l-.018.009H85.83v-8.747a2.327,2.327,0,0,0-2.384-2.64,2.351,2.351,0,0,0-2.42,2.64v6.84a1.941,1.941,0,0,1-1.944,1.9l-.018.009h-1.65V269.508h3.521v1.329a5.054,5.054,0,0,1,3.612-1.494,4.487,4.487,0,0,1,3.832,1.834,5.513,5.513,0,0,1,4.327-1.834,5.081,5.081,0,0,1,3.557,1.274,5.465,5.465,0,0,1,1.586,4.107v7.252l-.009.037a1.945,1.945,0,0,1-1.944,1.944Z" transform="translate(-19.8 -264.2)" fill="#00396b"/>
    </g>
    <path id="Path_8440" data-name="Path 8440" d="M957.868,239.376H956.4V237.9h-.834v1.476H954.1v.834h1.467v1.467h.834V240.21h1.467Z" transform="translate(-848.641 -120.17)" fill="#2cb34a"/>
    <path id="Path_8441" data-name="Path 8441" d="M650.9,177.939h-3.548V174.4h-2.017v3.539H641.8v2.017h3.539v3.539h2.017v-3.539H650.9Z" transform="translate(-564.973 -62.492)" fill="#fdb714"/>
    <path id="Path_8442" data-name="Path 8442" d="M797.318,141.894h-2.5V139.4h-1.421v2.494H790.9v1.421h2.494v2.5h1.421v-2.5h2.5Z" transform="translate(-700.404 -30.701)" fill="#c8531f"/>
    <path id="Path_8443" data-name="Path 8443" d="M868.943,170.846H865.7V167.6h-1.852v3.246H860.6v1.843h3.246v3.246H865.7v-3.246h3.245Z" transform="translate(-763.713 -56.316)" fill="#3ca5d5"/>
    <path id="Path_8444" data-name="Path 8444" d="M984.511,105.6v2.411H982.1v1.366h2.411v2.411h1.375v-2.411h2.4v-1.366h-2.4V105.6Z" transform="translate(-874.074 0)" fill="#c7c8ca"/>
    <g id="Group_10219" data-name="Group 10219" transform="translate(49.744 143.804)">
      <path id="Path_8445" data-name="Path 8445" d="M349.911,530.649a.13.13,0,0,1-.018.055.084.084,0,0,1-.055.037.283.283,0,0,1-.1.018.7.7,0,0,1-.147.009.745.745,0,0,1-.156-.009c-.037-.009-.073-.009-.1-.018a.084.084,0,0,1-.055-.037.13.13,0,0,1-.018-.055V528.5h-2.2v2.145a.13.13,0,0,1-.018.055.084.084,0,0,1-.055.037.283.283,0,0,1-.1.018.745.745,0,0,1-.156.009.792.792,0,0,1-.156-.009c-.046-.009-.073-.009-.1-.018a.084.084,0,0,1-.055-.037.13.13,0,0,1-.018-.055v-4.63a.13.13,0,0,1,.018-.055.084.084,0,0,1,.055-.037.283.283,0,0,1,.1-.018,1.331,1.331,0,0,1,.312,0c.037.009.073.009.1.018a.084.084,0,0,1,.055.037.13.13,0,0,1,.018.055v1.935h2.2v-1.935a.13.13,0,0,1,.018-.055.084.084,0,0,1,.055-.037.283.283,0,0,1,.1-.018.745.745,0,0,1,.156-.009.653.653,0,0,1,.147.009c.037.009.073.009.1.018a.084.084,0,0,1,.055.037.13.13,0,0,1,.018.055Z" transform="translate(-346.4 -525.57)" fill="#00396b"/>
      <path id="Path_8446" data-name="Path 8446" d="M396.332,541.243a2.261,2.261,0,0,0-.055-.513,1.35,1.35,0,0,0-.165-.422.872.872,0,0,0-.312-.293,1.039,1.039,0,0,0-.5-.11,1.106,1.106,0,0,0-.477.1.947.947,0,0,0-.33.275,1.374,1.374,0,0,0-.193.422,2.363,2.363,0,0,0-.009,1.054,1.168,1.168,0,0,0,.174.422.8.8,0,0,0,.321.284,1.014,1.014,0,0,0,.5.11.928.928,0,0,0,.468-.1.873.873,0,0,0,.33-.275,1.375,1.375,0,0,0,.193-.422,2.369,2.369,0,0,0,.055-.532m.633-.046a2.442,2.442,0,0,1-.11.752,1.772,1.772,0,0,1-.321.6,1.586,1.586,0,0,1-.541.394,1.9,1.9,0,0,1-.752.138,1.968,1.968,0,0,1-.724-.119A1.365,1.365,0,0,1,394,542.6a1.473,1.473,0,0,1-.3-.568,2.732,2.732,0,0,1-.1-.761,2.442,2.442,0,0,1,.11-.752,1.625,1.625,0,0,1,.321-.6,1.5,1.5,0,0,1,.532-.385,1.9,1.9,0,0,1,.752-.138,1.968,1.968,0,0,1,.724.119,1.365,1.365,0,0,1,.513.358,1.622,1.622,0,0,1,.312.568,2.407,2.407,0,0,1,.1.752" transform="translate(-389.273 -537.832)" fill="#00396b"/>
      <path id="Path_8447" data-name="Path 8447" d="M439.088,540.01a.179.179,0,0,1-.009.064.489.489,0,0,1-.028.092l-.99,3.191a.14.14,0,0,1-.1.1.36.36,0,0,1-.119.018c-.046,0-.11.009-.183.009a1.175,1.175,0,0,1-.193-.009c-.055-.009-.092-.009-.128-.018a.2.2,0,0,1-.064-.037.148.148,0,0,1-.037-.064l-.706-2.439-.009-.037-.009.037-.651,2.439a.149.149,0,0,1-.037.064.138.138,0,0,1-.073.037.479.479,0,0,1-.128.018c-.055,0-.11.009-.193.009a1.232,1.232,0,0,1-.193-.009c-.046-.009-.092-.009-.119-.018a.2.2,0,0,1-.064-.037.148.148,0,0,1-.037-.064l-.981-3.191c-.009-.037-.018-.064-.028-.092a.179.179,0,0,1-.009-.064.129.129,0,0,1,.018-.055.141.141,0,0,1,.055-.037.272.272,0,0,1,.092-.018h.147a.79.79,0,0,1,.165.009.284.284,0,0,1,.1.018.092.092,0,0,1,.046.037l.027.055.807,2.769.009.037.009-.037.743-2.769c.009-.018.009-.037.027-.055a.091.091,0,0,1,.046-.037.231.231,0,0,1,.092-.018c.037,0,.092-.009.147-.009a.649.649,0,0,1,.147.009.271.271,0,0,1,.092.018.091.091,0,0,1,.046.037.13.13,0,0,1,.018.055l.807,2.778.009.037V542.8l.8-2.769c.009-.018.009-.037.028-.055a.084.084,0,0,1,.055-.037.284.284,0,0,1,.1-.018c.037,0,.092-.009.156-.009h.147a.183.183,0,0,1,.083.018.092.092,0,0,1,.046.037c.018,0,.027.018.027.046" transform="translate(-425.969 -538.286)" fill="#00396b"/>
      <path id="Path_8448" data-name="Path 8448" d="M514.665,525.8a3.011,3.011,0,0,0-.028-.413,1.035,1.035,0,0,0-.11-.348.771.771,0,0,0-.2-.247.5.5,0,0,0-.312-.092.636.636,0,0,0-.183.027.574.574,0,0,0-.183.092,1.547,1.547,0,0,0-.193.165,2.1,2.1,0,0,0-.211.248v1.1a1.884,1.884,0,0,0,.376.385.6.6,0,0,0,.376.128.5.5,0,0,0,.312-.092.875.875,0,0,0,.211-.238.993.993,0,0,0,.119-.339,2.5,2.5,0,0,0,.028-.376m.981-.064a3.059,3.059,0,0,1-.1.8,1.682,1.682,0,0,1-.284.605,1.294,1.294,0,0,1-.449.385,1.281,1.281,0,0,1-.605.137,1.646,1.646,0,0,1-.312-.027.9.9,0,0,1-.275-.1,1.206,1.206,0,0,1-.257-.183,3.389,3.389,0,0,1-.266-.257v.358a.133.133,0,0,1-.018.064.117.117,0,0,1-.064.046.974.974,0,0,1-.128.027,2.015,2.015,0,0,1-.385,0,.326.326,0,0,1-.119-.027.116.116,0,0,1-.064-.046.133.133,0,0,1-.018-.064v-4.905a.133.133,0,0,1,.018-.064.144.144,0,0,1,.073-.046.519.519,0,0,1,.147-.028,1.631,1.631,0,0,1,.229-.009,1.7,1.7,0,0,1,.229.009,1.435,1.435,0,0,1,.147.028.113.113,0,0,1,.073.046.087.087,0,0,1,.018.064v1.834a1.922,1.922,0,0,1,.257-.22,1.028,1.028,0,0,1,.257-.147,1.383,1.383,0,0,1,.257-.083,1.421,1.421,0,0,1,.284-.028,1.185,1.185,0,0,1,.623.147,1.242,1.242,0,0,1,.422.394,1.791,1.791,0,0,1,.238.587,3.47,3.47,0,0,1,.073.706" transform="translate(-497.09 -522.391)" fill="#00396b"/>
      <path id="Path_8449" data-name="Path 8449" d="M555.647,540.222a.986.986,0,0,0-.156-.623.616.616,0,0,0-.523-.229.678.678,0,0,0-.312.064.539.539,0,0,0-.22.183,1.033,1.033,0,0,0-.138.266,1.781,1.781,0,0,0-.055.33l1.4.009Zm.908.266a.39.39,0,0,1-.073.257.276.276,0,0,1-.211.083h-2.026a1.644,1.644,0,0,0,.046.385.89.89,0,0,0,.156.293.613.613,0,0,0,.284.183,1.148,1.148,0,0,0,.413.064,1.989,1.989,0,0,0,.431-.037,2.029,2.029,0,0,0,.321-.083,2.119,2.119,0,0,0,.229-.083.374.374,0,0,1,.147-.037c.018,0,.037.009.055.009a.091.091,0,0,1,.037.046.23.23,0,0,1,.018.092c0,.037.009.092.009.156v.138c0,.037-.009.073-.009.1a.589.589,0,0,1-.018.064c-.009.018-.027.037-.037.055a1,1,0,0,1-.128.073c-.073.027-.165.055-.275.092a3.243,3.243,0,0,1-.385.073,3.716,3.716,0,0,1-.458.037,2.5,2.5,0,0,1-.779-.11,1.317,1.317,0,0,1-.889-.917,2.7,2.7,0,0,1-.11-.816,2.429,2.429,0,0,1,.119-.8,1.623,1.623,0,0,1,.339-.605,1.445,1.445,0,0,1,.532-.376,1.949,1.949,0,0,1,.715-.128,1.886,1.886,0,0,1,.715.119,1.254,1.254,0,0,1,.486.339,1.327,1.327,0,0,1,.275.513,2.109,2.109,0,0,1,.092.651v.165Z" transform="translate(-534.331 -537.196)" fill="#00396b"/>
      <path id="Path_8450" data-name="Path 8450" d="M595.34,532.2a1.519,1.519,0,0,1-.018.248.24.24,0,0,1-.055.119.274.274,0,0,1-.1.064.684.684,0,0,1-.147.046,1.019,1.019,0,0,1-.193.037,1.487,1.487,0,0,1-.2.009,1.5,1.5,0,0,1-.486-.073.779.779,0,0,1-.339-.22.948.948,0,0,1-.2-.367,1.837,1.837,0,0,1-.064-.532v-1.7H592.1V531.4a.817.817,0,0,0,.083.413.323.323,0,0,0,.3.138.694.694,0,0,0,.138-.009l.11-.027.083-.028a.116.116,0,0,1,.055-.009c.018,0,.028.009.046.009a.079.079,0,0,1,.027.055.342.342,0,0,1,.018.11.942.942,0,0,1,.009.174.79.79,0,0,1-.009.165.329.329,0,0,1-.018.1.583.583,0,0,1-.018.064.242.242,0,0,1-.046.055.4.4,0,0,1-.092.055.688.688,0,0,1-.147.046,1.08,1.08,0,0,1-.193.027c-.073,0-.138.009-.211.009a1.546,1.546,0,0,1-.486-.073.779.779,0,0,1-.339-.22.949.949,0,0,1-.2-.367,1.836,1.836,0,0,1-.064-.532v-1.724h-.4c-.046,0-.083-.028-.11-.092a.754.754,0,0,1-.037-.293,1.105,1.105,0,0,1,.009-.183,1.2,1.2,0,0,1,.027-.119.164.164,0,0,1,.046-.064.133.133,0,0,1,.064-.018h.394v-.743a.133.133,0,0,1,.018-.064.168.168,0,0,1,.073-.055.522.522,0,0,1,.147-.028,2.873,2.873,0,0,1,.458,0,1.444,1.444,0,0,1,.147.028.1.1,0,0,1,.073.055.087.087,0,0,1,.018.064v.743h1.43v-.917a.133.133,0,0,1,.018-.064.114.114,0,0,1,.073-.046,1.43,1.43,0,0,1,.147-.027,2.854,2.854,0,0,1,.458,0,1.429,1.429,0,0,1,.147.027.113.113,0,0,1,.073.046.087.087,0,0,1,.018.064v.917h.724a.133.133,0,0,1,.064.018.117.117,0,0,1,.046.064.326.326,0,0,1,.027.119,1.057,1.057,0,0,1,.009.183.754.754,0,0,1-.037.293c-.028.055-.064.092-.11.092h-.724V531.4a.818.818,0,0,0,.083.413.33.33,0,0,0,.312.138.7.7,0,0,0,.138-.009c.037-.009.073-.018.1-.027l.083-.028a.156.156,0,0,1,.064-.009c.018,0,.028.009.037.009a.149.149,0,0,1,.028.055.342.342,0,0,1,.018.11c.037.018.037.083.037.147" transform="translate(-568.211 -527.477)" fill="#00396b"/>
      <path id="Path_8451" data-name="Path 8451" d="M647.438,540.222a.986.986,0,0,0-.156-.623.616.616,0,0,0-.523-.229.679.679,0,0,0-.312.064.54.54,0,0,0-.22.183,1.035,1.035,0,0,0-.138.266,1.766,1.766,0,0,0-.055.33l1.4.009Zm.908.266a.39.39,0,0,1-.073.257.276.276,0,0,1-.211.083h-2.026a1.641,1.641,0,0,0,.046.385.765.765,0,0,0,.165.293.613.613,0,0,0,.284.183,1.147,1.147,0,0,0,.413.064,1.99,1.99,0,0,0,.431-.037,2.032,2.032,0,0,0,.321-.083,2.127,2.127,0,0,0,.229-.083.374.374,0,0,1,.147-.037c.018,0,.037.009.055.009a.092.092,0,0,1,.037.046.23.23,0,0,1,.018.092c0,.037.009.092.009.156v.138c0,.037-.009.073-.009.1a.577.577,0,0,1-.018.064c-.009.018-.028.037-.037.055a1,1,0,0,1-.128.073c-.073.027-.165.055-.275.092a3.243,3.243,0,0,1-.385.073,3.716,3.716,0,0,1-.458.037,2.5,2.5,0,0,1-.779-.11,1.433,1.433,0,0,1-.559-.339,1.368,1.368,0,0,1-.33-.578,2.7,2.7,0,0,1-.11-.816,2.429,2.429,0,0,1,.119-.8,1.623,1.623,0,0,1,.339-.605,1.445,1.445,0,0,1,.532-.376,1.949,1.949,0,0,1,.715-.128,1.886,1.886,0,0,1,.715.119,1.253,1.253,0,0,1,.486.339,1.327,1.327,0,0,1,.275.513,2.109,2.109,0,0,1,.092.651v.165Z" transform="translate(-617.714 -537.196)" fill="#00396b"/>
      <path id="Path_8452" data-name="Path 8452" d="M689.527,539.323a1.483,1.483,0,0,1-.009.22c-.009.055-.009.1-.018.138s-.018.055-.037.064a.133.133,0,0,1-.064.018.155.155,0,0,1-.064-.009l-.083-.027c-.028-.009-.064-.018-.1-.028a.485.485,0,0,0-.119-.009.324.324,0,0,0-.156.037.534.534,0,0,0-.165.1,1.042,1.042,0,0,0-.174.174,1.787,1.787,0,0,0-.193.275v2.072a.083.083,0,0,1-.027.064.145.145,0,0,1-.073.046,1.433,1.433,0,0,1-.147.028,2.873,2.873,0,0,1-.458,0,1.438,1.438,0,0,1-.147-.028.113.113,0,0,1-.073-.046.077.077,0,0,1-.018-.064V539.02a.132.132,0,0,1,.018-.064.117.117,0,0,1,.064-.046c.037-.009.073-.018.128-.028a1.233,1.233,0,0,1,.193-.009,1.3,1.3,0,0,1,.2.009.787.787,0,0,1,.119.028.165.165,0,0,1,.064.046.133.133,0,0,1,.018.064v.413a2.464,2.464,0,0,1,.248-.312,1.032,1.032,0,0,1,.22-.193.737.737,0,0,1,.211-.1.834.834,0,0,1,.211-.028.374.374,0,0,1,.1.009.632.632,0,0,1,.119.018c.037.009.073.018.1.028a.2.2,0,0,1,.064.037c.009.009.028.027.028.037a.6.6,0,0,1,.018.064.414.414,0,0,1,.009.119,1.3,1.3,0,0,0-.009.211" transform="translate(-656.136 -537.287)" fill="#00396b"/>
      <path id="Path_8453" data-name="Path 8453" d="M736.67,527.388a.07.07,0,0,1-.018.046.2.2,0,0,1-.046.037.231.231,0,0,1-.092.018.7.7,0,0,1-.147.009.9.9,0,0,1-.248-.027.091.091,0,0,1-.046-.037.07.07,0,0,1-.018-.046v-1.962a1.962,1.962,0,0,0-.046-.458.911.911,0,0,0-.128-.3.559.559,0,0,0-.22-.193.678.678,0,0,0-.312-.064.761.761,0,0,0-.458.165,2.415,2.415,0,0,0-.486.486v2.347a.07.07,0,0,1-.018.046.2.2,0,0,1-.046.037.23.23,0,0,1-.092.018.749.749,0,0,1-.156.009.658.658,0,0,1-.147-.009.8.8,0,0,1-.092-.018.065.065,0,0,1-.046-.037.069.069,0,0,1-.009-.046v-4.987a.116.116,0,0,1,.009-.055.092.092,0,0,1,.046-.037.27.27,0,0,1,.092-.018.692.692,0,0,1,.147-.009.786.786,0,0,1,.156.009.769.769,0,0,1,.092.018.091.091,0,0,1,.046.037.13.13,0,0,1,.018.055v2.008a2.089,2.089,0,0,1,.532-.413,1.184,1.184,0,0,1,.541-.138,1.336,1.336,0,0,1,.568.11.919.919,0,0,1,.367.3,1.183,1.183,0,0,1,.2.449,2.943,2.943,0,0,1,.064.614l-.009,2.035Z" transform="translate(-698.282 -522.3)" fill="#00396b"/>
      <path id="Path_8454" data-name="Path 8454" d="M775.254,541.3h-.523a2.091,2.091,0,0,0-.44.046.885.885,0,0,0-.312.128.481.481,0,0,0-.183.2.64.64,0,0,0-.055.275.532.532,0,0,0,.165.413.669.669,0,0,0,.468.156.846.846,0,0,0,.449-.119,1.938,1.938,0,0,0,.431-.376Zm.605,1.531a.071.071,0,0,1-.028.064.173.173,0,0,1-.083.037.7.7,0,0,1-.156.009.745.745,0,0,1-.156-.009.173.173,0,0,1-.083-.037.083.083,0,0,1-.027-.064v-.339a1.738,1.738,0,0,1-.5.367,1.355,1.355,0,0,1-.568.128,1.532,1.532,0,0,1-.477-.073.95.95,0,0,1-.367-.2.843.843,0,0,1-.238-.321,1.094,1.094,0,0,1-.082-.431.943.943,0,0,1,.119-.5.921.921,0,0,1,.33-.348,1.652,1.652,0,0,1,.532-.211,3.271,3.271,0,0,1,.706-.073h.458v-.257a1.236,1.236,0,0,0-.037-.339.634.634,0,0,0-.128-.247.527.527,0,0,0-.238-.147,1.058,1.058,0,0,0-.358-.046,1.449,1.449,0,0,0-.413.055,2.149,2.149,0,0,0-.321.119c-.092.046-.165.083-.229.119a.341.341,0,0,1-.138.055.131.131,0,0,1-.055-.018.092.092,0,0,1-.037-.046.637.637,0,0,1-.028-.073.343.343,0,0,1-.009-.1.649.649,0,0,1,.009-.147.174.174,0,0,1,.064-.1.571.571,0,0,1,.174-.11,1.661,1.661,0,0,1,.284-.119,3.21,3.21,0,0,1,.348-.092,1.829,1.829,0,0,1,.385-.037,1.99,1.99,0,0,1,.614.083,1.137,1.137,0,0,1,.413.238,1,1,0,0,1,.229.394,1.952,1.952,0,0,1,.073.55v2.265Z" transform="translate(-733.979 -537.741)" fill="#00396b"/>
      <path id="Path_8455" data-name="Path 8455" d="M816.53,540.989a2.85,2.85,0,0,0-.037-.5,1.579,1.579,0,0,0-.137-.431.824.824,0,0,0-.257-.3.7.7,0,0,0-.4-.11.718.718,0,0,0-.238.037,1.8,1.8,0,0,0-.238.11,1.6,1.6,0,0,0-.247.2,1.9,1.9,0,0,0-.275.312v1.339a2.6,2.6,0,0,0,.486.477.812.812,0,0,0,.477.165.74.74,0,0,0,.4-.11.88.88,0,0,0,.275-.3,1.915,1.915,0,0,0,.156-.422,2.671,2.671,0,0,0,.037-.468m.642-.073a2.956,2.956,0,0,1-.092.788,1.792,1.792,0,0,1-.275.6,1.22,1.22,0,0,1-.458.376,1.356,1.356,0,0,1-.624.128,1.276,1.276,0,0,1-.275-.028,1.351,1.351,0,0,1-.247-.092,1.009,1.009,0,0,1-.238-.165,2.72,2.72,0,0,1-.257-.229v2.595a.131.131,0,0,1-.018.055.092.092,0,0,1-.046.037.23.23,0,0,1-.092.018.746.746,0,0,1-.156.009.654.654,0,0,1-.147-.009.8.8,0,0,1-.092-.018.065.065,0,0,1-.046-.037.116.116,0,0,1-.009-.055v-5.611a.116.116,0,0,1,.009-.055.1.1,0,0,1,.046-.037.219.219,0,0,1,.083-.018c.037,0,.073-.009.128-.009a.521.521,0,0,1,.128.009.182.182,0,0,1,.083.018.091.091,0,0,1,.046.037.1.1,0,0,1,.009.055v.449c.1-.1.2-.193.293-.275a2.6,2.6,0,0,1,.284-.193,1.162,1.162,0,0,1,.293-.119,1.233,1.233,0,0,1,.321-.037,1.208,1.208,0,0,1,.623.147,1.134,1.134,0,0,1,.422.385,1.864,1.864,0,0,1,.238.568,4.614,4.614,0,0,1,.064.715" transform="translate(-771.22 -537.56)" fill="#00396b"/>
      <path id="Path_8456" data-name="Path 8456" d="M858.639,540.989a2.856,2.856,0,0,0-.037-.5,1.583,1.583,0,0,0-.138-.431.824.824,0,0,0-.257-.3.7.7,0,0,0-.4-.11.718.718,0,0,0-.238.037,1.788,1.788,0,0,0-.238.11,1.591,1.591,0,0,0-.248.2,1.9,1.9,0,0,0-.275.312v1.339a2.6,2.6,0,0,0,.486.477.812.812,0,0,0,.477.165.74.74,0,0,0,.4-.11.88.88,0,0,0,.275-.3,1.912,1.912,0,0,0,.156-.422,4.007,4.007,0,0,0,.037-.468m.633-.073a2.958,2.958,0,0,1-.092.788,1.791,1.791,0,0,1-.275.6,1.221,1.221,0,0,1-.458.376,1.356,1.356,0,0,1-.623.128,1.276,1.276,0,0,1-.275-.028,1.356,1.356,0,0,1-.248-.092,1.012,1.012,0,0,1-.238-.165,2.728,2.728,0,0,1-.257-.229v2.595a.131.131,0,0,1-.018.055.091.091,0,0,1-.046.037.23.23,0,0,1-.092.018.745.745,0,0,1-.156.009.653.653,0,0,1-.147-.009.793.793,0,0,1-.092-.018.065.065,0,0,1-.046-.037.117.117,0,0,1-.009-.055v-5.611a.117.117,0,0,1,.009-.055.1.1,0,0,1,.046-.037.218.218,0,0,1,.083-.018c.037,0,.073-.009.128-.009a.521.521,0,0,1,.128.009.182.182,0,0,1,.083.018.092.092,0,0,1,.046.037.1.1,0,0,1,.009.055v.449c.1-.1.2-.193.293-.275a2.584,2.584,0,0,1,.284-.193,1.163,1.163,0,0,1,.293-.119,1.233,1.233,0,0,1,.321-.037,1.207,1.207,0,0,1,.623.147,1.134,1.134,0,0,1,.422.385,1.86,1.86,0,0,1,.238.568,3.706,3.706,0,0,1,.064.715" transform="translate(-809.46 -537.56)" fill="#00396b"/>
      <path id="Path_8457" data-name="Path 8457" d="M898.448,540.822a1.093,1.093,0,0,0-.22-.761.82.82,0,0,0-.678-.275.933.933,0,0,0-.4.082.8.8,0,0,0-.293.229,1.143,1.143,0,0,0-.183.33,1.428,1.428,0,0,0-.073.394Zm.614.183a.278.278,0,0,1-.073.211.263.263,0,0,1-.165.064h-2.21a2.124,2.124,0,0,0,.055.5,1.07,1.07,0,0,0,.183.385.835.835,0,0,0,.339.248,1.4,1.4,0,0,0,.513.083,2.1,2.1,0,0,0,.431-.037,1.968,1.968,0,0,0,.321-.092,1.988,1.988,0,0,0,.229-.092.308.308,0,0,1,.138-.037.068.068,0,0,1,.046.009c.009.009.028.018.037.037s.009.046.018.073.009.064.009.11v.083c0,.027-.009.046-.009.064a.07.07,0,0,1-.018.046.159.159,0,0,1-.037.046.553.553,0,0,1-.119.064,2.006,2.006,0,0,1-.257.092c-.11.027-.229.055-.367.082a2.339,2.339,0,0,1-.449.037,1.971,1.971,0,0,1-.724-.119,1.294,1.294,0,0,1-.523-.339,1.558,1.558,0,0,1-.321-.568,2.622,2.622,0,0,1-.11-.8,2.582,2.582,0,0,1,.11-.779,1.725,1.725,0,0,1,.321-.587,1.384,1.384,0,0,1,.513-.367,1.74,1.74,0,0,1,.669-.128,1.612,1.612,0,0,1,.669.128,1.33,1.33,0,0,1,.458.339,1.4,1.4,0,0,1,.266.5,2.211,2.211,0,0,1,.083.614v.119Z" transform="translate(-845.611 -537.741)" fill="#00396b"/>
      <path id="Path_8458" data-name="Path 8458" d="M941.07,543.012a.07.07,0,0,1-.018.046.2.2,0,0,1-.046.037.23.23,0,0,1-.092.018.7.7,0,0,1-.147.009.9.9,0,0,1-.247-.027.091.091,0,0,1-.046-.037.07.07,0,0,1-.018-.046v-1.962a1.964,1.964,0,0,0-.046-.458.912.912,0,0,0-.128-.3.56.56,0,0,0-.22-.192.677.677,0,0,0-.312-.064.761.761,0,0,0-.458.165,2.417,2.417,0,0,0-.486.486v2.347a.07.07,0,0,1-.018.046.2.2,0,0,1-.046.037.231.231,0,0,1-.092.018.745.745,0,0,1-.156.009.653.653,0,0,1-.147-.009.821.821,0,0,1-.092-.018.065.065,0,0,1-.046-.037.069.069,0,0,1-.009-.046v-3.356a.116.116,0,0,1,.009-.055.1.1,0,0,1,.046-.037.219.219,0,0,1,.083-.018c.037,0,.083-.009.138-.009a.6.6,0,0,1,.138.009.183.183,0,0,1,.083.018.2.2,0,0,1,.046.037c.009.009.009.028.009.055v.44a2.13,2.13,0,0,1,.568-.468,1.167,1.167,0,0,1,.568-.147,1.337,1.337,0,0,1,.568.11.92.92,0,0,1,.367.3,1.183,1.183,0,0,1,.2.449,2.939,2.939,0,0,1,.064.614v2.035Z" transform="translate(-883.942 -537.923)" fill="#00396b"/>
      <path id="Path_8459" data-name="Path 8459" d="M979.575,541.913a1.051,1.051,0,0,1-.092.458.974.974,0,0,1-.266.339,1.215,1.215,0,0,1-.422.211,1.959,1.959,0,0,1-.532.073,2.036,2.036,0,0,1-.339-.027,2.308,2.308,0,0,1-.293-.073,1.225,1.225,0,0,1-.22-.092.386.386,0,0,1-.128-.082.375.375,0,0,1-.064-.1.51.51,0,0,1-.018-.183.449.449,0,0,1,.009-.119c.009-.037.009-.055.018-.083a.2.2,0,0,1,.027-.046.069.069,0,0,1,.046-.009.333.333,0,0,1,.119.046c.055.028.119.073.2.11s.174.073.275.11a1.139,1.139,0,0,0,.367.055.93.93,0,0,0,.284-.037.607.607,0,0,0,.22-.1.5.5,0,0,0,.147-.165.482.482,0,0,0,.055-.238.409.409,0,0,0-.073-.238.719.719,0,0,0-.193-.174,2.389,2.389,0,0,0-.266-.128c-.1-.037-.2-.082-.312-.119a3.236,3.236,0,0,1-.312-.147,1.475,1.475,0,0,1-.275-.193.744.744,0,0,1-.193-.275.994.994,0,0,1-.073-.385,1.055,1.055,0,0,1,.073-.376.984.984,0,0,1,.229-.321,1.118,1.118,0,0,1,.385-.22,1.58,1.58,0,0,1,.532-.083,2.41,2.41,0,0,1,.266.018c.092.018.174.037.238.055a.691.691,0,0,1,.183.073,1.183,1.183,0,0,1,.119.064.156.156,0,0,1,.055.055c.009.018.018.028.018.046s.009.037.009.064.009.064.009.1a.379.379,0,0,1-.009.11.173.173,0,0,1-.018.073.092.092,0,0,1-.037.046.055.055,0,0,1-.037.009.223.223,0,0,1-.1-.037c-.046-.028-.1-.055-.165-.092a2.183,2.183,0,0,0-.238-.092,1.077,1.077,0,0,0-.312-.037.868.868,0,0,0-.275.037.476.476,0,0,0-.193.1.4.4,0,0,0-.119.156.478.478,0,0,0-.037.193.438.438,0,0,0,.073.248.892.892,0,0,0,.193.174q.124.069.275.138c.1.037.2.083.312.119s.211.092.312.147a1.474,1.474,0,0,1,.275.193.793.793,0,0,1,.193.266.771.771,0,0,1,.092.385" transform="translate(-919.367 -537.741)" fill="#00396b"/>
      <path id="Path_8460" data-name="Path 8460" d="M1011.707,570.222a.467.467,0,0,1-.092.348.461.461,0,0,1-.321.092.454.454,0,0,1-.312-.083.507.507,0,0,1-.083-.339.467.467,0,0,1,.092-.348.461.461,0,0,1,.321-.092.453.453,0,0,1,.312.083.474.474,0,0,1,.083.339" transform="translate(-949.977 -565.445)" fill="#00396b"/>
    </g>
    <g id="Group_10319" data-name="Group 10319" transform="translate(117.507 121.248)">
      <rect id="Rectangle_3573" data-name="Rectangle 3573" width="33" height="21" rx="2" fill="#19a823"/>
      <text id="EVV" transform="translate(5 15)" fill="#fff" font-size="12" font-family="Helvetica"><tspan x="0" y="0">EVV</tspan></text>
    </g>
  </g>
</svg>
