<svg width="11" height="11" viewBox="0 0 11 11" fill="none" xmlns="http://www.w3.org/2000/svg">
<path d="M5.83207 0.332031C4.80993 0.332031 3.81075 0.635128 2.96088 1.203C2.11101 1.77086 1.44861 2.578 1.05746 3.52232C0.666303 4.46665 0.563958 5.50576 0.763366 6.50826C0.962775 7.51075 1.45498 8.4316 2.17774 9.15436C2.9005 9.87712 3.82135 10.3693 4.82384 10.5687C5.82633 10.7681 6.86544 10.6658 7.80977 10.2746C8.7541 9.88349 9.56123 9.22109 10.1291 8.37122C10.697 7.52135 11.0001 6.52216 11.0001 5.50003C11.0001 4.12939 10.4556 2.81489 9.48639 1.8457C8.5172 0.876515 7.2027 0.332031 5.83207 0.332031ZM8.78506 5.86903H6.20106V8.45303H5.46407V5.86903H2.87907V5.13203H5.46407V2.54703H6.20206V5.13203H8.78607L8.78506 5.86903Z" fill="#33373E"/>
</svg>
