<svg width="32" height="32" viewBox="0 0 32 32" fill="none" xmlns="http://www.w3.org/2000/svg">
<rect width="32" height="32" rx="4" fill="#F4F5F6"/>
<path d="M11.125 21.75C10.7813 21.75 10.4869 21.6275 10.2419 21.3825C9.99688 21.1375 9.87458 20.8433 9.875 20.5V11.75C9.875 11.4062 9.9975 11.1119 10.2425 10.8669C10.4875 10.6219 10.7817 10.4996 11.125 10.5H11.75V9.25H13V10.5H18V9.25H19.25V10.5H19.875C20.2188 10.5 20.5131 10.6225 20.7581 10.8675C21.0031 11.1125 21.1254 11.4067 21.125 11.75V20.5C21.125 20.8438 21.0025 21.1381 20.7575 21.3831C20.5125 21.6281 20.2183 21.7504 19.875 21.75H11.125ZM11.125 20.5H19.875V14.25H11.125V20.5ZM11.125 13H19.875V11.75H11.125V13Z" fill="#3D4148"/>
</svg>
