<svg width="11" height="11" viewBox="0 0 11 11" fill="none" xmlns="http://www.w3.org/2000/svg">
<path d="M10.5974 7.9843L8.34841 6.8272C8.19483 6.7483 8.01869 6.72476 7.84974 6.76057C7.6808 6.79637 7.5294 6.88932 7.42113 7.02372L6.59796 8.08124C5.81414 7.67948 5.09936 7.15562 4.48048 6.52933C3.84138 5.89948 3.30785 5.17107 2.90031 4.372L3.94317 3.56124C4.07998 3.45477 4.17475 3.30346 4.21075 3.134C4.24675 2.96453 4.22166 2.78782 4.13992 2.63503L2.99295 0.400147C2.94518 0.307919 2.87853 0.226759 2.79731 0.161941C2.7161 0.0971224 2.62214 0.0500954 2.52154 0.0239151C2.42094 -0.00226516 2.31595 -0.00701304 2.2134 0.00998003C2.11084 0.0269731 2.01301 0.0653268 1.92626 0.12255L0.489023 1.07255C0.328843 1.18258 0.199838 1.33207 0.11451 1.50655C0.029183 1.68102 -0.00957199 1.87455 0.00200196 2.06838C0.023448 2.49719 0.082493 2.9233 0.178459 3.3418C0.696135 5.11177 1.66716 6.71621 2.99559 7.99664C4.27388 9.33056 5.88111 10.305 7.65582 10.822C8.07957 10.9129 8.50957 10.9718 8.94219 10.9982C9.14028 11.0094 9.3378 10.9681 9.51485 10.8787C9.6919 10.7893 9.84221 10.6548 9.95064 10.4888L10.8779 9.04181C10.9351 8.95567 10.9734 8.8584 10.9903 8.7564C11.0071 8.6544 11.0021 8.55 10.9756 8.45008C10.9491 8.35015 10.9016 8.25698 10.8364 8.17669C10.7713 8.0964 10.6898 8.03083 10.5974 7.9843Z" fill="#475768"/>
</svg>
