<svg width="7" height="5" viewBox="0 0 7 5" fill="none" xmlns="http://www.w3.org/2000/svg">
<path d="M3.48438 4.09375C3.40104 4.09375 3.32021 4.07812 3.24188 4.04687C3.16354 4.01562 3.09854 3.97396 3.04688 3.92187L0.171875 1.04688C0.0572914 0.932292 0 0.786458 0 0.609375C0 0.432291 0.0572914 0.286458 0.171875 0.171875C0.286458 0.0572914 0.432292 0 0.609375 0C0.786458 0 0.932292 0.0572914 1.04688 0.171875L3.48438 2.60938L5.92187 0.171875C6.03646 0.0572914 6.18229 0 6.35938 0C6.53646 0 6.68229 0.0572914 6.79687 0.171875C6.91146 0.286458 6.96875 0.432291 6.96875 0.609375C6.96875 0.786458 6.91146 0.932292 6.79687 1.04688L3.92187 3.92187C3.85937 3.98437 3.79167 4.02875 3.71875 4.055C3.64583 4.08125 3.56771 4.09417 3.48438 4.09375Z" fill="#25282C"/>
</svg>
