<svg width="20" height="19" viewBox="0 0 20 19" fill="none" xmlns="http://www.w3.org/2000/svg">
<path d="M9 4V8C9 8.28334 9.096 8.521 9.288 8.713C9.48 8.905 9.71734 9.00067 10 9C10.2833 9 10.521 8.904 10.713 8.712C10.905 8.52 11.0007 8.28267 11 8V4C11 3.71667 10.904 3.479 10.712 3.287C10.52 3.095 10.2827 2.99934 10 3C9.71667 3 9.479 3.096 9.287 3.288C9.095 3.48 8.99934 3.71734 9 4ZM10 13C10.2833 13 10.521 12.904 10.713 12.712C10.905 12.52 11.0007 12.2827 11 12C11 11.7167 10.904 11.479 10.712 11.287C10.52 11.095 10.2827 10.9993 10 11C9.71667 11 9.479 11.096 9.287 11.288C9.095 11.48 8.99934 11.7173 9 12C9 12.2833 9.096 12.521 9.288 12.713C9.48 12.905 9.71734 13.0007 10 13ZM1.62866e-06 17.575V2C1.62866e-06 1.45 0.196002 0.979002 0.588002 0.587002C0.980002 0.195002 1.45067 -0.000664969 2 1.69779e-06H18C18.55 1.69779e-06 19.021 0.196002 19.413 0.588002C19.805 0.980002 20.0007 1.45067 20 2V14C20 14.55 19.804 15.021 19.412 15.413C19.02 15.805 18.5493 16.0007 18 16H4L1.7 18.3C1.38334 18.6167 1.02067 18.6877 0.612002 18.513C0.203335 18.3383 -0.000665038 18.0257 1.62866e-06 17.575Z" fill="#3D4148"/>
</svg>
