<svg width="10" height="9" viewBox="0 0 10 9" fill="none" xmlns="http://www.w3.org/2000/svg">
<path fill-rule="evenodd" clip-rule="evenodd" d="M9.11887 2.40228L8.49587 3.02528C8.43945 3.08139 8.36311 3.11289 8.28353 3.11289C8.20395 3.11289 8.12761 3.08139 8.07119 3.02528L6.36936 1.32968C6.31293 1.27321 6.28123 1.19665 6.28123 1.11682C6.28123 1.03699 6.31293 0.960423 6.36936 0.903958L6.99236 0.280957C7.17292 0.101326 7.41726 0.000488281 7.67195 0.000488281C7.92665 0.000488281 8.17098 0.101326 8.35154 0.280957L9.11576 1.04621C9.29486 1.22623 9.39565 1.46967 9.39624 1.7236C9.39682 1.97754 9.29714 2.22144 9.11887 2.40228ZM7.68493 3.83622L3.13702 8.38412C2.95792 8.56811 2.72264 8.68721 2.46833 8.72262L0.673054 8.99674C0.635761 9.00236 0.59767 8.99915 0.561845 8.98737C0.526021 8.97558 0.493464 8.95555 0.466796 8.92888C0.440129 8.90221 0.420095 8.86965 0.408308 8.83383C0.396521 8.798 0.39331 8.75991 0.398933 8.72262L0.674092 6.92838C0.709728 6.67444 0.82881 6.43956 1.01259 6.26073L5.55842 1.7149C5.61484 1.65878 5.69118 1.62728 5.77076 1.62728C5.85034 1.62728 5.92668 1.65878 5.9831 1.7149L7.68493 3.41361C7.74042 3.46995 7.77152 3.54584 7.77152 3.62492C7.77152 3.70399 7.74042 3.77988 7.68493 3.83622Z" fill="#33373E"/>
</svg>
