<svg width="14" height="11" viewBox="0 0 14 11" fill="none" xmlns="http://www.w3.org/2000/svg">
<path d="M11.84 0.5H1.76C1.067 0.5 0.5063 1.09062 0.5063 1.8125L0.5 9.6875C0.5 10.4094 1.067 11 1.76 11H11.84C12.533 11 13.1 10.4094 13.1 9.6875V1.8125C13.1 1.09062 12.533 0.5 11.84 0.5ZM11.588 3.28906L7.1339 6.18969C6.9323 6.32094 6.6677 6.32094 6.4661 6.18969L2.012 3.28906C1.94883 3.25212 1.89351 3.20221 1.84939 3.14236C1.80527 3.08251 1.77327 3.01395 1.75532 2.94084C1.73738 2.86773 1.73386 2.79158 1.74498 2.71701C1.7561 2.64245 1.78163 2.571 1.82003 2.50701C1.85842 2.44302 1.90888 2.38781 1.96836 2.34472C2.02783 2.30163 2.09508 2.27155 2.16603 2.25632C2.23699 2.24109 2.31017 2.24101 2.38115 2.25609C2.45213 2.27117 2.51944 2.3011 2.579 2.34406L6.8 5.09375L11.021 2.34406C11.0806 2.3011 11.1479 2.27117 11.2188 2.25609C11.2898 2.24101 11.363 2.24109 11.434 2.25632C11.5049 2.27155 11.5722 2.30163 11.6316 2.34472C11.6911 2.38781 11.7416 2.44302 11.78 2.50701C11.8184 2.571 11.8439 2.64245 11.855 2.71701C11.8661 2.79158 11.8626 2.86773 11.8447 2.94084C11.8267 3.01395 11.7947 3.08251 11.7506 3.14236C11.7065 3.20221 11.6512 3.25212 11.588 3.28906Z" fill="#4772E0"/>
</svg>
