<svg width="14" height="11" viewBox="0 0 14 11" fill="none" xmlns="http://www.w3.org/2000/svg">
<path d="M6.25 10C6.0375 10 5.85925 9.928 5.71525 9.784C5.57125 9.64 5.4995 9.462 5.5 9.25C5.5 9.0375 5.572 8.85925 5.716 8.71525C5.86 8.57125 6.038 8.4995 6.25 8.5H7.75C7.9625 8.5 8.14075 8.572 8.28475 8.716C8.42875 8.86 8.5005 9.038 8.5 9.25C8.5 9.4625 8.428 9.64075 8.284 9.78475C8.14 9.92875 7.962 10.0005 7.75 10H6.25ZM1 2.5C0.787503 2.5 0.609253 2.428 0.465253 2.284C0.321253 2.14 0.249503 1.962 0.250003 1.75C0.250003 1.5375 0.322003 1.35925 0.466003 1.21525C0.610003 1.07125 0.788003 0.999503 1 1H13C13.2125 1 13.3908 1.072 13.5348 1.216C13.6788 1.36 13.7505 1.538 13.75 1.75C13.75 1.9625 13.678 2.14075 13.534 2.28475C13.39 2.42875 13.212 2.5005 13 2.5H1ZM3.25 6.25C3.0375 6.25 2.85925 6.178 2.71525 6.034C2.57125 5.89 2.4995 5.712 2.5 5.5C2.5 5.2875 2.572 5.10925 2.716 4.96525C2.86 4.82125 3.038 4.7495 3.25 4.75H10.75C10.9625 4.75 11.1408 4.822 11.2848 4.966C11.4288 5.11 11.5005 5.288 11.5 5.5C11.5 5.7125 11.428 5.89075 11.284 6.03475C11.14 6.17875 10.962 6.2505 10.75 6.25H3.25Z" fill="#2C2F34" stroke="#2C2F34" stroke-width="0.25"/>
</svg>
