<svg width="32" height="32" viewBox="0 0 32 32" fill="none" xmlns="http://www.w3.org/2000/svg">
<rect width="32" height="32" transform="matrix(0 -1 1 0 0 32)" fill="#F0F2F5"/>
<path d="M12.1537 16C12.1537 14.9804 11.3272 14.1539 10.3076 14.1539C9.28798 14.1539 8.46143 14.9804 8.46143 16C8.46143 17.0196 9.28798 17.8462 10.3076 17.8462C11.3272 17.8462 12.1537 17.0196 12.1537 16Z" fill="#4A4949"/>
<path d="M17.8459 16C17.8459 14.9804 17.0193 14.1539 15.9997 14.1539C14.9801 14.1539 14.1536 14.9804 14.1536 16C14.1536 17.0196 14.9801 17.8462 15.9997 17.8462C17.0193 17.8462 17.8459 17.0196 17.8459 16Z" fill="#4A4949"/>
<path d="M23.5385 16C23.5385 14.9804 22.7119 14.1539 21.6923 14.1539C20.6727 14.1539 19.8462 14.9804 19.8462 16C19.8462 17.0196 20.6727 17.8462 21.6923 17.8462C22.7119 17.8462 23.5385 17.0196 23.5385 16Z" fill="#4A4949"/>
</svg>
