<svg width="32" height="33" viewBox="0 0 32 33" fill="none" xmlns="http://www.w3.org/2000/svg">
<path d="M12 12.5C12 10.2333 13.7333 8.5 16 8.5C18.2667 8.5 20 10.2333 20 12.5C20 14.7667 18.2667 16.5 16 16.5C13.7333 16.5 12 14.7667 12 12.5ZM16 19.1667C9.86667 19.1667 8 23.5667 8 23.5667V25.8333H24V23.5667C24 23.5667 22.1333 19.1667 16 19.1667Z" fill="#3D4148"/>
<path d="M24.6663 15.1667C26.5073 15.1667 27.9997 13.6743 27.9997 11.8333C27.9997 9.99238 26.5073 8.5 24.6663 8.5C22.8254 8.5 21.333 9.99238 21.333 11.8333C21.333 13.6743 22.8254 15.1667 24.6663 15.1667Z" fill="#3D4148"/>
<path d="M24.6664 17.834C23.0664 17.834 21.8664 18.234 20.9331 18.9007C23.9998 20.3673 25.1998 22.9007 25.1998 23.1673V23.3007H30.6664V21.5673C30.6664 21.434 29.1998 17.834 24.6664 17.834Z" fill="#3D4148"/>
<path d="M24.6663 15.1667C26.5073 15.1667 27.9997 13.6743 27.9997 11.8333C27.9997 9.99238 26.5073 8.5 24.6663 8.5C22.8254 8.5 21.333 9.99238 21.333 11.8333C21.333 13.6743 22.8254 15.1667 24.6663 15.1667Z" fill="#3D4148"/>
<path d="M24.6664 17.834C23.0664 17.834 21.8664 18.234 20.9331 18.9007C23.9998 20.3673 25.1998 22.9007 25.1998 23.1673V23.3007H30.6664V21.5673C30.6664 21.434 29.1998 17.834 24.6664 17.834Z" fill="#3D4148"/>
<path d="M7.33333 15.1667C9.17428 15.1667 10.6667 13.6743 10.6667 11.8333C10.6667 9.99238 9.17428 8.5 7.33333 8.5C5.49238 8.5 4 9.99238 4 11.8333C4 13.6743 5.49238 15.1667 7.33333 15.1667Z" fill="#3D4148"/>
<path d="M7.3335 17.834C8.9335 17.834 10.1335 18.234 11.0668 18.9007C8.00016 20.3673 6.80016 22.9007 6.80016 23.1673V23.3007H1.3335V21.5673C1.3335 21.434 2.80016 17.834 7.3335 17.834Z" fill="#3D4148"/>
</svg>
