<svg width="10" height="12" viewBox="0 0 10 12" fill="none" xmlns="http://www.w3.org/2000/svg">
<path fill-rule="evenodd" clip-rule="evenodd" d="M5.00281 2.40723L8.40402 5.81463C8.65577 6.06663 9.06284 6.06663 9.3119 5.81463C9.56364 5.56262 9.56097 5.15513 9.3119 4.90313L5.45809 1.04266C5.21438 0.798709 4.82337 0.793345 4.57163 1.0239L0.691034 4.90045C0.565163 5.02645 0.503562 5.19267 0.503562 5.3562C0.503562 5.51972 0.565163 5.68594 0.691034 5.81194C0.942776 6.06395 1.34985 6.06395 1.59891 5.81194L5.00281 2.40723Z" fill="#181C32"/>
<path fill-rule="evenodd" clip-rule="evenodd" d="M5.00115 7.55243L8.40236 10.9533C8.65411 11.2048 9.06118 11.2048 9.31024 10.9533C9.56199 10.7017 9.55931 10.295 9.31024 10.0435L5.45643 6.1905C5.21272 5.94701 4.82171 5.94166 4.56997 6.17177L0.689375 10.0408C0.563504 10.1666 0.501903 10.3325 0.501903 10.4957C0.501903 10.6589 0.563504 10.8248 0.689375 10.9506C0.941117 11.2021 1.34819 11.2021 1.59725 10.9506L5.00115 7.55243Z" fill="#181C32"/>
</svg>
