<svg width="10" height="12" viewBox="0 0 10 12" fill="none" xmlns="http://www.w3.org/2000/svg">
<path fill-rule="evenodd" clip-rule="evenodd" d="M4.99719 9.59277L1.59598 6.18537C1.34423 5.93337 0.93716 5.93337 0.688097 6.18537C0.436355 6.43738 0.439034 6.84487 0.688097 7.09687L4.54191 10.9573C4.78562 11.2013 5.17663 11.2067 5.42837 10.9761L9.30897 7.09955C9.43484 6.97355 9.49644 6.80733 9.49644 6.6438C9.49644 6.48028 9.43484 6.31406 9.30897 6.18806C9.05722 5.93605 8.65015 5.93605 8.40109 6.18806L4.99719 9.59277Z" fill="#181C32"/>
<path fill-rule="evenodd" clip-rule="evenodd" d="M4.99885 4.44757L1.59764 1.04674C1.34589 0.795222 0.938819 0.795222 0.689756 1.04674C0.438014 1.29825 0.440693 1.70496 0.689756 1.95648L4.54357 5.8095C4.78728 6.05299 5.17829 6.05834 5.43003 5.82823L9.31063 1.95915C9.4365 1.8334 9.4981 1.6675 9.4981 1.50428C9.4981 1.34107 9.4365 1.17517 9.31063 1.04941C9.05888 0.797899 8.65181 0.797899 8.40275 1.04941L4.99885 4.44757Z" fill="#181C32"/>
</svg>
