<svg width="74" height="32" viewBox="0 0 74 32" fill="none" xmlns="http://www.w3.org/2000/svg">
<path d="M17.9432 19.7619V11.1152H19.4105V19.7619H17.9432ZM14.3535 16.1722V14.7049H23.0002V16.1722H14.3535Z" fill="#3BBB61" stroke="#3BBB61" stroke-width="0.5"/>
<path d="M11.6307 12.4553V3.80859H13.098V12.4553H11.6307ZM8.04102 8.86559V7.39827H16.6877V8.86559H8.04102Z" fill="#F6BA2C" stroke="#F6BA2C" stroke-width="0.5"/>
<path d="M4.58968 20.7736V12.127H6.05699V20.7736H4.58968ZM1 17.1839V15.7166H9.64668V17.1839H1Z" fill="#D3682F" stroke="#D3682F" stroke-width="0.5"/>
<path d="M13.451 28.1916V19.5449H14.9183V28.1916H13.451ZM9.86133 24.6019V23.1346H18.508V24.6019H9.86133Z" fill="#4AB6DC" stroke="#4AB6DC" stroke-width="0.5"/>
<path d="M48.1285 2.75617C47.8148 2.75261 47.5036 2.81287 47.2138 2.9333C46.9241 3.05373 46.6619 3.23181 46.4431 3.45672V2.83742H44.8008V9.57924H45.5658L45.5744 9.57491C45.8151 9.57491 46.046 9.4793 46.2162 9.3091C46.3864 9.13891 46.482 8.90807 46.482 8.66737V5.50217C46.4676 5.34622 46.4859 5.18897 46.5357 5.0405C46.5856 4.89202 46.6658 4.75558 46.7713 4.63986C46.8769 4.52415 47.0054 4.43172 47.1487 4.36848C47.292 4.30524 47.4468 4.27257 47.6035 4.27257C47.7601 4.27257 47.915 4.30524 48.0582 4.36848C48.2015 4.43172 48.33 4.52415 48.4356 4.63986C48.5411 4.75558 48.6213 4.89202 48.6712 5.0405C48.721 5.18897 48.7393 5.34622 48.7249 5.50217V9.57794H49.4899L49.4985 9.57362C49.7392 9.57362 49.97 9.478 50.1402 9.3078C50.3104 9.1376 50.4061 8.90676 50.4061 8.66606V5.26534C50.4328 4.91618 50.3858 4.56529 50.268 4.23551C50.1502 3.90573 49.9643 3.60444 49.7224 3.35126C49.5098 3.15057 49.2594 2.99431 48.9857 2.89161C48.712 2.78891 48.4206 2.74184 48.1285 2.75315M55.4814 9.57189H54.7165V2.83007H56.402V8.66217C56.402 8.78135 56.3785 8.89937 56.3329 9.00948C56.2873 9.11959 56.2204 9.21963 56.1361 9.30391C56.0519 9.38818 55.9518 9.45504 55.8417 9.50064C55.7316 9.54625 55.6136 9.56973 55.4944 9.56973L55.4814 9.57189ZM52.4822 9.57189H51.7173V2.04483H48.7223V0.359375H56.3959V2.04483H53.401V8.66737C53.401 8.90807 53.3054 9.13891 53.1352 9.3091C52.965 9.4793 52.7341 9.57491 52.4934 9.57491L52.4822 9.57189ZM38.3144 0.363688H36.2833L32.9655 4.85392L36.4518 9.57491H38.5068L34.9007 4.85392L38.3144 0.363688ZM31 0.363688V9.57535H31.876L31.8846 9.57103C32.1253 9.57103 32.3562 9.47541 32.5264 9.30521C32.6966 9.13501 32.7922 8.90417 32.7922 8.66348L32.7965 8.63366V0.363688H31ZM42.0531 7.09298C42.0738 7.24479 42.0625 7.39926 42.0198 7.54642C41.9772 7.69358 41.9042 7.83016 41.8055 7.94737C41.6627 8.07466 41.4941 8.16958 41.3112 8.2256C41.1283 8.28162 40.9354 8.29742 40.7458 8.27193C40.0837 8.27193 39.776 7.95991 39.776 7.49403C39.776 7.01562 40.1136 6.72909 40.7203 6.72909H42.0531V7.09211V7.09298ZM40.8655 2.75617C39.7376 2.75617 39.0936 2.96145 38.4346 3.68749L39.5068 4.7342C39.6575 4.53859 39.8557 4.38485 40.0827 4.28763C40.3097 4.19042 40.5577 4.15297 40.8033 4.17887C41.6962 4.17887 42.0596 4.50342 42.0596 5.23854V5.57607H40.4645C38.9009 5.57607 38.1615 6.45639 38.1615 7.5286C38.1534 7.78202 38.1987 8.03429 38.2944 8.26909C38.39 8.5039 38.534 8.716 38.7168 8.89165C39.3019 9.47681 39.8919 9.63498 40.9472 9.63498C42.0026 9.63498 42.592 9.47681 43.1776 8.89165C43.5536 8.39518 43.7495 7.78554 43.733 7.16298V5.13784C43.7373 3.5613 42.7545 2.7579 40.866 2.7579M71.2988 9.64104C69.4102 9.64104 68.4275 8.83764 68.4275 7.26109V5.2299C68.411 4.60734 68.6068 3.9977 68.9828 3.50123C69.568 2.91607 70.1579 2.7579 71.2132 2.7579C72.2686 2.7579 72.858 2.91607 73.4436 3.50123C73.6269 3.67654 73.7711 3.88857 73.8668 4.12346C73.9625 4.35835 74.0076 4.6108 73.999 4.86428C73.999 5.93649 73.26 6.81682 71.6959 6.81682H70.1064V7.15435C70.1064 7.89335 70.4695 8.21402 71.3627 8.21402C71.6083 8.2395 71.8562 8.20187 72.0831 8.10468C72.31 8.0075 72.5083 7.85398 72.6592 7.65868L73.7315 8.70539C73.0737 9.43619 72.4285 9.64104 71.3005 9.64104M71.4202 4.12961C71.2306 4.10379 71.0377 4.11944 70.8547 4.17548C70.6718 4.23151 70.5032 4.32659 70.3605 4.45415C70.2628 4.5719 70.1903 4.70855 70.1477 4.85555C70.1051 5.00256 70.0932 5.15677 70.1129 5.30856V5.67158H71.4462C72.0512 5.67158 72.3904 5.38547 72.3904 4.90663C72.3904 4.44076 72.0784 4.12874 71.4207 4.12874M66.4559 9.57405H65.6953V5.49828C65.7106 5.34378 65.6938 5.18779 65.6458 5.04013C65.5978 4.89247 65.5198 4.75635 65.4166 4.64037C65.3134 4.52438 65.1873 4.43104 65.0462 4.36624C64.9051 4.30143 64.7521 4.26657 64.5969 4.26384C64.4417 4.26111 64.2875 4.29059 64.1443 4.3504C64.001 4.41021 63.8717 4.49907 63.7645 4.61136C63.6573 4.72365 63.5745 4.85694 63.5213 5.00282C63.4682 5.1487 63.4459 5.30401 63.4558 5.45895V8.64619L63.4515 8.66348C63.4515 8.78266 63.428 8.90067 63.3824 9.01078C63.3368 9.12088 63.2699 9.22094 63.1857 9.30521C63.1014 9.38949 63.0013 9.45633 62.8912 9.50194C62.7811 9.54755 62.6631 9.57103 62.5439 9.57103L62.5353 9.57535H61.7703V5.49957C61.7917 5.34317 61.7786 5.18401 61.7321 5.03318C61.6856 4.88235 61.6066 4.74349 61.5009 4.62632C61.3951 4.50915 61.265 4.41649 61.1197 4.3548C60.9744 4.29312 60.8174 4.26391 60.6597 4.2692C60.501 4.26328 60.343 4.29191 60.1965 4.35312C60.05 4.41432 59.9186 4.50663 59.8113 4.62366C59.704 4.74068 59.6234 4.87961 59.5752 5.03086C59.5269 5.1821 59.5121 5.34203 59.5317 5.49957V8.68681C59.5264 8.92369 59.4283 9.14903 59.2586 9.31438C59.0889 9.47973 58.8611 9.57188 58.6242 9.57103L58.6155 9.57535H57.8463V2.83352H59.4885V3.45326C59.7091 3.23101 59.9717 3.05495 60.2611 2.93541C60.5505 2.81586 60.8608 2.75522 61.174 2.75703C61.519 2.74084 61.8627 2.81041 62.1743 2.9595C62.486 3.1086 62.7558 3.33259 62.9597 3.61143C63.2121 3.32924 63.5237 3.10632 63.8723 2.95862C64.2209 2.81092 64.5979 2.74207 64.9762 2.75703C65.5846 2.73448 66.1782 2.94715 66.634 3.35084C66.8832 3.60118 67.0776 3.90062 67.2048 4.23014C67.332 4.55967 67.3893 4.91205 67.373 5.2649V8.64446L67.3687 8.66175C67.3687 8.90245 67.273 9.13329 67.1028 9.30349C66.9326 9.47369 66.7018 9.56929 66.4611 9.56929L66.4559 9.57405Z" fill="#E0E7F1"/>
<rect x="31" y="13.6406" width="34" height="18" rx="2" fill="#039176"/>
<path d="M37.3 17.2606V25.8706H41.41L41.17 27.6406H35.095V17.2606H37.3ZM52.6454 27.6406H50.4854L50.2604 23.4256C50.1904 22.1656 50.1554 21.0956 50.1554 20.2156C50.1554 19.7456 50.1604 19.4056 50.1704 19.1956L48.4154 26.5306H46.3304L44.4554 19.1806C44.4954 19.7906 44.5154 20.4756 44.5154 21.2356C44.5154 22.0456 44.4954 22.7906 44.4554 23.4706L44.2304 27.6406H42.0854L42.8954 17.2606H45.7004L47.4104 24.4156L49.0154 17.2606H51.8504L52.6454 27.6406ZM57.2883 17.0206C58.0383 17.0206 58.6883 17.1306 59.2383 17.3506C59.7983 17.5606 60.3133 17.8856 60.7833 18.3256L59.7333 19.5406C59.3633 19.2406 58.9933 19.0206 58.6233 18.8806C58.2533 18.7406 57.8583 18.6706 57.4383 18.6706C56.9783 18.6706 56.6083 18.7706 56.3283 18.9706C56.0583 19.1606 55.9233 19.4356 55.9233 19.7956C55.9233 20.0456 55.9783 20.2506 56.0883 20.4106C56.2083 20.5706 56.4133 20.7206 56.7033 20.8606C56.9933 21.0006 57.4283 21.1606 58.0083 21.3406C59.0383 21.6706 59.8083 22.0806 60.3183 22.5706C60.8283 23.0506 61.0833 23.7406 61.0833 24.6406C61.0833 25.2806 60.9233 25.8456 60.6033 26.3356C60.2833 26.8156 59.8183 27.1956 59.2083 27.4756C58.5983 27.7456 57.8833 27.8806 57.0633 27.8806C56.2433 27.8806 55.5133 27.7506 54.8733 27.4906C54.2333 27.2306 53.6833 26.8756 53.2233 26.4256L54.3483 25.1806C54.7483 25.5206 55.1633 25.7806 55.5933 25.9606C56.0233 26.1306 56.4933 26.2156 57.0033 26.2156C57.5433 26.2156 57.9733 26.0906 58.2933 25.8406C58.6233 25.5906 58.7883 25.2406 58.7883 24.7906C58.7883 24.5106 58.7283 24.2806 58.6083 24.1006C58.4983 23.9106 58.3033 23.7406 58.0233 23.5906C57.7433 23.4406 57.3383 23.2856 56.8083 23.1256C55.6783 22.7756 54.8683 22.3556 54.3783 21.8656C53.8983 21.3756 53.6583 20.7356 53.6583 19.9456C53.6583 19.3656 53.8133 18.8556 54.1233 18.4156C54.4333 17.9656 54.8633 17.6206 55.4133 17.3806C55.9633 17.1406 56.5883 17.0206 57.2883 17.0206Z" fill="white"/>
</svg>
