<svg width="8" height="11" viewBox="0 0 8 11" fill="none" xmlns="http://www.w3.org/2000/svg">
<path d="M4 6.90359C3.52381 6.90359 3.11905 6.73985 2.78571 6.41236C2.45238 6.08488 2.28571 5.68721 2.28571 5.21938V1.85096C2.28571 1.38312 2.45238 0.985461 2.78571 0.657976C3.11905 0.330491 3.52381 0.166748 4 0.166748C4.47619 0.166748 4.88095 0.330491 5.21429 0.657976C5.54762 0.985461 5.71429 1.38312 5.71429 1.85096V5.21938C5.71429 5.68721 5.54762 6.08488 5.21429 6.41236C4.88095 6.73985 4.47619 6.90359 4 6.90359ZM3.42857 10.8334V9.1071C2.4381 8.9761 1.61905 8.54102 0.971429 7.80183C0.323809 7.06265 0 6.20183 0 5.21938H1.14286C1.14286 5.99599 1.42152 6.65807 1.97886 7.20562C2.53619 7.75318 3.2099 8.02677 4 8.0264C4.79048 8.0264 5.46438 7.75262 6.02171 7.20506C6.57905 6.65751 6.85752 5.99561 6.85714 5.21938H8C8 6.20183 7.67619 7.06265 7.02857 7.80183C6.38095 8.54102 5.5619 8.9761 4.57143 9.1071V10.8334H3.42857Z" fill="#33373E"/>
</svg>
