<svg width="13" height="14" viewBox="0 0 13 14" fill="none" xmlns="http://www.w3.org/2000/svg">
<path d="M9.625 6.375H8.375V5.125H9.625M7.125 6.375H5.875V5.125H7.125M4.625 6.375H3.375V5.125H4.625M11.5 0.75H1.5C1.16848 0.75 0.850537 0.881696 0.616116 1.11612C0.381696 1.35054 0.25 1.66848 0.25 2V13.25L2.75 10.75H11.5C11.8315 10.75 12.1495 10.6183 12.3839 10.3839C12.6183 10.1495 12.75 9.83152 12.75 9.5V2C12.75 1.66848 12.6183 1.35054 12.3839 1.11612C12.1495 0.881696 11.8315 0.75 11.5 0.75Z" fill="#4772E0"/>
</svg>
