<svg width="18" height="19" viewBox="0 0 18 19" fill="none" xmlns="http://www.w3.org/2000/svg">
<path d="M16.8075 8.4433L15.27 6.9058V4.7233C15.27 4.32547 15.112 3.94394 14.8307 3.66264C14.5494 3.38133 14.1678 3.2233 13.77 3.2233H11.595L10.0575 1.7233C9.77646 1.44392 9.39628 1.28711 9 1.28711C8.60372 1.28711 8.22354 1.44392 7.9425 1.7233L6.405 3.2308H4.2225C3.82468 3.2308 3.44315 3.38883 3.16184 3.67014C2.88054 3.95144 2.7225 4.33297 2.7225 4.7308V6.9058L1.2225 8.4433C1.07758 8.57945 0.961179 8.74306 0.880062 8.9246C0.798946 9.10615 0.754735 9.30201 0.75 9.5008C0.749684 9.89691 0.90606 10.2771 1.185 10.5583L2.73 12.0958V14.2783C2.73 14.6761 2.88804 15.0577 3.16934 15.339C3.45064 15.6203 3.83218 15.7783 4.23 15.7783H6.405L7.9425 17.3158C8.22374 17.5947 8.60389 17.7511 9 17.7508C9.39611 17.7511 9.77626 17.5947 10.0575 17.3158L11.595 15.7708H13.7775C14.1753 15.7708 14.5569 15.6128 14.8382 15.3315C15.1195 15.0502 15.2775 14.6686 15.2775 14.2708V12.0958L16.815 10.5583C17.0944 10.2773 17.2512 9.89708 17.2512 9.5008C17.2512 9.10452 17.0944 8.72434 16.815 8.4433H16.8075ZM13.77 11.4808V14.2708H10.98L9 16.2508L7.02 14.2708H4.23V11.4808L2.25 9.5008L4.23 7.5208V4.7308H7.02L9 2.7508L10.98 4.7308H13.77V7.5208L15.75 9.5008L13.77 11.4808Z" fill="#3D4148"/>
<path d="M8.24979 10.0476L6.53229 8.33008L5.46729 9.38758L8.24979 12.1701L12.5323 7.88758L11.4673 6.83008L8.24979 10.0476Z" fill="#3D4148"/>
</svg>
